G04 #@! TF.FileFunction,Soldermask,Bot*
%FSLAX46Y46*%
G04 Gerber Fmt 4.6, Leading zero omitted, Abs format (unit mm)*
G04 Created by KiCad (PCBNEW 4.0.7) date 11/21/19 20:47:33*
%MOMM*%
%LPD*%
G01*
G04 APERTURE LIST*
%ADD10C,0.100000*%
G04 APERTURE END LIST*
D10*
G36*
X34850000Y-189450000D02*
X29550000Y-189450000D01*
X29550000Y-183150000D01*
X34850000Y-183150000D01*
X34850000Y-189450000D01*
X34850000Y-189450000D01*
G37*
G36*
X119500000Y-189400000D02*
X117500000Y-189400000D01*
X117500000Y-30400000D01*
X119500000Y-30400000D01*
X119500000Y-189400000D01*
X119500000Y-189400000D01*
G37*
G36*
X22500000Y-189400000D02*
X20500000Y-189400000D01*
X20500000Y-30400000D01*
X22500000Y-30400000D01*
X22500000Y-189400000D01*
X22500000Y-189400000D01*
G37*
G36*
X110149671Y-186175946D02*
X110423425Y-186232139D01*
X110681044Y-186340432D01*
X110912730Y-186496707D01*
X111109639Y-186694995D01*
X111264295Y-186927770D01*
X111370783Y-187186132D01*
X111424960Y-187459744D01*
X111424960Y-187459761D01*
X111425061Y-187460272D01*
X111420604Y-187779464D01*
X111420488Y-187779973D01*
X111420488Y-187779993D01*
X111358694Y-188051977D01*
X111245029Y-188307276D01*
X111083942Y-188535630D01*
X110881565Y-188728351D01*
X110645611Y-188878093D01*
X110385064Y-188979152D01*
X110109854Y-189027679D01*
X109830457Y-189021826D01*
X109557522Y-188961818D01*
X109301434Y-188849936D01*
X109071958Y-188690446D01*
X108877829Y-188489419D01*
X108726446Y-188254519D01*
X108623570Y-187994684D01*
X108573123Y-187719821D01*
X108577026Y-187440386D01*
X108635128Y-187167035D01*
X108745216Y-186910182D01*
X108903105Y-186679591D01*
X109102769Y-186484066D01*
X109336607Y-186331046D01*
X109595715Y-186226359D01*
X109870222Y-186173994D01*
X110149671Y-186175946D01*
X110149671Y-186175946D01*
G37*
G36*
X114780964Y-181726778D02*
X115294848Y-181832264D01*
X115778451Y-182035551D01*
X116213365Y-182328905D01*
X116583008Y-182701137D01*
X116873317Y-183138087D01*
X117073223Y-183623095D01*
X117175013Y-184137175D01*
X117175013Y-184137187D01*
X117175115Y-184137703D01*
X117166748Y-184736889D01*
X117166632Y-184737398D01*
X117166632Y-184737417D01*
X117050528Y-185248448D01*
X116837156Y-185727690D01*
X116534764Y-186156358D01*
X116154866Y-186518130D01*
X115711934Y-186799223D01*
X115222840Y-186988930D01*
X114706217Y-187080025D01*
X114181736Y-187069038D01*
X113669382Y-186956390D01*
X113188659Y-186746368D01*
X112757889Y-186446975D01*
X112393472Y-186069610D01*
X112109297Y-185628656D01*
X111916180Y-185140898D01*
X111821481Y-184624924D01*
X111828806Y-184100376D01*
X111937875Y-183587244D01*
X112144534Y-183105073D01*
X112440914Y-182672221D01*
X112815724Y-182305180D01*
X113254685Y-182017932D01*
X113741081Y-181821415D01*
X114256383Y-181723116D01*
X114780964Y-181726778D01*
X114780964Y-181726778D01*
G37*
G36*
X25780964Y-181726778D02*
X26294848Y-181832264D01*
X26778451Y-182035551D01*
X27213365Y-182328905D01*
X27583008Y-182701137D01*
X27873317Y-183138087D01*
X28073223Y-183623095D01*
X28175013Y-184137175D01*
X28175013Y-184137187D01*
X28175115Y-184137703D01*
X28166748Y-184736889D01*
X28166632Y-184737398D01*
X28166632Y-184737417D01*
X28050528Y-185248448D01*
X27837156Y-185727690D01*
X27534764Y-186156358D01*
X27154866Y-186518130D01*
X26711934Y-186799223D01*
X26222840Y-186988930D01*
X25706217Y-187080025D01*
X25181736Y-187069038D01*
X24669382Y-186956390D01*
X24188659Y-186746368D01*
X23757889Y-186446975D01*
X23393472Y-186069610D01*
X23109297Y-185628656D01*
X22916180Y-185140898D01*
X22821481Y-184624924D01*
X22828806Y-184100376D01*
X22937875Y-183587244D01*
X23144534Y-183105073D01*
X23440914Y-182672221D01*
X23815724Y-182305180D01*
X24254685Y-182017932D01*
X24741081Y-181821415D01*
X25256383Y-181723116D01*
X25780964Y-181726778D01*
X25780964Y-181726778D01*
G37*
G36*
X80582165Y-183795005D02*
X80757599Y-183831017D01*
X80922693Y-183900416D01*
X81071166Y-184000562D01*
X81197353Y-184127633D01*
X81296464Y-184276806D01*
X81364707Y-184442376D01*
X81399387Y-184617527D01*
X81399387Y-184617535D01*
X81399490Y-184618056D01*
X81396633Y-184822608D01*
X81396517Y-184823117D01*
X81396517Y-184823137D01*
X81356959Y-184997246D01*
X81284118Y-185160853D01*
X81180887Y-185307191D01*
X81051195Y-185430695D01*
X80899984Y-185526656D01*
X80733015Y-185591420D01*
X80556649Y-185622518D01*
X80377599Y-185618766D01*
X80202692Y-185580311D01*
X80038577Y-185508611D01*
X79891523Y-185406405D01*
X79767114Y-185277577D01*
X79670103Y-185127044D01*
X79604175Y-184960530D01*
X79571847Y-184784388D01*
X79574348Y-184605312D01*
X79611582Y-184430137D01*
X79682130Y-184265537D01*
X79783314Y-184117762D01*
X79911267Y-183992461D01*
X80061118Y-183894401D01*
X80227166Y-183827313D01*
X80403083Y-183793755D01*
X80582165Y-183795005D01*
X80582165Y-183795005D01*
G37*
G36*
X78003665Y-183795005D02*
X78179099Y-183831017D01*
X78344193Y-183900416D01*
X78492666Y-184000562D01*
X78618853Y-184127633D01*
X78717964Y-184276806D01*
X78786207Y-184442376D01*
X78820887Y-184617527D01*
X78820887Y-184617535D01*
X78820990Y-184618056D01*
X78818133Y-184822608D01*
X78818017Y-184823117D01*
X78818017Y-184823137D01*
X78778459Y-184997246D01*
X78705618Y-185160853D01*
X78602387Y-185307191D01*
X78472695Y-185430695D01*
X78321484Y-185526656D01*
X78154515Y-185591420D01*
X77978149Y-185622518D01*
X77799099Y-185618766D01*
X77624192Y-185580311D01*
X77460077Y-185508611D01*
X77313023Y-185406405D01*
X77188614Y-185277577D01*
X77091603Y-185127044D01*
X77025675Y-184960530D01*
X76993347Y-184784388D01*
X76995848Y-184605312D01*
X77033082Y-184430137D01*
X77103630Y-184265537D01*
X77204814Y-184117762D01*
X77332767Y-183992461D01*
X77482618Y-183894401D01*
X77648666Y-183827313D01*
X77824583Y-183793755D01*
X78003665Y-183795005D01*
X78003665Y-183795005D01*
G37*
G36*
X110149671Y-182075946D02*
X110423425Y-182132139D01*
X110681044Y-182240432D01*
X110912730Y-182396707D01*
X111109639Y-182594995D01*
X111264295Y-182827770D01*
X111370783Y-183086132D01*
X111424960Y-183359744D01*
X111424960Y-183359761D01*
X111425061Y-183360272D01*
X111420604Y-183679464D01*
X111420488Y-183679973D01*
X111420488Y-183679993D01*
X111358694Y-183951977D01*
X111245029Y-184207276D01*
X111083942Y-184435630D01*
X110881565Y-184628351D01*
X110645611Y-184778093D01*
X110385064Y-184879152D01*
X110109854Y-184927679D01*
X109830457Y-184921826D01*
X109557522Y-184861818D01*
X109301434Y-184749936D01*
X109071958Y-184590446D01*
X108877829Y-184389419D01*
X108726446Y-184154519D01*
X108623570Y-183894684D01*
X108573123Y-183619821D01*
X108577026Y-183340386D01*
X108635128Y-183067035D01*
X108745216Y-182810182D01*
X108903105Y-182579591D01*
X109102769Y-182384066D01*
X109336607Y-182231046D01*
X109595715Y-182126359D01*
X109870222Y-182073994D01*
X110149671Y-182075946D01*
X110149671Y-182075946D01*
G37*
G36*
X100675000Y-184875000D02*
X99825000Y-184875000D01*
X99825000Y-183825000D01*
X100675000Y-183825000D01*
X100675000Y-184875000D01*
X100675000Y-184875000D01*
G37*
G36*
X93075000Y-184875000D02*
X92225000Y-184875000D01*
X92225000Y-183825000D01*
X93075000Y-183825000D01*
X93075000Y-184875000D01*
X93075000Y-184875000D01*
G37*
G36*
X92425000Y-182975000D02*
X91575000Y-182975000D01*
X91575000Y-181925000D01*
X92425000Y-181925000D01*
X92425000Y-182975000D01*
X92425000Y-182975000D01*
G37*
G36*
X93725000Y-182975000D02*
X92875000Y-182975000D01*
X92875000Y-181925000D01*
X93725000Y-181925000D01*
X93725000Y-182975000D01*
X93725000Y-182975000D01*
G37*
G36*
X100025000Y-182975000D02*
X99175000Y-182975000D01*
X99175000Y-181925000D01*
X100025000Y-181925000D01*
X100025000Y-182975000D01*
X100025000Y-182975000D01*
G37*
G36*
X101325000Y-182975000D02*
X100475000Y-182975000D01*
X100475000Y-181925000D01*
X101325000Y-181925000D01*
X101325000Y-182975000D01*
X101325000Y-182975000D01*
G37*
G36*
X63085426Y-179626046D02*
X63387996Y-179688155D01*
X63672734Y-179807848D01*
X63928804Y-179980569D01*
X64146442Y-180199732D01*
X64317376Y-180457007D01*
X64435076Y-180742569D01*
X64494965Y-181045036D01*
X64494965Y-181045042D01*
X64495068Y-181045563D01*
X64490142Y-181398355D01*
X64490025Y-181398869D01*
X64490025Y-181398884D01*
X64421714Y-181699553D01*
X64296083Y-181981725D01*
X64118040Y-182234117D01*
X63894361Y-182447124D01*
X63633569Y-182612628D01*
X63345597Y-182724325D01*
X63041417Y-182777960D01*
X62732610Y-182771490D01*
X62430945Y-182705166D01*
X62147902Y-182581507D01*
X61894271Y-182405229D01*
X61679706Y-182183042D01*
X61512389Y-181923415D01*
X61398684Y-181636229D01*
X61342927Y-181332433D01*
X61347240Y-181023585D01*
X61411459Y-180721460D01*
X61533136Y-180437567D01*
X61707640Y-180182709D01*
X61928324Y-179966600D01*
X62186776Y-179797473D01*
X62473159Y-179681767D01*
X62776561Y-179623890D01*
X63085426Y-179626046D01*
X63085426Y-179626046D01*
G37*
G36*
X51045426Y-179626046D02*
X51347996Y-179688155D01*
X51632734Y-179807848D01*
X51888804Y-179980569D01*
X52106442Y-180199732D01*
X52277376Y-180457007D01*
X52395076Y-180742569D01*
X52454965Y-181045036D01*
X52454965Y-181045042D01*
X52455068Y-181045563D01*
X52450142Y-181398355D01*
X52450025Y-181398869D01*
X52450025Y-181398884D01*
X52381714Y-181699553D01*
X52256083Y-181981725D01*
X52078040Y-182234117D01*
X51854361Y-182447124D01*
X51593569Y-182612628D01*
X51305597Y-182724325D01*
X51001417Y-182777960D01*
X50692610Y-182771490D01*
X50390945Y-182705166D01*
X50107902Y-182581507D01*
X49854271Y-182405229D01*
X49639706Y-182183042D01*
X49472389Y-181923415D01*
X49358684Y-181636229D01*
X49302927Y-181332433D01*
X49307240Y-181023585D01*
X49371459Y-180721460D01*
X49493136Y-180437567D01*
X49667640Y-180182709D01*
X49888324Y-179966600D01*
X50146776Y-179797473D01*
X50433159Y-179681767D01*
X50736561Y-179623890D01*
X51045426Y-179626046D01*
X51045426Y-179626046D01*
G37*
G36*
X94013780Y-179750630D02*
X94196284Y-179788092D01*
X94368028Y-179860287D01*
X94522488Y-179964472D01*
X94653759Y-180096662D01*
X94756862Y-180251844D01*
X94827856Y-180424091D01*
X94863939Y-180606320D01*
X94863939Y-180606332D01*
X94864041Y-180606848D01*
X94861070Y-180819643D01*
X94860953Y-180820157D01*
X94860953Y-180820171D01*
X94819797Y-181001318D01*
X94744020Y-181171518D01*
X94636629Y-181323753D01*
X94501711Y-181452234D01*
X94344406Y-181552062D01*
X94170709Y-181619436D01*
X93987236Y-181651787D01*
X93800971Y-181647884D01*
X93619013Y-181607879D01*
X93448290Y-181533292D01*
X93295305Y-181426965D01*
X93165885Y-181292946D01*
X93064964Y-181136346D01*
X92996380Y-180963123D01*
X92962748Y-180779882D01*
X92965350Y-180593590D01*
X93004085Y-180411356D01*
X93077476Y-180240122D01*
X93182737Y-180086393D01*
X93315846Y-179956043D01*
X93471737Y-179854030D01*
X93644476Y-179784239D01*
X93827481Y-179749329D01*
X94013780Y-179750630D01*
X94013780Y-179750630D01*
G37*
G36*
X104173780Y-179750630D02*
X104356284Y-179788092D01*
X104528028Y-179860287D01*
X104682488Y-179964472D01*
X104813759Y-180096662D01*
X104916862Y-180251844D01*
X104987856Y-180424091D01*
X105023939Y-180606320D01*
X105023939Y-180606332D01*
X105024041Y-180606848D01*
X105021070Y-180819643D01*
X105020953Y-180820157D01*
X105020953Y-180820171D01*
X104979797Y-181001318D01*
X104904020Y-181171518D01*
X104796629Y-181323753D01*
X104661711Y-181452234D01*
X104504406Y-181552062D01*
X104330709Y-181619436D01*
X104147236Y-181651787D01*
X103960971Y-181647884D01*
X103779013Y-181607879D01*
X103608290Y-181533292D01*
X103455305Y-181426965D01*
X103325885Y-181292946D01*
X103224964Y-181136346D01*
X103156380Y-180963123D01*
X103122748Y-180779882D01*
X103125350Y-180593590D01*
X103164085Y-180411356D01*
X103237476Y-180240122D01*
X103342737Y-180086393D01*
X103475846Y-179956043D01*
X103631737Y-179854030D01*
X103804476Y-179784239D01*
X103987481Y-179749329D01*
X104173780Y-179750630D01*
X104173780Y-179750630D01*
G37*
G36*
X101633780Y-179750630D02*
X101816284Y-179788092D01*
X101988028Y-179860287D01*
X102142488Y-179964472D01*
X102273759Y-180096662D01*
X102376862Y-180251844D01*
X102447856Y-180424091D01*
X102483939Y-180606320D01*
X102483939Y-180606332D01*
X102484041Y-180606848D01*
X102481070Y-180819643D01*
X102480953Y-180820157D01*
X102480953Y-180820171D01*
X102439797Y-181001318D01*
X102364020Y-181171518D01*
X102256629Y-181323753D01*
X102121711Y-181452234D01*
X101964406Y-181552062D01*
X101790709Y-181619436D01*
X101607236Y-181651787D01*
X101420971Y-181647884D01*
X101239013Y-181607879D01*
X101068290Y-181533292D01*
X100915305Y-181426965D01*
X100785885Y-181292946D01*
X100684964Y-181136346D01*
X100616380Y-180963123D01*
X100582748Y-180779882D01*
X100585350Y-180593590D01*
X100624085Y-180411356D01*
X100697476Y-180240122D01*
X100802737Y-180086393D01*
X100935846Y-179956043D01*
X101091737Y-179854030D01*
X101264476Y-179784239D01*
X101447481Y-179749329D01*
X101633780Y-179750630D01*
X101633780Y-179750630D01*
G37*
G36*
X99093780Y-179750630D02*
X99276284Y-179788092D01*
X99448028Y-179860287D01*
X99602488Y-179964472D01*
X99733759Y-180096662D01*
X99836862Y-180251844D01*
X99907856Y-180424091D01*
X99943939Y-180606320D01*
X99943939Y-180606332D01*
X99944041Y-180606848D01*
X99941070Y-180819643D01*
X99940953Y-180820157D01*
X99940953Y-180820171D01*
X99899797Y-181001318D01*
X99824020Y-181171518D01*
X99716629Y-181323753D01*
X99581711Y-181452234D01*
X99424406Y-181552062D01*
X99250709Y-181619436D01*
X99067236Y-181651787D01*
X98880971Y-181647884D01*
X98699013Y-181607879D01*
X98528290Y-181533292D01*
X98375305Y-181426965D01*
X98245885Y-181292946D01*
X98144964Y-181136346D01*
X98076380Y-180963123D01*
X98042748Y-180779882D01*
X98045350Y-180593590D01*
X98084085Y-180411356D01*
X98157476Y-180240122D01*
X98262737Y-180086393D01*
X98395846Y-179956043D01*
X98551737Y-179854030D01*
X98724476Y-179784239D01*
X98907481Y-179749329D01*
X99093780Y-179750630D01*
X99093780Y-179750630D01*
G37*
G36*
X96553780Y-179750630D02*
X96736284Y-179788092D01*
X96908028Y-179860287D01*
X97062488Y-179964472D01*
X97193759Y-180096662D01*
X97296862Y-180251844D01*
X97367856Y-180424091D01*
X97403939Y-180606320D01*
X97403939Y-180606332D01*
X97404041Y-180606848D01*
X97401070Y-180819643D01*
X97400953Y-180820157D01*
X97400953Y-180820171D01*
X97359797Y-181001318D01*
X97284020Y-181171518D01*
X97176629Y-181323753D01*
X97041711Y-181452234D01*
X96884406Y-181552062D01*
X96710709Y-181619436D01*
X96527236Y-181651787D01*
X96340971Y-181647884D01*
X96159013Y-181607879D01*
X95988290Y-181533292D01*
X95835305Y-181426965D01*
X95705885Y-181292946D01*
X95604964Y-181136346D01*
X95536380Y-180963123D01*
X95502748Y-180779882D01*
X95505350Y-180593590D01*
X95544085Y-180411356D01*
X95617476Y-180240122D01*
X95722737Y-180086393D01*
X95855846Y-179956043D01*
X96011737Y-179854030D01*
X96184476Y-179784239D01*
X96367481Y-179749329D01*
X96553780Y-179750630D01*
X96553780Y-179750630D01*
G37*
G36*
X91473780Y-179750630D02*
X91656284Y-179788092D01*
X91828028Y-179860287D01*
X91982488Y-179964472D01*
X92113759Y-180096662D01*
X92216862Y-180251844D01*
X92287856Y-180424091D01*
X92323939Y-180606320D01*
X92323939Y-180606332D01*
X92324041Y-180606848D01*
X92321070Y-180819643D01*
X92320953Y-180820157D01*
X92320953Y-180820171D01*
X92279797Y-181001318D01*
X92204020Y-181171518D01*
X92096629Y-181323753D01*
X91961711Y-181452234D01*
X91804406Y-181552062D01*
X91630709Y-181619436D01*
X91447236Y-181651787D01*
X91260971Y-181647884D01*
X91079013Y-181607879D01*
X90908290Y-181533292D01*
X90755305Y-181426965D01*
X90625885Y-181292946D01*
X90524964Y-181136346D01*
X90456380Y-180963123D01*
X90422748Y-180779882D01*
X90425350Y-180593590D01*
X90464085Y-180411356D01*
X90537476Y-180240122D01*
X90642737Y-180086393D01*
X90775846Y-179956043D01*
X90931737Y-179854030D01*
X91104476Y-179784239D01*
X91287481Y-179749329D01*
X91473780Y-179750630D01*
X91473780Y-179750630D01*
G37*
G36*
X88933780Y-179750630D02*
X89116284Y-179788092D01*
X89288028Y-179860287D01*
X89442488Y-179964472D01*
X89573759Y-180096662D01*
X89676862Y-180251844D01*
X89747856Y-180424091D01*
X89783939Y-180606320D01*
X89783939Y-180606332D01*
X89784041Y-180606848D01*
X89781070Y-180819643D01*
X89780953Y-180820157D01*
X89780953Y-180820171D01*
X89739797Y-181001318D01*
X89664020Y-181171518D01*
X89556629Y-181323753D01*
X89421711Y-181452234D01*
X89264406Y-181552062D01*
X89090709Y-181619436D01*
X88907236Y-181651787D01*
X88720971Y-181647884D01*
X88539013Y-181607879D01*
X88368290Y-181533292D01*
X88215305Y-181426965D01*
X88085885Y-181292946D01*
X87984964Y-181136346D01*
X87916380Y-180963123D01*
X87882748Y-180779882D01*
X87885350Y-180593590D01*
X87924085Y-180411356D01*
X87997476Y-180240122D01*
X88102737Y-180086393D01*
X88235846Y-179956043D01*
X88391737Y-179854030D01*
X88564476Y-179784239D01*
X88747481Y-179749329D01*
X88933780Y-179750630D01*
X88933780Y-179750630D01*
G37*
G36*
X87625000Y-180475000D02*
X86575000Y-180475000D01*
X86575000Y-179625000D01*
X87625000Y-179625000D01*
X87625000Y-180475000D01*
X87625000Y-180475000D01*
G37*
G36*
X106375000Y-180475000D02*
X105325000Y-180475000D01*
X105325000Y-179625000D01*
X106375000Y-179625000D01*
X106375000Y-180475000D01*
X106375000Y-180475000D01*
G37*
G36*
X85725000Y-179825000D02*
X84675000Y-179825000D01*
X84675000Y-178975000D01*
X85725000Y-178975000D01*
X85725000Y-179825000D01*
X85725000Y-179825000D01*
G37*
G36*
X108275000Y-179825000D02*
X107225000Y-179825000D01*
X107225000Y-178975000D01*
X108275000Y-178975000D01*
X108275000Y-179825000D01*
X108275000Y-179825000D01*
G37*
G36*
X55737911Y-177653554D02*
X55898707Y-177686560D01*
X56050026Y-177750169D01*
X56186109Y-177841958D01*
X56301769Y-177958428D01*
X56392607Y-178095151D01*
X56455157Y-178246907D01*
X56486935Y-178407399D01*
X56486935Y-178407417D01*
X56487036Y-178407928D01*
X56484418Y-178595412D01*
X56484302Y-178595921D01*
X56484302Y-178595940D01*
X56448057Y-178755476D01*
X56381291Y-178905434D01*
X56286675Y-179039560D01*
X56167805Y-179152759D01*
X56029212Y-179240713D01*
X55876174Y-179300072D01*
X55714525Y-179328576D01*
X55550415Y-179325137D01*
X55390103Y-179289891D01*
X55239684Y-179224174D01*
X55104897Y-179130495D01*
X54990870Y-179012417D01*
X54901954Y-178874445D01*
X54841527Y-178721825D01*
X54811896Y-178560380D01*
X54814189Y-178396247D01*
X54848316Y-178235689D01*
X54912977Y-178084823D01*
X55005718Y-177949379D01*
X55122991Y-177834537D01*
X55260347Y-177744654D01*
X55412535Y-177683165D01*
X55573772Y-177652408D01*
X55737911Y-177653554D01*
X55737911Y-177653554D01*
G37*
G36*
X58237911Y-177653554D02*
X58398707Y-177686560D01*
X58550026Y-177750169D01*
X58686109Y-177841958D01*
X58801769Y-177958428D01*
X58892607Y-178095151D01*
X58955157Y-178246907D01*
X58986935Y-178407399D01*
X58986935Y-178407417D01*
X58987036Y-178407928D01*
X58984418Y-178595412D01*
X58984302Y-178595921D01*
X58984302Y-178595940D01*
X58948057Y-178755476D01*
X58881291Y-178905434D01*
X58786675Y-179039560D01*
X58667805Y-179152759D01*
X58529212Y-179240713D01*
X58376174Y-179300072D01*
X58214525Y-179328576D01*
X58050415Y-179325137D01*
X57890103Y-179289891D01*
X57739684Y-179224174D01*
X57604897Y-179130495D01*
X57490870Y-179012417D01*
X57401954Y-178874445D01*
X57341527Y-178721825D01*
X57311896Y-178560380D01*
X57314189Y-178396247D01*
X57348316Y-178235689D01*
X57412977Y-178084823D01*
X57505718Y-177949379D01*
X57622991Y-177834537D01*
X57760347Y-177744654D01*
X57912535Y-177683165D01*
X58073772Y-177652408D01*
X58237911Y-177653554D01*
X58237911Y-177653554D01*
G37*
G36*
X87625000Y-179175000D02*
X86575000Y-179175000D01*
X86575000Y-178325000D01*
X87625000Y-178325000D01*
X87625000Y-179175000D01*
X87625000Y-179175000D01*
G37*
G36*
X106375000Y-179175000D02*
X105325000Y-179175000D01*
X105325000Y-178325000D01*
X106375000Y-178325000D01*
X106375000Y-179175000D01*
X106375000Y-179175000D01*
G37*
G36*
X94013780Y-177210630D02*
X94196284Y-177248092D01*
X94368028Y-177320287D01*
X94522488Y-177424472D01*
X94653759Y-177556662D01*
X94756862Y-177711844D01*
X94827856Y-177884091D01*
X94863939Y-178066320D01*
X94863939Y-178066332D01*
X94864041Y-178066848D01*
X94861070Y-178279643D01*
X94860953Y-178280157D01*
X94860953Y-178280171D01*
X94819797Y-178461318D01*
X94744020Y-178631518D01*
X94636629Y-178783753D01*
X94501711Y-178912234D01*
X94344406Y-179012062D01*
X94170709Y-179079436D01*
X93987236Y-179111787D01*
X93800971Y-179107884D01*
X93619013Y-179067879D01*
X93448290Y-178993292D01*
X93295305Y-178886965D01*
X93165885Y-178752946D01*
X93064964Y-178596346D01*
X92996380Y-178423123D01*
X92962748Y-178239882D01*
X92965350Y-178053590D01*
X93004085Y-177871356D01*
X93077476Y-177700122D01*
X93182737Y-177546393D01*
X93315846Y-177416043D01*
X93471737Y-177314030D01*
X93644476Y-177244239D01*
X93827481Y-177209329D01*
X94013780Y-177210630D01*
X94013780Y-177210630D01*
G37*
G36*
X88933780Y-177210630D02*
X89116284Y-177248092D01*
X89288028Y-177320287D01*
X89442488Y-177424472D01*
X89573759Y-177556662D01*
X89676862Y-177711844D01*
X89747856Y-177884091D01*
X89783939Y-178066320D01*
X89783939Y-178066332D01*
X89784041Y-178066848D01*
X89781070Y-178279643D01*
X89780953Y-178280157D01*
X89780953Y-178280171D01*
X89739797Y-178461318D01*
X89664020Y-178631518D01*
X89556629Y-178783753D01*
X89421711Y-178912234D01*
X89264406Y-179012062D01*
X89090709Y-179079436D01*
X88907236Y-179111787D01*
X88720971Y-179107884D01*
X88539013Y-179067879D01*
X88368290Y-178993292D01*
X88215305Y-178886965D01*
X88085885Y-178752946D01*
X87984964Y-178596346D01*
X87916380Y-178423123D01*
X87882748Y-178239882D01*
X87885350Y-178053590D01*
X87924085Y-177871356D01*
X87997476Y-177700122D01*
X88102737Y-177546393D01*
X88235846Y-177416043D01*
X88391737Y-177314030D01*
X88564476Y-177244239D01*
X88747481Y-177209329D01*
X88933780Y-177210630D01*
X88933780Y-177210630D01*
G37*
G36*
X96553780Y-177210630D02*
X96736284Y-177248092D01*
X96908028Y-177320287D01*
X97062488Y-177424472D01*
X97193759Y-177556662D01*
X97296862Y-177711844D01*
X97367856Y-177884091D01*
X97403939Y-178066320D01*
X97403939Y-178066332D01*
X97404041Y-178066848D01*
X97401070Y-178279643D01*
X97400953Y-178280157D01*
X97400953Y-178280171D01*
X97359797Y-178461318D01*
X97284020Y-178631518D01*
X97176629Y-178783753D01*
X97041711Y-178912234D01*
X96884406Y-179012062D01*
X96710709Y-179079436D01*
X96527236Y-179111787D01*
X96340971Y-179107884D01*
X96159013Y-179067879D01*
X95988290Y-178993292D01*
X95835305Y-178886965D01*
X95705885Y-178752946D01*
X95604964Y-178596346D01*
X95536380Y-178423123D01*
X95502748Y-178239882D01*
X95505350Y-178053590D01*
X95544085Y-177871356D01*
X95617476Y-177700122D01*
X95722737Y-177546393D01*
X95855846Y-177416043D01*
X96011737Y-177314030D01*
X96184476Y-177244239D01*
X96367481Y-177209329D01*
X96553780Y-177210630D01*
X96553780Y-177210630D01*
G37*
G36*
X101633780Y-177210630D02*
X101816284Y-177248092D01*
X101988028Y-177320287D01*
X102142488Y-177424472D01*
X102273759Y-177556662D01*
X102376862Y-177711844D01*
X102447856Y-177884091D01*
X102483939Y-178066320D01*
X102483939Y-178066332D01*
X102484041Y-178066848D01*
X102481070Y-178279643D01*
X102480953Y-178280157D01*
X102480953Y-178280171D01*
X102439797Y-178461318D01*
X102364020Y-178631518D01*
X102256629Y-178783753D01*
X102121711Y-178912234D01*
X101964406Y-179012062D01*
X101790709Y-179079436D01*
X101607236Y-179111787D01*
X101420971Y-179107884D01*
X101239013Y-179067879D01*
X101068290Y-178993292D01*
X100915305Y-178886965D01*
X100785885Y-178752946D01*
X100684964Y-178596346D01*
X100616380Y-178423123D01*
X100582748Y-178239882D01*
X100585350Y-178053590D01*
X100624085Y-177871356D01*
X100697476Y-177700122D01*
X100802737Y-177546393D01*
X100935846Y-177416043D01*
X101091737Y-177314030D01*
X101264476Y-177244239D01*
X101447481Y-177209329D01*
X101633780Y-177210630D01*
X101633780Y-177210630D01*
G37*
G36*
X99093780Y-177210630D02*
X99276284Y-177248092D01*
X99448028Y-177320287D01*
X99602488Y-177424472D01*
X99733759Y-177556662D01*
X99836862Y-177711844D01*
X99907856Y-177884091D01*
X99943939Y-178066320D01*
X99943939Y-178066332D01*
X99944041Y-178066848D01*
X99941070Y-178279643D01*
X99940953Y-178280157D01*
X99940953Y-178280171D01*
X99899797Y-178461318D01*
X99824020Y-178631518D01*
X99716629Y-178783753D01*
X99581711Y-178912234D01*
X99424406Y-179012062D01*
X99250709Y-179079436D01*
X99067236Y-179111787D01*
X98880971Y-179107884D01*
X98699013Y-179067879D01*
X98528290Y-178993292D01*
X98375305Y-178886965D01*
X98245885Y-178752946D01*
X98144964Y-178596346D01*
X98076380Y-178423123D01*
X98042748Y-178239882D01*
X98045350Y-178053590D01*
X98084085Y-177871356D01*
X98157476Y-177700122D01*
X98262737Y-177546393D01*
X98395846Y-177416043D01*
X98551737Y-177314030D01*
X98724476Y-177244239D01*
X98907481Y-177209329D01*
X99093780Y-177210630D01*
X99093780Y-177210630D01*
G37*
G36*
X104173780Y-177210630D02*
X104356284Y-177248092D01*
X104528028Y-177320287D01*
X104682488Y-177424472D01*
X104813759Y-177556662D01*
X104916862Y-177711844D01*
X104987856Y-177884091D01*
X105023939Y-178066320D01*
X105023939Y-178066332D01*
X105024041Y-178066848D01*
X105021070Y-178279643D01*
X105020953Y-178280157D01*
X105020953Y-178280171D01*
X104979797Y-178461318D01*
X104904020Y-178631518D01*
X104796629Y-178783753D01*
X104661711Y-178912234D01*
X104504406Y-179012062D01*
X104330709Y-179079436D01*
X104147236Y-179111787D01*
X103960971Y-179107884D01*
X103779013Y-179067879D01*
X103608290Y-178993292D01*
X103455305Y-178886965D01*
X103325885Y-178752946D01*
X103224964Y-178596346D01*
X103156380Y-178423123D01*
X103122748Y-178239882D01*
X103125350Y-178053590D01*
X103164085Y-177871356D01*
X103237476Y-177700122D01*
X103342737Y-177546393D01*
X103475846Y-177416043D01*
X103631737Y-177314030D01*
X103804476Y-177244239D01*
X103987481Y-177209329D01*
X104173780Y-177210630D01*
X104173780Y-177210630D01*
G37*
G36*
X91473780Y-177210630D02*
X91656284Y-177248092D01*
X91828028Y-177320287D01*
X91982488Y-177424472D01*
X92113759Y-177556662D01*
X92216862Y-177711844D01*
X92287856Y-177884091D01*
X92323939Y-178066320D01*
X92323939Y-178066332D01*
X92324041Y-178066848D01*
X92321070Y-178279643D01*
X92320953Y-178280157D01*
X92320953Y-178280171D01*
X92279797Y-178461318D01*
X92204020Y-178631518D01*
X92096629Y-178783753D01*
X91961711Y-178912234D01*
X91804406Y-179012062D01*
X91630709Y-179079436D01*
X91447236Y-179111787D01*
X91260971Y-179107884D01*
X91079013Y-179067879D01*
X90908290Y-178993292D01*
X90755305Y-178886965D01*
X90625885Y-178752946D01*
X90524964Y-178596346D01*
X90456380Y-178423123D01*
X90422748Y-178239882D01*
X90425350Y-178053590D01*
X90464085Y-177871356D01*
X90537476Y-177700122D01*
X90642737Y-177546393D01*
X90775846Y-177416043D01*
X90931737Y-177314030D01*
X91104476Y-177244239D01*
X91287481Y-177209329D01*
X91473780Y-177210630D01*
X91473780Y-177210630D01*
G37*
G36*
X53600000Y-178825000D02*
X52400000Y-178825000D01*
X52400000Y-178075000D01*
X53600000Y-178075000D01*
X53600000Y-178825000D01*
X53600000Y-178825000D01*
G37*
G36*
X50900000Y-178825000D02*
X49700000Y-178825000D01*
X49700000Y-178075000D01*
X50900000Y-178075000D01*
X50900000Y-178825000D01*
X50900000Y-178825000D01*
G37*
G36*
X53600000Y-177875000D02*
X52400000Y-177875000D01*
X52400000Y-177125000D01*
X53600000Y-177125000D01*
X53600000Y-177875000D01*
X53600000Y-177875000D01*
G37*
G36*
X50900000Y-177875000D02*
X49700000Y-177875000D01*
X49700000Y-177125000D01*
X50900000Y-177125000D01*
X50900000Y-177875000D01*
X50900000Y-177875000D01*
G37*
G36*
X76525000Y-177775000D02*
X75075000Y-177775000D01*
X75075000Y-176625000D01*
X76525000Y-176625000D01*
X76525000Y-177775000D01*
X76525000Y-177775000D01*
G37*
G36*
X78525000Y-177775000D02*
X77075000Y-177775000D01*
X77075000Y-176625000D01*
X78525000Y-176625000D01*
X78525000Y-177775000D01*
X78525000Y-177775000D01*
G37*
G36*
X71675000Y-177775000D02*
X70225000Y-177775000D01*
X70225000Y-176625000D01*
X71675000Y-176625000D01*
X71675000Y-177775000D01*
X71675000Y-177775000D01*
G37*
G36*
X55737911Y-175653554D02*
X55898707Y-175686560D01*
X56050026Y-175750169D01*
X56186109Y-175841958D01*
X56301769Y-175958428D01*
X56392607Y-176095151D01*
X56455157Y-176246907D01*
X56486935Y-176407399D01*
X56486935Y-176407417D01*
X56487036Y-176407928D01*
X56484418Y-176595412D01*
X56484302Y-176595921D01*
X56484302Y-176595940D01*
X56448057Y-176755476D01*
X56381291Y-176905434D01*
X56286675Y-177039560D01*
X56167805Y-177152759D01*
X56029212Y-177240713D01*
X55876174Y-177300072D01*
X55714525Y-177328576D01*
X55550415Y-177325137D01*
X55390103Y-177289891D01*
X55239684Y-177224174D01*
X55104897Y-177130495D01*
X54990870Y-177012417D01*
X54901954Y-176874445D01*
X54841527Y-176721825D01*
X54811896Y-176560380D01*
X54814189Y-176396247D01*
X54848316Y-176235689D01*
X54912977Y-176084823D01*
X55005718Y-175949379D01*
X55122991Y-175834537D01*
X55260347Y-175744654D01*
X55412535Y-175683165D01*
X55573772Y-175652408D01*
X55737911Y-175653554D01*
X55737911Y-175653554D01*
G37*
G36*
X58237911Y-175653554D02*
X58398707Y-175686560D01*
X58550026Y-175750169D01*
X58686109Y-175841958D01*
X58801769Y-175958428D01*
X58892607Y-176095151D01*
X58955157Y-176246907D01*
X58986935Y-176407399D01*
X58986935Y-176407417D01*
X58987036Y-176407928D01*
X58984418Y-176595412D01*
X58984302Y-176595921D01*
X58984302Y-176595940D01*
X58948057Y-176755476D01*
X58881291Y-176905434D01*
X58786675Y-177039560D01*
X58667805Y-177152759D01*
X58529212Y-177240713D01*
X58376174Y-177300072D01*
X58214525Y-177328576D01*
X58050415Y-177325137D01*
X57890103Y-177289891D01*
X57739684Y-177224174D01*
X57604897Y-177130495D01*
X57490870Y-177012417D01*
X57401954Y-176874445D01*
X57341527Y-176721825D01*
X57311896Y-176560380D01*
X57314189Y-176396247D01*
X57348316Y-176235689D01*
X57412977Y-176084823D01*
X57505718Y-175949379D01*
X57622991Y-175834537D01*
X57760347Y-175744654D01*
X57912535Y-175683165D01*
X58073772Y-175652408D01*
X58237911Y-175653554D01*
X58237911Y-175653554D01*
G37*
G36*
X50900000Y-176925000D02*
X49700000Y-176925000D01*
X49700000Y-176175000D01*
X50900000Y-176175000D01*
X50900000Y-176925000D01*
X50900000Y-176925000D01*
G37*
G36*
X53600000Y-176925000D02*
X52400000Y-176925000D01*
X52400000Y-176175000D01*
X53600000Y-176175000D01*
X53600000Y-176925000D01*
X53600000Y-176925000D01*
G37*
G36*
X96795000Y-176875000D02*
X96105000Y-176875000D01*
X96105000Y-175665000D01*
X96795000Y-175665000D01*
X96795000Y-176875000D01*
X96795000Y-176875000D01*
G37*
G36*
X100075000Y-176875000D02*
X99225000Y-176875000D01*
X99225000Y-175825000D01*
X100075000Y-175825000D01*
X100075000Y-176875000D01*
X100075000Y-176875000D01*
G37*
G36*
X93725000Y-176875000D02*
X92875000Y-176875000D01*
X92875000Y-175825000D01*
X93725000Y-175825000D01*
X93725000Y-176875000D01*
X93725000Y-176875000D01*
G37*
G36*
X101375000Y-176875000D02*
X100525000Y-176875000D01*
X100525000Y-175825000D01*
X101375000Y-175825000D01*
X101375000Y-176875000D01*
X101375000Y-176875000D01*
G37*
G36*
X92425000Y-176875000D02*
X91575000Y-176875000D01*
X91575000Y-175825000D01*
X92425000Y-175825000D01*
X92425000Y-176875000D01*
X92425000Y-176875000D01*
G37*
G36*
X76525000Y-175775000D02*
X75075000Y-175775000D01*
X75075000Y-174625000D01*
X76525000Y-174625000D01*
X76525000Y-175775000D01*
X76525000Y-175775000D01*
G37*
G36*
X78525000Y-175775000D02*
X77075000Y-175775000D01*
X77075000Y-174625000D01*
X78525000Y-174625000D01*
X78525000Y-175775000D01*
X78525000Y-175775000D01*
G37*
G36*
X71675000Y-175775000D02*
X70225000Y-175775000D01*
X70225000Y-174625000D01*
X71675000Y-174625000D01*
X71675000Y-175775000D01*
X71675000Y-175775000D01*
G37*
G36*
X56970897Y-173815446D02*
X57100571Y-173842064D01*
X57222603Y-173893362D01*
X57332346Y-173967384D01*
X57425621Y-174061313D01*
X57498875Y-174171569D01*
X57549320Y-174293959D01*
X57574927Y-174423285D01*
X57574927Y-174423297D01*
X57575029Y-174423813D01*
X57572918Y-174575009D01*
X57572802Y-174575518D01*
X57572802Y-174575538D01*
X57543594Y-174704095D01*
X57489752Y-174825027D01*
X57413448Y-174933194D01*
X57317585Y-175024483D01*
X57205816Y-175095414D01*
X57082398Y-175143285D01*
X56952036Y-175166271D01*
X56819690Y-175163498D01*
X56690406Y-175135074D01*
X56569099Y-175082076D01*
X56460400Y-175006529D01*
X56368445Y-174911306D01*
X56296735Y-174800035D01*
X56248005Y-174676956D01*
X56224109Y-174546759D01*
X56225958Y-174414392D01*
X56253480Y-174284910D01*
X56305626Y-174163245D01*
X56380418Y-174054014D01*
X56474992Y-173961400D01*
X56585764Y-173888914D01*
X56708496Y-173839326D01*
X56838525Y-173814522D01*
X56970897Y-173815446D01*
X56970897Y-173815446D01*
G37*
G36*
X54470897Y-173815446D02*
X54600571Y-173842064D01*
X54722603Y-173893362D01*
X54832346Y-173967384D01*
X54925621Y-174061313D01*
X54998875Y-174171569D01*
X55049320Y-174293959D01*
X55074927Y-174423285D01*
X55074927Y-174423297D01*
X55075029Y-174423813D01*
X55072918Y-174575009D01*
X55072802Y-174575518D01*
X55072802Y-174575538D01*
X55043594Y-174704095D01*
X54989752Y-174825027D01*
X54913448Y-174933194D01*
X54817585Y-175024483D01*
X54705816Y-175095414D01*
X54582398Y-175143285D01*
X54452036Y-175166271D01*
X54319690Y-175163498D01*
X54190406Y-175135074D01*
X54069099Y-175082076D01*
X53960400Y-175006529D01*
X53868445Y-174911306D01*
X53796735Y-174800035D01*
X53748005Y-174676956D01*
X53724109Y-174546759D01*
X53725958Y-174414392D01*
X53753480Y-174284910D01*
X53805626Y-174163245D01*
X53880418Y-174054014D01*
X53974992Y-173961400D01*
X54085764Y-173888914D01*
X54208496Y-173839326D01*
X54338525Y-173814522D01*
X54470897Y-173815446D01*
X54470897Y-173815446D01*
G37*
G36*
X59470897Y-173815446D02*
X59600571Y-173842064D01*
X59722603Y-173893362D01*
X59832346Y-173967384D01*
X59925621Y-174061313D01*
X59998875Y-174171569D01*
X60049320Y-174293959D01*
X60074927Y-174423285D01*
X60074927Y-174423297D01*
X60075029Y-174423813D01*
X60072918Y-174575009D01*
X60072802Y-174575518D01*
X60072802Y-174575538D01*
X60043594Y-174704095D01*
X59989752Y-174825027D01*
X59913448Y-174933194D01*
X59817585Y-175024483D01*
X59705816Y-175095414D01*
X59582398Y-175143285D01*
X59452036Y-175166271D01*
X59319690Y-175163498D01*
X59190406Y-175135074D01*
X59069099Y-175082076D01*
X58960400Y-175006529D01*
X58868445Y-174911306D01*
X58796735Y-174800035D01*
X58748005Y-174676956D01*
X58724109Y-174546759D01*
X58725958Y-174414392D01*
X58753480Y-174284910D01*
X58805626Y-174163245D01*
X58880418Y-174054014D01*
X58974992Y-173961400D01*
X59085764Y-173888914D01*
X59208496Y-173839326D01*
X59338525Y-173814522D01*
X59470897Y-173815446D01*
X59470897Y-173815446D01*
G37*
G36*
X61220897Y-173815446D02*
X61350571Y-173842064D01*
X61472603Y-173893362D01*
X61582346Y-173967384D01*
X61675621Y-174061313D01*
X61748875Y-174171569D01*
X61799320Y-174293959D01*
X61824927Y-174423285D01*
X61824927Y-174423297D01*
X61825029Y-174423813D01*
X61822918Y-174575009D01*
X61822802Y-174575518D01*
X61822802Y-174575538D01*
X61793594Y-174704095D01*
X61739752Y-174825027D01*
X61663448Y-174933194D01*
X61567585Y-175024483D01*
X61455816Y-175095414D01*
X61332398Y-175143285D01*
X61202036Y-175166271D01*
X61069690Y-175163498D01*
X60940406Y-175135074D01*
X60819099Y-175082076D01*
X60710400Y-175006529D01*
X60618445Y-174911306D01*
X60546735Y-174800035D01*
X60498005Y-174676956D01*
X60474109Y-174546759D01*
X60475958Y-174414392D01*
X60503480Y-174284910D01*
X60555626Y-174163245D01*
X60630418Y-174054014D01*
X60724992Y-173961400D01*
X60835764Y-173888914D01*
X60958496Y-173839326D01*
X61088525Y-173814522D01*
X61220897Y-173815446D01*
X61220897Y-173815446D01*
G37*
G36*
X52720897Y-173815446D02*
X52850571Y-173842064D01*
X52972603Y-173893362D01*
X53082346Y-173967384D01*
X53175621Y-174061313D01*
X53248875Y-174171569D01*
X53299320Y-174293959D01*
X53324927Y-174423285D01*
X53324927Y-174423297D01*
X53325029Y-174423813D01*
X53322918Y-174575009D01*
X53322802Y-174575518D01*
X53322802Y-174575538D01*
X53293594Y-174704095D01*
X53239752Y-174825027D01*
X53163448Y-174933194D01*
X53067585Y-175024483D01*
X52955816Y-175095414D01*
X52832398Y-175143285D01*
X52702036Y-175166271D01*
X52569690Y-175163498D01*
X52440406Y-175135074D01*
X52319099Y-175082076D01*
X52210400Y-175006529D01*
X52118445Y-174911306D01*
X52046735Y-174800035D01*
X51998005Y-174676956D01*
X51974109Y-174546759D01*
X51975958Y-174414392D01*
X52003480Y-174284910D01*
X52055626Y-174163245D01*
X52130418Y-174054014D01*
X52224992Y-173961400D01*
X52335764Y-173888914D01*
X52458496Y-173839326D01*
X52588525Y-173814522D01*
X52720897Y-173815446D01*
X52720897Y-173815446D01*
G37*
G36*
X93075000Y-174975000D02*
X92225000Y-174975000D01*
X92225000Y-173925000D01*
X93075000Y-173925000D01*
X93075000Y-174975000D01*
X93075000Y-174975000D01*
G37*
G36*
X100725000Y-174975000D02*
X99875000Y-174975000D01*
X99875000Y-173925000D01*
X100725000Y-173925000D01*
X100725000Y-174975000D01*
X100725000Y-174975000D01*
G37*
G36*
X96795000Y-174735000D02*
X96105000Y-174735000D01*
X96105000Y-173525000D01*
X96795000Y-173525000D01*
X96795000Y-174735000D01*
X96795000Y-174735000D01*
G37*
G36*
X69942500Y-173619500D02*
X69157500Y-173619500D01*
X69157500Y-172580500D01*
X69942500Y-172580500D01*
X69942500Y-173619500D01*
X69942500Y-173619500D01*
G37*
G36*
X68442500Y-173619500D02*
X67657500Y-173619500D01*
X67657500Y-172580500D01*
X68442500Y-172580500D01*
X68442500Y-173619500D01*
X68442500Y-173619500D01*
G37*
G36*
X58075000Y-172787500D02*
X55725000Y-172787500D01*
X55725000Y-171087500D01*
X58075000Y-171087500D01*
X58075000Y-172787500D01*
X58075000Y-172787500D01*
G37*
G36*
X68442500Y-172019500D02*
X67657500Y-172019500D01*
X67657500Y-170980500D01*
X68442500Y-170980500D01*
X68442500Y-172019500D01*
X68442500Y-172019500D01*
G37*
G36*
X69942500Y-172019500D02*
X69157500Y-172019500D01*
X69157500Y-170980500D01*
X69942500Y-170980500D01*
X69942500Y-172019500D01*
X69942500Y-172019500D01*
G37*
G36*
X74119500Y-171580500D02*
X73080500Y-171580500D01*
X73080500Y-170795500D01*
X74119500Y-170795500D01*
X74119500Y-171580500D01*
X74119500Y-171580500D01*
G37*
G36*
X75719500Y-171580500D02*
X74680500Y-171580500D01*
X74680500Y-170795500D01*
X75719500Y-170795500D01*
X75719500Y-171580500D01*
X75719500Y-171580500D01*
G37*
G36*
X72519500Y-171580500D02*
X71480500Y-171580500D01*
X71480500Y-170795500D01*
X72519500Y-170795500D01*
X72519500Y-171580500D01*
X72519500Y-171580500D01*
G37*
G36*
X64519500Y-170792500D02*
X63480500Y-170792500D01*
X63480500Y-170007500D01*
X64519500Y-170007500D01*
X64519500Y-170792500D01*
X64519500Y-170792500D01*
G37*
G36*
X66319500Y-170792500D02*
X65280500Y-170792500D01*
X65280500Y-170007500D01*
X66319500Y-170007500D01*
X66319500Y-170792500D01*
X66319500Y-170792500D01*
G37*
G36*
X78919500Y-170692500D02*
X77880500Y-170692500D01*
X77880500Y-169907500D01*
X78919500Y-169907500D01*
X78919500Y-170692500D01*
X78919500Y-170692500D01*
G37*
G36*
X77319500Y-170692500D02*
X76280500Y-170692500D01*
X76280500Y-169907500D01*
X77319500Y-169907500D01*
X77319500Y-170692500D01*
X77319500Y-170692500D01*
G37*
G36*
X69942500Y-170369500D02*
X69157500Y-170369500D01*
X69157500Y-169330500D01*
X69942500Y-169330500D01*
X69942500Y-170369500D01*
X69942500Y-170369500D01*
G37*
G36*
X68442500Y-170369500D02*
X67657500Y-170369500D01*
X67657500Y-169330500D01*
X68442500Y-169330500D01*
X68442500Y-170369500D01*
X68442500Y-170369500D01*
G37*
G36*
X72519500Y-170080500D02*
X71480500Y-170080500D01*
X71480500Y-169295500D01*
X72519500Y-169295500D01*
X72519500Y-170080500D01*
X72519500Y-170080500D01*
G37*
G36*
X74119500Y-170080500D02*
X73080500Y-170080500D01*
X73080500Y-169295500D01*
X74119500Y-169295500D01*
X74119500Y-170080500D01*
X74119500Y-170080500D01*
G37*
G36*
X75719500Y-170080500D02*
X74680500Y-170080500D01*
X74680500Y-169295500D01*
X75719500Y-169295500D01*
X75719500Y-170080500D01*
X75719500Y-170080500D01*
G37*
G36*
X66319500Y-169292500D02*
X65280500Y-169292500D01*
X65280500Y-168507500D01*
X66319500Y-168507500D01*
X66319500Y-169292500D01*
X66319500Y-169292500D01*
G37*
G36*
X64519500Y-169292500D02*
X63480500Y-169292500D01*
X63480500Y-168507500D01*
X64519500Y-168507500D01*
X64519500Y-169292500D01*
X64519500Y-169292500D01*
G37*
G36*
X78919500Y-169192500D02*
X77880500Y-169192500D01*
X77880500Y-168407500D01*
X78919500Y-168407500D01*
X78919500Y-169192500D01*
X78919500Y-169192500D01*
G37*
G36*
X77319500Y-169192500D02*
X76280500Y-169192500D01*
X76280500Y-168407500D01*
X77319500Y-168407500D01*
X77319500Y-169192500D01*
X77319500Y-169192500D01*
G37*
G36*
X69942500Y-168669500D02*
X69157500Y-168669500D01*
X69157500Y-167630500D01*
X69942500Y-167630500D01*
X69942500Y-168669500D01*
X69942500Y-168669500D01*
G37*
G36*
X68442500Y-168669500D02*
X67657500Y-168669500D01*
X67657500Y-167630500D01*
X68442500Y-167630500D01*
X68442500Y-168669500D01*
X68442500Y-168669500D01*
G37*
G36*
X75142500Y-167119500D02*
X74357500Y-167119500D01*
X74357500Y-166080500D01*
X75142500Y-166080500D01*
X75142500Y-167119500D01*
X75142500Y-167119500D01*
G37*
G36*
X73642500Y-167119500D02*
X72857500Y-167119500D01*
X72857500Y-166080500D01*
X73642500Y-166080500D01*
X73642500Y-167119500D01*
X73642500Y-167119500D01*
G37*
G36*
X79419500Y-167092500D02*
X78380500Y-167092500D01*
X78380500Y-166307500D01*
X79419500Y-166307500D01*
X79419500Y-167092500D01*
X79419500Y-167092500D01*
G37*
G36*
X77719500Y-167092500D02*
X76680500Y-167092500D01*
X76680500Y-166307500D01*
X77719500Y-166307500D01*
X77719500Y-167092500D01*
X77719500Y-167092500D01*
G37*
G36*
X69942500Y-167069500D02*
X69157500Y-167069500D01*
X69157500Y-166030500D01*
X69942500Y-166030500D01*
X69942500Y-167069500D01*
X69942500Y-167069500D01*
G37*
G36*
X68442500Y-167069500D02*
X67657500Y-167069500D01*
X67657500Y-166030500D01*
X68442500Y-166030500D01*
X68442500Y-167069500D01*
X68442500Y-167069500D01*
G37*
G36*
X64719500Y-166692500D02*
X63680500Y-166692500D01*
X63680500Y-165907500D01*
X64719500Y-165907500D01*
X64719500Y-166692500D01*
X64719500Y-166692500D01*
G37*
G36*
X66519500Y-166692500D02*
X65480500Y-166692500D01*
X65480500Y-165907500D01*
X66519500Y-165907500D01*
X66519500Y-166692500D01*
X66519500Y-166692500D01*
G37*
G36*
X77719500Y-165592500D02*
X76680500Y-165592500D01*
X76680500Y-164807500D01*
X77719500Y-164807500D01*
X77719500Y-165592500D01*
X77719500Y-165592500D01*
G37*
G36*
X79419500Y-165592500D02*
X78380500Y-165592500D01*
X78380500Y-164807500D01*
X79419500Y-164807500D01*
X79419500Y-165592500D01*
X79419500Y-165592500D01*
G37*
G36*
X68419500Y-165192500D02*
X67380500Y-165192500D01*
X67380500Y-164407500D01*
X68419500Y-164407500D01*
X68419500Y-165192500D01*
X68419500Y-165192500D01*
G37*
G36*
X66519500Y-165192500D02*
X65480500Y-165192500D01*
X65480500Y-164407500D01*
X66519500Y-164407500D01*
X66519500Y-165192500D01*
X66519500Y-165192500D01*
G37*
G36*
X64719500Y-165192500D02*
X63680500Y-165192500D01*
X63680500Y-164407500D01*
X64719500Y-164407500D01*
X64719500Y-165192500D01*
X64719500Y-165192500D01*
G37*
G36*
X68419500Y-163692500D02*
X67380500Y-163692500D01*
X67380500Y-162907500D01*
X68419500Y-162907500D01*
X68419500Y-163692500D01*
X68419500Y-163692500D01*
G37*
G36*
X77519500Y-163292500D02*
X76480500Y-163292500D01*
X76480500Y-162507500D01*
X77519500Y-162507500D01*
X77519500Y-163292500D01*
X77519500Y-163292500D01*
G37*
G36*
X63325000Y-162875000D02*
X61875000Y-162875000D01*
X61875000Y-161725000D01*
X63325000Y-161725000D01*
X63325000Y-162875000D01*
X63325000Y-162875000D01*
G37*
G36*
X41812406Y-160705646D02*
X41999712Y-160744095D01*
X42175979Y-160818191D01*
X42334499Y-160925114D01*
X42469228Y-161060786D01*
X42575043Y-161220051D01*
X42647905Y-161396828D01*
X42684940Y-161583869D01*
X42684940Y-161583880D01*
X42685042Y-161584396D01*
X42681993Y-161802791D01*
X42681876Y-161803305D01*
X42681876Y-161803320D01*
X42639633Y-161989248D01*
X42561862Y-162163926D01*
X42451645Y-162320168D01*
X42313177Y-162452030D01*
X42151734Y-162554485D01*
X41973464Y-162623631D01*
X41785163Y-162656834D01*
X41593997Y-162652829D01*
X41407253Y-162611771D01*
X41232034Y-162535219D01*
X41075024Y-162426095D01*
X40942198Y-162288550D01*
X40838621Y-162127829D01*
X40768232Y-161950047D01*
X40733716Y-161761984D01*
X40736386Y-161570790D01*
X40776140Y-161383760D01*
X40851464Y-161208017D01*
X40959491Y-161050247D01*
X41096102Y-160916468D01*
X41256102Y-160811767D01*
X41433384Y-160740140D01*
X41621205Y-160704311D01*
X41812406Y-160705646D01*
X41812406Y-160705646D01*
G37*
G36*
X36732406Y-160705646D02*
X36919712Y-160744095D01*
X37095979Y-160818191D01*
X37254499Y-160925114D01*
X37389228Y-161060786D01*
X37495043Y-161220051D01*
X37567905Y-161396828D01*
X37604940Y-161583869D01*
X37604940Y-161583880D01*
X37605042Y-161584396D01*
X37601993Y-161802791D01*
X37601876Y-161803305D01*
X37601876Y-161803320D01*
X37559633Y-161989248D01*
X37481862Y-162163926D01*
X37371645Y-162320168D01*
X37233177Y-162452030D01*
X37071734Y-162554485D01*
X36893464Y-162623631D01*
X36705163Y-162656834D01*
X36513997Y-162652829D01*
X36327253Y-162611771D01*
X36152034Y-162535219D01*
X35995024Y-162426095D01*
X35862198Y-162288550D01*
X35758621Y-162127829D01*
X35688232Y-161950047D01*
X35653716Y-161761984D01*
X35656386Y-161570790D01*
X35696140Y-161383760D01*
X35771464Y-161208017D01*
X35879491Y-161050247D01*
X36016102Y-160916468D01*
X36176102Y-160811767D01*
X36353384Y-160740140D01*
X36541205Y-160704311D01*
X36732406Y-160705646D01*
X36732406Y-160705646D01*
G37*
G36*
X66519500Y-162592500D02*
X65480500Y-162592500D01*
X65480500Y-161807500D01*
X66519500Y-161807500D01*
X66519500Y-162592500D01*
X66519500Y-162592500D01*
G37*
G36*
X64919500Y-162592500D02*
X63880500Y-162592500D01*
X63880500Y-161807500D01*
X64919500Y-161807500D01*
X64919500Y-162592500D01*
X64919500Y-162592500D01*
G37*
G36*
X74642500Y-162119500D02*
X73857500Y-162119500D01*
X73857500Y-161080500D01*
X74642500Y-161080500D01*
X74642500Y-162119500D01*
X74642500Y-162119500D01*
G37*
G36*
X73142500Y-162119500D02*
X72357500Y-162119500D01*
X72357500Y-161080500D01*
X73142500Y-161080500D01*
X73142500Y-162119500D01*
X73142500Y-162119500D01*
G37*
G36*
X77519500Y-161792500D02*
X76480500Y-161792500D01*
X76480500Y-161007500D01*
X77519500Y-161007500D01*
X77519500Y-161792500D01*
X77519500Y-161792500D01*
G37*
G36*
X82375000Y-161775000D02*
X80925000Y-161775000D01*
X80925000Y-160625000D01*
X82375000Y-160625000D01*
X82375000Y-161775000D01*
X82375000Y-161775000D01*
G37*
G36*
X80219500Y-161342500D02*
X79180500Y-161342500D01*
X79180500Y-160557500D01*
X80219500Y-160557500D01*
X80219500Y-161342500D01*
X80219500Y-161342500D01*
G37*
G36*
X66519500Y-161092500D02*
X65480500Y-161092500D01*
X65480500Y-160307500D01*
X66519500Y-160307500D01*
X66519500Y-161092500D01*
X66519500Y-161092500D01*
G37*
G36*
X64919500Y-161092500D02*
X63880500Y-161092500D01*
X63880500Y-160307500D01*
X64919500Y-160307500D01*
X64919500Y-161092500D01*
X64919500Y-161092500D01*
G37*
G36*
X63325000Y-160875000D02*
X61875000Y-160875000D01*
X61875000Y-159725000D01*
X63325000Y-159725000D01*
X63325000Y-160875000D01*
X63325000Y-160875000D01*
G37*
G36*
X74642500Y-160519500D02*
X73857500Y-160519500D01*
X73857500Y-159480500D01*
X74642500Y-159480500D01*
X74642500Y-160519500D01*
X74642500Y-160519500D01*
G37*
G36*
X73142500Y-160519500D02*
X72357500Y-160519500D01*
X72357500Y-159480500D01*
X73142500Y-159480500D01*
X73142500Y-160519500D01*
X73142500Y-160519500D01*
G37*
G36*
X68042500Y-160419500D02*
X67257500Y-160419500D01*
X67257500Y-159380500D01*
X68042500Y-159380500D01*
X68042500Y-160419500D01*
X68042500Y-160419500D01*
G37*
G36*
X69542500Y-160419500D02*
X68757500Y-160419500D01*
X68757500Y-159380500D01*
X69542500Y-159380500D01*
X69542500Y-160419500D01*
X69542500Y-160419500D01*
G37*
G36*
X80219500Y-159842500D02*
X79180500Y-159842500D01*
X79180500Y-159057500D01*
X80219500Y-159057500D01*
X80219500Y-159842500D01*
X80219500Y-159842500D01*
G37*
G36*
X82375000Y-159775000D02*
X80925000Y-159775000D01*
X80925000Y-158625000D01*
X82375000Y-158625000D01*
X82375000Y-159775000D01*
X82375000Y-159775000D01*
G37*
G36*
X69975000Y-158625000D02*
X68825000Y-158625000D01*
X68825000Y-157175000D01*
X69975000Y-157175000D01*
X69975000Y-158625000D01*
X69975000Y-158625000D01*
G37*
G36*
X67975000Y-158625000D02*
X66825000Y-158625000D01*
X66825000Y-157175000D01*
X67975000Y-157175000D01*
X67975000Y-158625000D01*
X67975000Y-158625000D01*
G37*
G36*
X33142500Y-157819500D02*
X32357500Y-157819500D01*
X32357500Y-156780500D01*
X33142500Y-156780500D01*
X33142500Y-157819500D01*
X33142500Y-157819500D01*
G37*
G36*
X39742500Y-157819500D02*
X38957500Y-157819500D01*
X38957500Y-156780500D01*
X39742500Y-156780500D01*
X39742500Y-157819500D01*
X39742500Y-157819500D01*
G37*
G36*
X37942500Y-157819500D02*
X37157500Y-157819500D01*
X37157500Y-156780500D01*
X37942500Y-156780500D01*
X37942500Y-157819500D01*
X37942500Y-157819500D01*
G37*
G36*
X36442500Y-157819500D02*
X35657500Y-157819500D01*
X35657500Y-156780500D01*
X36442500Y-156780500D01*
X36442500Y-157819500D01*
X36442500Y-157819500D01*
G37*
G36*
X29892500Y-157819500D02*
X29107500Y-157819500D01*
X29107500Y-156780500D01*
X29892500Y-156780500D01*
X29892500Y-157819500D01*
X29892500Y-157819500D01*
G37*
G36*
X41242500Y-157819500D02*
X40457500Y-157819500D01*
X40457500Y-156780500D01*
X41242500Y-156780500D01*
X41242500Y-157819500D01*
X41242500Y-157819500D01*
G37*
G36*
X28392500Y-157819500D02*
X27607500Y-157819500D01*
X27607500Y-156780500D01*
X28392500Y-156780500D01*
X28392500Y-157819500D01*
X28392500Y-157819500D01*
G37*
G36*
X31642500Y-157819500D02*
X30857500Y-157819500D01*
X30857500Y-156780500D01*
X31642500Y-156780500D01*
X31642500Y-157819500D01*
X31642500Y-157819500D01*
G37*
G36*
X68925000Y-154475000D02*
X67475000Y-154475000D01*
X67475000Y-153325000D01*
X68925000Y-153325000D01*
X68925000Y-154475000D01*
X68925000Y-154475000D01*
G37*
G36*
X64025000Y-154375000D02*
X62575000Y-154375000D01*
X62575000Y-153225000D01*
X64025000Y-153225000D01*
X64025000Y-154375000D01*
X64025000Y-154375000D01*
G37*
G36*
X81325000Y-154275000D02*
X79875000Y-154275000D01*
X79875000Y-153125000D01*
X81325000Y-153125000D01*
X81325000Y-154275000D01*
X81325000Y-154275000D01*
G37*
G36*
X79325000Y-154275000D02*
X77875000Y-154275000D01*
X77875000Y-153125000D01*
X79325000Y-153125000D01*
X79325000Y-154275000D01*
X79325000Y-154275000D01*
G37*
G36*
X65419500Y-153942500D02*
X64380500Y-153942500D01*
X64380500Y-153157500D01*
X65419500Y-153157500D01*
X65419500Y-153942500D01*
X65419500Y-153942500D01*
G37*
G36*
X70819500Y-153942500D02*
X69780500Y-153942500D01*
X69780500Y-153157500D01*
X70819500Y-153157500D01*
X70819500Y-153942500D01*
X70819500Y-153942500D01*
G37*
G36*
X75319500Y-153842500D02*
X74280500Y-153842500D01*
X74280500Y-153057500D01*
X75319500Y-153057500D01*
X75319500Y-153842500D01*
X75319500Y-153842500D01*
G37*
G36*
X77119500Y-153842500D02*
X76080500Y-153842500D01*
X76080500Y-153057500D01*
X77119500Y-153057500D01*
X77119500Y-153842500D01*
X77119500Y-153842500D01*
G37*
G36*
X30492500Y-153219500D02*
X29707500Y-153219500D01*
X29707500Y-152180500D01*
X30492500Y-152180500D01*
X30492500Y-153219500D01*
X30492500Y-153219500D01*
G37*
G36*
X28992500Y-153219500D02*
X28207500Y-153219500D01*
X28207500Y-152180500D01*
X28992500Y-152180500D01*
X28992500Y-153219500D01*
X28992500Y-153219500D01*
G37*
G36*
X68925000Y-152475000D02*
X67475000Y-152475000D01*
X67475000Y-151325000D01*
X68925000Y-151325000D01*
X68925000Y-152475000D01*
X68925000Y-152475000D01*
G37*
G36*
X70819500Y-152442500D02*
X69780500Y-152442500D01*
X69780500Y-151657500D01*
X70819500Y-151657500D01*
X70819500Y-152442500D01*
X70819500Y-152442500D01*
G37*
G36*
X65419500Y-152442500D02*
X64380500Y-152442500D01*
X64380500Y-151657500D01*
X65419500Y-151657500D01*
X65419500Y-152442500D01*
X65419500Y-152442500D01*
G37*
G36*
X64025000Y-152375000D02*
X62575000Y-152375000D01*
X62575000Y-151225000D01*
X64025000Y-151225000D01*
X64025000Y-152375000D01*
X64025000Y-152375000D01*
G37*
G36*
X75319500Y-152342500D02*
X74280500Y-152342500D01*
X74280500Y-151557500D01*
X75319500Y-151557500D01*
X75319500Y-152342500D01*
X75319500Y-152342500D01*
G37*
G36*
X77119500Y-152342500D02*
X76080500Y-152342500D01*
X76080500Y-151557500D01*
X77119500Y-151557500D01*
X77119500Y-152342500D01*
X77119500Y-152342500D01*
G37*
G36*
X81325000Y-152275000D02*
X79875000Y-152275000D01*
X79875000Y-151125000D01*
X81325000Y-151125000D01*
X81325000Y-152275000D01*
X81325000Y-152275000D01*
G37*
G36*
X79325000Y-152275000D02*
X77875000Y-152275000D01*
X77875000Y-151125000D01*
X79325000Y-151125000D01*
X79325000Y-152275000D01*
X79325000Y-152275000D01*
G37*
G36*
X54842500Y-152119500D02*
X54057500Y-152119500D01*
X54057500Y-151080500D01*
X54842500Y-151080500D01*
X54842500Y-152119500D01*
X54842500Y-152119500D01*
G37*
G36*
X53342500Y-152119500D02*
X52557500Y-152119500D01*
X52557500Y-151080500D01*
X53342500Y-151080500D01*
X53342500Y-152119500D01*
X53342500Y-152119500D01*
G37*
G36*
X57442500Y-150819500D02*
X56657500Y-150819500D01*
X56657500Y-149780500D01*
X57442500Y-149780500D01*
X57442500Y-150819500D01*
X57442500Y-150819500D01*
G37*
G36*
X58942500Y-150819500D02*
X58157500Y-150819500D01*
X58157500Y-149780500D01*
X58942500Y-149780500D01*
X58942500Y-150819500D01*
X58942500Y-150819500D01*
G37*
G36*
X24692500Y-150719500D02*
X23907500Y-150719500D01*
X23907500Y-149680500D01*
X24692500Y-149680500D01*
X24692500Y-150719500D01*
X24692500Y-150719500D01*
G37*
G36*
X26192500Y-150719500D02*
X25407500Y-150719500D01*
X25407500Y-149680500D01*
X26192500Y-149680500D01*
X26192500Y-150719500D01*
X26192500Y-150719500D01*
G37*
G36*
X79475000Y-149475000D02*
X78025000Y-149475000D01*
X78025000Y-148325000D01*
X79475000Y-148325000D01*
X79475000Y-149475000D01*
X79475000Y-149475000D01*
G37*
G36*
X77325000Y-149475000D02*
X75875000Y-149475000D01*
X75875000Y-148325000D01*
X77325000Y-148325000D01*
X77325000Y-149475000D01*
X77325000Y-149475000D01*
G37*
G36*
X75319500Y-149042500D02*
X74280500Y-149042500D01*
X74280500Y-148257500D01*
X75319500Y-148257500D01*
X75319500Y-149042500D01*
X75319500Y-149042500D01*
G37*
G36*
X35369500Y-148642500D02*
X34330500Y-148642500D01*
X34330500Y-147857500D01*
X35369500Y-147857500D01*
X35369500Y-148642500D01*
X35369500Y-148642500D01*
G37*
G36*
X37042500Y-148619500D02*
X36257500Y-148619500D01*
X36257500Y-147580500D01*
X37042500Y-147580500D01*
X37042500Y-148619500D01*
X37042500Y-148619500D01*
G37*
G36*
X29992500Y-148619500D02*
X29207500Y-148619500D01*
X29207500Y-147580500D01*
X29992500Y-147580500D01*
X29992500Y-148619500D01*
X29992500Y-148619500D01*
G37*
G36*
X28492500Y-148619500D02*
X27707500Y-148619500D01*
X27707500Y-147580500D01*
X28492500Y-147580500D01*
X28492500Y-148619500D01*
X28492500Y-148619500D01*
G37*
G36*
X31692499Y-148619500D02*
X30907499Y-148619500D01*
X30907499Y-147580500D01*
X31692499Y-147580500D01*
X31692499Y-148619500D01*
X31692499Y-148619500D01*
G37*
G36*
X40642500Y-148619500D02*
X39857500Y-148619500D01*
X39857500Y-147580500D01*
X40642500Y-147580500D01*
X40642500Y-148619500D01*
X40642500Y-148619500D01*
G37*
G36*
X33192499Y-148619500D02*
X32407499Y-148619500D01*
X32407499Y-147580500D01*
X33192499Y-147580500D01*
X33192499Y-148619500D01*
X33192499Y-148619500D01*
G37*
G36*
X42142500Y-148619500D02*
X41357500Y-148619500D01*
X41357500Y-147580500D01*
X42142500Y-147580500D01*
X42142500Y-148619500D01*
X42142500Y-148619500D01*
G37*
G36*
X38542500Y-148619500D02*
X37757500Y-148619500D01*
X37757500Y-147580500D01*
X38542500Y-147580500D01*
X38542500Y-148619500D01*
X38542500Y-148619500D01*
G37*
G36*
X64969500Y-148542500D02*
X63930500Y-148542500D01*
X63930500Y-147757500D01*
X64969500Y-147757500D01*
X64969500Y-148542500D01*
X64969500Y-148542500D01*
G37*
G36*
X75319500Y-147542500D02*
X74280500Y-147542500D01*
X74280500Y-146757500D01*
X75319500Y-146757500D01*
X75319500Y-147542500D01*
X75319500Y-147542500D01*
G37*
G36*
X79475000Y-147475000D02*
X78025000Y-147475000D01*
X78025000Y-146325000D01*
X79475000Y-146325000D01*
X79475000Y-147475000D01*
X79475000Y-147475000D01*
G37*
G36*
X77325000Y-147475000D02*
X75875000Y-147475000D01*
X75875000Y-146325000D01*
X77325000Y-146325000D01*
X77325000Y-147475000D01*
X77325000Y-147475000D01*
G37*
G36*
X35369500Y-147142500D02*
X34330500Y-147142500D01*
X34330500Y-146357500D01*
X35369500Y-146357500D01*
X35369500Y-147142500D01*
X35369500Y-147142500D01*
G37*
G36*
X64969500Y-147042500D02*
X63930500Y-147042500D01*
X63930500Y-146257500D01*
X64969500Y-146257500D01*
X64969500Y-147042500D01*
X64969500Y-147042500D01*
G37*
G36*
X62142500Y-146519500D02*
X61357500Y-146519500D01*
X61357500Y-145480500D01*
X62142500Y-145480500D01*
X62142500Y-146519500D01*
X62142500Y-146519500D01*
G37*
G36*
X60642500Y-146519500D02*
X59857500Y-146519500D01*
X59857500Y-145480500D01*
X60642500Y-145480500D01*
X60642500Y-146519500D01*
X60642500Y-146519500D01*
G37*
G36*
X71642500Y-146069500D02*
X70857500Y-146069500D01*
X70857500Y-145030500D01*
X71642500Y-145030500D01*
X71642500Y-146069500D01*
X71642500Y-146069500D01*
G37*
G36*
X73142500Y-146069500D02*
X72357500Y-146069500D01*
X72357500Y-145030500D01*
X73142500Y-145030500D01*
X73142500Y-146069500D01*
X73142500Y-146069500D01*
G37*
G36*
X34425000Y-144975000D02*
X32975000Y-144975000D01*
X32975000Y-143825000D01*
X34425000Y-143825000D01*
X34425000Y-144975000D01*
X34425000Y-144975000D01*
G37*
G36*
X36425000Y-144975000D02*
X34975000Y-144975000D01*
X34975000Y-143825000D01*
X36425000Y-143825000D01*
X36425000Y-144975000D01*
X36425000Y-144975000D01*
G37*
G36*
X71642500Y-144619500D02*
X70857500Y-144619500D01*
X70857500Y-143580500D01*
X71642500Y-143580500D01*
X71642500Y-144619500D01*
X71642500Y-144619500D01*
G37*
G36*
X73142500Y-144619500D02*
X72357500Y-144619500D01*
X72357500Y-143580500D01*
X73142500Y-143580500D01*
X73142500Y-144619500D01*
X73142500Y-144619500D01*
G37*
G36*
X56942500Y-144569500D02*
X56157500Y-144569500D01*
X56157500Y-143530500D01*
X56942500Y-143530500D01*
X56942500Y-144569500D01*
X56942500Y-144569500D01*
G37*
G36*
X58442500Y-144569500D02*
X57657500Y-144569500D01*
X57657500Y-143530500D01*
X58442500Y-143530500D01*
X58442500Y-144569500D01*
X58442500Y-144569500D01*
G37*
G36*
X66119499Y-144542500D02*
X65080499Y-144542500D01*
X65080499Y-143757500D01*
X66119499Y-143757500D01*
X66119499Y-144542500D01*
X66119499Y-144542500D01*
G37*
G36*
X66119499Y-143042500D02*
X65080499Y-143042500D01*
X65080499Y-142257500D01*
X66119499Y-142257500D01*
X66119499Y-143042500D01*
X66119499Y-143042500D01*
G37*
G36*
X73175000Y-143025000D02*
X72025000Y-143025000D01*
X72025000Y-141575000D01*
X73175000Y-141575000D01*
X73175000Y-143025000D01*
X73175000Y-143025000D01*
G37*
G36*
X71175000Y-143025000D02*
X70025000Y-143025000D01*
X70025000Y-141575000D01*
X71175000Y-141575000D01*
X71175000Y-143025000D01*
X71175000Y-143025000D01*
G37*
G36*
X34425000Y-142975000D02*
X32975000Y-142975000D01*
X32975000Y-141825000D01*
X34425000Y-141825000D01*
X34425000Y-142975000D01*
X34425000Y-142975000D01*
G37*
G36*
X36425000Y-142975000D02*
X34975000Y-142975000D01*
X34975000Y-141825000D01*
X36425000Y-141825000D01*
X36425000Y-142975000D01*
X36425000Y-142975000D01*
G37*
G36*
X59619500Y-142542500D02*
X58580500Y-142542500D01*
X58580500Y-141757500D01*
X59619500Y-141757500D01*
X59619500Y-142542500D01*
X59619500Y-142542500D01*
G37*
G36*
X61019500Y-142542500D02*
X59980500Y-142542500D01*
X59980500Y-141757500D01*
X61019500Y-141757500D01*
X61019500Y-142542500D01*
X61019500Y-142542500D01*
G37*
G36*
X54150000Y-141625000D02*
X53450000Y-141625000D01*
X53450000Y-140975000D01*
X54150000Y-140975000D01*
X54150000Y-141625000D01*
X54150000Y-141625000D01*
G37*
G36*
X61019500Y-141042500D02*
X59980500Y-141042500D01*
X59980500Y-140257500D01*
X61019500Y-140257500D01*
X61019500Y-141042500D01*
X61019500Y-141042500D01*
G37*
G36*
X59619500Y-141042500D02*
X58580500Y-141042500D01*
X58580500Y-140257500D01*
X59619500Y-140257500D01*
X59619500Y-141042500D01*
X59619500Y-141042500D01*
G37*
G36*
X54150000Y-140625000D02*
X53450000Y-140625000D01*
X53450000Y-139975000D01*
X54150000Y-139975000D01*
X54150000Y-140625000D01*
X54150000Y-140625000D01*
G37*
G36*
X63442500Y-140619500D02*
X62657500Y-140619500D01*
X62657500Y-139580500D01*
X63442500Y-139580500D01*
X63442500Y-140619500D01*
X63442500Y-140619500D01*
G37*
G36*
X64942500Y-140619500D02*
X64157500Y-140619500D01*
X64157500Y-139580500D01*
X64942500Y-139580500D01*
X64942500Y-140619500D01*
X64942500Y-140619500D01*
G37*
G36*
X70619500Y-140542500D02*
X69580500Y-140542500D01*
X69580500Y-139757500D01*
X70619500Y-139757500D01*
X70619500Y-140542500D01*
X70619500Y-140542500D01*
G37*
G36*
X52050000Y-140125000D02*
X51350000Y-140125000D01*
X51350000Y-139475000D01*
X52050000Y-139475000D01*
X52050000Y-140125000D01*
X52050000Y-140125000D01*
G37*
G36*
X52050000Y-139125000D02*
X51350000Y-139125000D01*
X51350000Y-138475000D01*
X52050000Y-138475000D01*
X52050000Y-139125000D01*
X52050000Y-139125000D01*
G37*
G36*
X70619500Y-139042500D02*
X69580500Y-139042500D01*
X69580500Y-138257500D01*
X70619500Y-138257500D01*
X70619500Y-139042500D01*
X70619500Y-139042500D01*
G37*
G36*
X105494528Y-136950597D02*
X105667427Y-136986087D01*
X105830133Y-137054482D01*
X105976463Y-137153183D01*
X106100826Y-137278418D01*
X106198502Y-137425432D01*
X106265759Y-137588610D01*
X106299936Y-137761222D01*
X106299936Y-137761229D01*
X106300039Y-137761750D01*
X106297224Y-137963346D01*
X106297107Y-137963860D01*
X106297107Y-137963874D01*
X106258123Y-138135459D01*
X106186335Y-138296701D01*
X106084596Y-138440924D01*
X105956779Y-138562643D01*
X105807754Y-138657217D01*
X105643198Y-138721044D01*
X105469381Y-138751693D01*
X105292920Y-138747996D01*
X105120541Y-138710096D01*
X104958800Y-138639433D01*
X104813868Y-138538703D01*
X104691259Y-138411738D01*
X104595650Y-138263381D01*
X104530675Y-138099274D01*
X104498814Y-137925678D01*
X104501279Y-137749191D01*
X104537975Y-137576549D01*
X104607506Y-137414322D01*
X104707222Y-137268690D01*
X104833325Y-137145201D01*
X104981017Y-137048554D01*
X105144662Y-136982437D01*
X105318035Y-136949364D01*
X105494528Y-136950597D01*
X105494528Y-136950597D01*
G37*
G36*
X102954528Y-136950597D02*
X103127427Y-136986087D01*
X103290133Y-137054482D01*
X103436463Y-137153183D01*
X103560826Y-137278418D01*
X103658502Y-137425432D01*
X103725759Y-137588610D01*
X103759936Y-137761222D01*
X103759936Y-137761229D01*
X103760039Y-137761750D01*
X103757224Y-137963346D01*
X103757107Y-137963860D01*
X103757107Y-137963874D01*
X103718123Y-138135459D01*
X103646335Y-138296701D01*
X103544596Y-138440924D01*
X103416779Y-138562643D01*
X103267754Y-138657217D01*
X103103198Y-138721044D01*
X102929381Y-138751693D01*
X102752920Y-138747996D01*
X102580541Y-138710096D01*
X102418800Y-138639433D01*
X102273868Y-138538703D01*
X102151259Y-138411738D01*
X102055650Y-138263381D01*
X101990675Y-138099274D01*
X101958814Y-137925678D01*
X101961279Y-137749191D01*
X101997975Y-137576549D01*
X102067506Y-137414322D01*
X102167222Y-137268690D01*
X102293325Y-137145201D01*
X102441017Y-137048554D01*
X102604662Y-136982437D01*
X102778035Y-136949364D01*
X102954528Y-136950597D01*
X102954528Y-136950597D01*
G37*
G36*
X100414528Y-136950597D02*
X100587427Y-136986087D01*
X100750133Y-137054482D01*
X100896463Y-137153183D01*
X101020826Y-137278418D01*
X101118502Y-137425432D01*
X101185759Y-137588610D01*
X101219936Y-137761222D01*
X101219936Y-137761229D01*
X101220039Y-137761750D01*
X101217224Y-137963346D01*
X101217107Y-137963860D01*
X101217107Y-137963874D01*
X101178123Y-138135459D01*
X101106335Y-138296701D01*
X101004596Y-138440924D01*
X100876779Y-138562643D01*
X100727754Y-138657217D01*
X100563198Y-138721044D01*
X100389381Y-138751693D01*
X100212920Y-138747996D01*
X100040541Y-138710096D01*
X99878800Y-138639433D01*
X99733868Y-138538703D01*
X99611259Y-138411738D01*
X99515650Y-138263381D01*
X99450675Y-138099274D01*
X99418814Y-137925678D01*
X99421279Y-137749191D01*
X99457975Y-137576549D01*
X99527506Y-137414322D01*
X99627222Y-137268690D01*
X99753325Y-137145201D01*
X99901017Y-137048554D01*
X100064662Y-136982437D01*
X100238035Y-136949364D01*
X100414528Y-136950597D01*
X100414528Y-136950597D01*
G37*
G36*
X95334528Y-136950597D02*
X95507427Y-136986087D01*
X95670133Y-137054482D01*
X95816463Y-137153183D01*
X95940826Y-137278418D01*
X96038502Y-137425432D01*
X96105759Y-137588610D01*
X96139936Y-137761222D01*
X96139936Y-137761229D01*
X96140039Y-137761750D01*
X96137224Y-137963346D01*
X96137107Y-137963860D01*
X96137107Y-137963874D01*
X96098123Y-138135459D01*
X96026335Y-138296701D01*
X95924596Y-138440924D01*
X95796779Y-138562643D01*
X95647754Y-138657217D01*
X95483198Y-138721044D01*
X95309381Y-138751693D01*
X95132920Y-138747996D01*
X94960541Y-138710096D01*
X94798800Y-138639433D01*
X94653868Y-138538703D01*
X94531259Y-138411738D01*
X94435650Y-138263381D01*
X94370675Y-138099274D01*
X94338814Y-137925678D01*
X94341279Y-137749191D01*
X94377975Y-137576549D01*
X94447506Y-137414322D01*
X94547222Y-137268690D01*
X94673325Y-137145201D01*
X94821017Y-137048554D01*
X94984662Y-136982437D01*
X95158035Y-136949364D01*
X95334528Y-136950597D01*
X95334528Y-136950597D01*
G37*
G36*
X92794528Y-136950597D02*
X92967427Y-136986087D01*
X93130133Y-137054482D01*
X93276463Y-137153183D01*
X93400826Y-137278418D01*
X93498502Y-137425432D01*
X93565759Y-137588610D01*
X93599936Y-137761222D01*
X93599936Y-137761229D01*
X93600039Y-137761750D01*
X93597224Y-137963346D01*
X93597107Y-137963860D01*
X93597107Y-137963874D01*
X93558123Y-138135459D01*
X93486335Y-138296701D01*
X93384596Y-138440924D01*
X93256779Y-138562643D01*
X93107754Y-138657217D01*
X92943198Y-138721044D01*
X92769381Y-138751693D01*
X92592920Y-138747996D01*
X92420541Y-138710096D01*
X92258800Y-138639433D01*
X92113868Y-138538703D01*
X91991259Y-138411738D01*
X91895650Y-138263381D01*
X91830675Y-138099274D01*
X91798814Y-137925678D01*
X91801279Y-137749191D01*
X91837975Y-137576549D01*
X91907506Y-137414322D01*
X92007222Y-137268690D01*
X92133325Y-137145201D01*
X92281017Y-137048554D01*
X92444662Y-136982437D01*
X92618035Y-136949364D01*
X92794528Y-136950597D01*
X92794528Y-136950597D01*
G37*
G36*
X97874528Y-136950597D02*
X98047427Y-136986087D01*
X98210133Y-137054482D01*
X98356463Y-137153183D01*
X98480826Y-137278418D01*
X98578502Y-137425432D01*
X98645759Y-137588610D01*
X98679936Y-137761222D01*
X98679936Y-137761229D01*
X98680039Y-137761750D01*
X98677224Y-137963346D01*
X98677107Y-137963860D01*
X98677107Y-137963874D01*
X98638123Y-138135459D01*
X98566335Y-138296701D01*
X98464596Y-138440924D01*
X98336779Y-138562643D01*
X98187754Y-138657217D01*
X98023198Y-138721044D01*
X97849381Y-138751693D01*
X97672920Y-138747996D01*
X97500541Y-138710096D01*
X97338800Y-138639433D01*
X97193868Y-138538703D01*
X97071259Y-138411738D01*
X96975650Y-138263381D01*
X96910675Y-138099274D01*
X96878814Y-137925678D01*
X96881279Y-137749191D01*
X96917975Y-137576549D01*
X96987506Y-137414322D01*
X97087222Y-137268690D01*
X97213325Y-137145201D01*
X97361017Y-137048554D01*
X97524662Y-136982437D01*
X97698035Y-136949364D01*
X97874528Y-136950597D01*
X97874528Y-136950597D01*
G37*
G36*
X54150000Y-138725000D02*
X53450000Y-138725000D01*
X53450000Y-138075000D01*
X54150000Y-138075000D01*
X54150000Y-138725000D01*
X54150000Y-138725000D01*
G37*
G36*
X72419500Y-138442500D02*
X71380500Y-138442500D01*
X71380500Y-137657500D01*
X72419500Y-137657500D01*
X72419500Y-138442500D01*
X72419500Y-138442500D01*
G37*
G36*
X54150000Y-137725000D02*
X53450000Y-137725000D01*
X53450000Y-137075000D01*
X54150000Y-137075000D01*
X54150000Y-137725000D01*
X54150000Y-137725000D01*
G37*
G36*
X65892500Y-137419500D02*
X65107500Y-137419500D01*
X65107500Y-136380500D01*
X65892500Y-136380500D01*
X65892500Y-137419500D01*
X65892500Y-137419500D01*
G37*
G36*
X59892500Y-137419500D02*
X59107500Y-137419500D01*
X59107500Y-136380500D01*
X59892500Y-136380500D01*
X59892500Y-137419500D01*
X59892500Y-137419500D01*
G37*
G36*
X58392500Y-137419500D02*
X57607500Y-137419500D01*
X57607500Y-136380500D01*
X58392500Y-136380500D01*
X58392500Y-137419500D01*
X58392500Y-137419500D01*
G37*
G36*
X64392500Y-137419500D02*
X63607500Y-137419500D01*
X63607500Y-136380500D01*
X64392500Y-136380500D01*
X64392500Y-137419500D01*
X64392500Y-137419500D01*
G37*
G36*
X52150000Y-137275000D02*
X51450000Y-137275000D01*
X51450000Y-136625000D01*
X52150000Y-136625000D01*
X52150000Y-137275000D01*
X52150000Y-137275000D01*
G37*
G36*
X72419500Y-136942500D02*
X71380500Y-136942500D01*
X71380500Y-136157500D01*
X72419500Y-136157500D01*
X72419500Y-136942500D01*
X72419500Y-136942500D01*
G37*
G36*
X78525000Y-136675000D02*
X77075000Y-136675000D01*
X77075000Y-135525000D01*
X78525000Y-135525000D01*
X78525000Y-136675000D01*
X78525000Y-136675000D01*
G37*
G36*
X52150000Y-136275000D02*
X51450000Y-136275000D01*
X51450000Y-135625000D01*
X52150000Y-135625000D01*
X52150000Y-136275000D01*
X52150000Y-136275000D01*
G37*
G36*
X76419500Y-136242500D02*
X75380500Y-136242500D01*
X75380500Y-135457500D01*
X76419500Y-135457500D01*
X76419500Y-136242500D01*
X76419500Y-136242500D01*
G37*
G36*
X54150000Y-135825000D02*
X53450000Y-135825000D01*
X53450000Y-135175000D01*
X54150000Y-135175000D01*
X54150000Y-135825000D01*
X54150000Y-135825000D01*
G37*
G36*
X69542500Y-135819500D02*
X68757500Y-135819500D01*
X68757500Y-134780500D01*
X69542500Y-134780500D01*
X69542500Y-135819500D01*
X69542500Y-135819500D01*
G37*
G36*
X71042500Y-135819500D02*
X70257500Y-135819500D01*
X70257500Y-134780500D01*
X71042500Y-134780500D01*
X71042500Y-135819500D01*
X71042500Y-135819500D01*
G37*
G36*
X58725000Y-134850000D02*
X58075000Y-134850000D01*
X58075000Y-134150000D01*
X58725000Y-134150000D01*
X58725000Y-134850000D01*
X58725000Y-134850000D01*
G37*
G36*
X65625000Y-134850000D02*
X64975000Y-134850000D01*
X64975000Y-134150000D01*
X65625000Y-134150000D01*
X65625000Y-134850000D01*
X65625000Y-134850000D01*
G37*
G36*
X56825000Y-134850000D02*
X56175000Y-134850000D01*
X56175000Y-134150000D01*
X56825000Y-134150000D01*
X56825000Y-134850000D01*
X56825000Y-134850000D01*
G37*
G36*
X55825000Y-134850000D02*
X55175000Y-134850000D01*
X55175000Y-134150000D01*
X55825000Y-134150000D01*
X55825000Y-134850000D01*
X55825000Y-134850000D01*
G37*
G36*
X59725000Y-134850000D02*
X59075000Y-134850000D01*
X59075000Y-134150000D01*
X59725000Y-134150000D01*
X59725000Y-134850000D01*
X59725000Y-134850000D01*
G37*
G36*
X61625000Y-134850000D02*
X60975000Y-134850000D01*
X60975000Y-134150000D01*
X61625000Y-134150000D01*
X61625000Y-134850000D01*
X61625000Y-134850000D01*
G37*
G36*
X62625000Y-134850000D02*
X61975000Y-134850000D01*
X61975000Y-134150000D01*
X62625000Y-134150000D01*
X62625000Y-134850000D01*
X62625000Y-134850000D01*
G37*
G36*
X66625000Y-134850000D02*
X65975000Y-134850000D01*
X65975000Y-134150000D01*
X66625000Y-134150000D01*
X66625000Y-134850000D01*
X66625000Y-134850000D01*
G37*
G36*
X54150000Y-134825000D02*
X53450000Y-134825000D01*
X53450000Y-134175000D01*
X54150000Y-134175000D01*
X54150000Y-134825000D01*
X54150000Y-134825000D01*
G37*
G36*
X76419500Y-134742500D02*
X75380500Y-134742500D01*
X75380500Y-133957500D01*
X76419500Y-133957500D01*
X76419500Y-134742500D01*
X76419500Y-134742500D01*
G37*
G36*
X78525000Y-134675000D02*
X77075000Y-134675000D01*
X77075000Y-133525000D01*
X78525000Y-133525000D01*
X78525000Y-134675000D01*
X78525000Y-134675000D01*
G37*
G36*
X60175000Y-132850000D02*
X59525000Y-132850000D01*
X59525000Y-132150000D01*
X60175000Y-132150000D01*
X60175000Y-132850000D01*
X60175000Y-132850000D01*
G37*
G36*
X61175000Y-132850000D02*
X60525000Y-132850000D01*
X60525000Y-132150000D01*
X61175000Y-132150000D01*
X61175000Y-132850000D01*
X61175000Y-132850000D01*
G37*
G36*
X90072406Y-125145646D02*
X90259712Y-125184095D01*
X90435979Y-125258191D01*
X90594499Y-125365114D01*
X90729228Y-125500786D01*
X90835043Y-125660051D01*
X90907905Y-125836828D01*
X90944940Y-126023869D01*
X90944940Y-126023880D01*
X90945042Y-126024396D01*
X90941993Y-126242791D01*
X90941876Y-126243305D01*
X90941876Y-126243320D01*
X90899633Y-126429248D01*
X90821862Y-126603926D01*
X90711645Y-126760168D01*
X90573177Y-126892030D01*
X90411734Y-126994485D01*
X90233464Y-127063631D01*
X90045163Y-127096834D01*
X89853997Y-127092829D01*
X89667253Y-127051771D01*
X89492034Y-126975219D01*
X89335024Y-126866095D01*
X89202198Y-126728550D01*
X89098621Y-126567829D01*
X89028232Y-126390047D01*
X88993716Y-126201984D01*
X88996386Y-126010790D01*
X89036140Y-125823760D01*
X89111464Y-125648017D01*
X89219491Y-125490247D01*
X89356102Y-125356468D01*
X89516102Y-125251767D01*
X89693384Y-125180140D01*
X89881205Y-125144311D01*
X90072406Y-125145646D01*
X90072406Y-125145646D01*
G37*
G36*
X84992406Y-125145646D02*
X85179712Y-125184095D01*
X85355979Y-125258191D01*
X85514499Y-125365114D01*
X85649228Y-125500786D01*
X85755043Y-125660051D01*
X85827905Y-125836828D01*
X85864940Y-126023869D01*
X85864940Y-126023880D01*
X85865042Y-126024396D01*
X85861993Y-126242791D01*
X85861876Y-126243305D01*
X85861876Y-126243320D01*
X85819633Y-126429248D01*
X85741862Y-126603926D01*
X85631645Y-126760168D01*
X85493177Y-126892030D01*
X85331734Y-126994485D01*
X85153464Y-127063631D01*
X84965163Y-127096834D01*
X84773997Y-127092829D01*
X84587253Y-127051771D01*
X84412034Y-126975219D01*
X84255024Y-126866095D01*
X84122198Y-126728550D01*
X84018621Y-126567829D01*
X83948232Y-126390047D01*
X83913716Y-126201984D01*
X83916386Y-126010790D01*
X83956140Y-125823760D01*
X84031464Y-125648017D01*
X84139491Y-125490247D01*
X84276102Y-125356468D01*
X84436102Y-125251767D01*
X84613384Y-125180140D01*
X84801205Y-125144311D01*
X84992406Y-125145646D01*
X84992406Y-125145646D01*
G37*
G36*
X30519500Y-124442500D02*
X29480500Y-124442500D01*
X29480500Y-123657500D01*
X30519500Y-123657500D01*
X30519500Y-124442500D01*
X30519500Y-124442500D01*
G37*
G36*
X46819500Y-124442500D02*
X45780500Y-124442500D01*
X45780500Y-123657500D01*
X46819500Y-123657500D01*
X46819500Y-124442500D01*
X46819500Y-124442500D01*
G37*
G36*
X30519500Y-122942500D02*
X29480500Y-122942500D01*
X29480500Y-122157500D01*
X30519500Y-122157500D01*
X30519500Y-122942500D01*
X30519500Y-122942500D01*
G37*
G36*
X46819500Y-122942500D02*
X45780500Y-122942500D01*
X45780500Y-122157500D01*
X46819500Y-122157500D01*
X46819500Y-122942500D01*
X46819500Y-122942500D01*
G37*
G36*
X47319500Y-114492500D02*
X46280500Y-114492500D01*
X46280500Y-113707500D01*
X47319500Y-113707500D01*
X47319500Y-114492500D01*
X47319500Y-114492500D01*
G37*
G36*
X34069499Y-114492500D02*
X33030499Y-114492500D01*
X33030499Y-113707500D01*
X34069499Y-113707500D01*
X34069499Y-114492500D01*
X34069499Y-114492500D01*
G37*
G36*
X47319500Y-112992500D02*
X46280500Y-112992500D01*
X46280500Y-112207500D01*
X47319500Y-112207500D01*
X47319500Y-112992500D01*
X47319500Y-112992500D01*
G37*
G36*
X34069499Y-112992500D02*
X33030499Y-112992500D01*
X33030499Y-112207500D01*
X34069499Y-112207500D01*
X34069499Y-112992500D01*
X34069499Y-112992500D01*
G37*
G36*
X57475000Y-47575000D02*
X56125000Y-47575000D01*
X56125000Y-43425000D01*
X57475000Y-43425000D01*
X57475000Y-47575000D01*
X57475000Y-47575000D01*
G37*
G36*
X61475000Y-47575000D02*
X60125000Y-47575000D01*
X60125000Y-43425000D01*
X61475000Y-43425000D01*
X61475000Y-47575000D01*
X61475000Y-47575000D01*
G37*
G36*
X36475000Y-47575000D02*
X35125000Y-47575000D01*
X35125000Y-43425000D01*
X36475000Y-43425000D01*
X36475000Y-47575000D01*
X36475000Y-47575000D01*
G37*
G36*
X32475000Y-47575000D02*
X31125000Y-47575000D01*
X31125000Y-43425000D01*
X32475000Y-43425000D01*
X32475000Y-47575000D01*
X32475000Y-47575000D01*
G37*
G36*
X98080964Y-37726778D02*
X98594848Y-37832264D01*
X99078451Y-38035551D01*
X99513365Y-38328905D01*
X99883008Y-38701137D01*
X100173317Y-39138087D01*
X100373223Y-39623095D01*
X100475013Y-40137175D01*
X100475013Y-40137187D01*
X100475115Y-40137703D01*
X100466748Y-40736889D01*
X100466632Y-40737398D01*
X100466632Y-40737417D01*
X100350528Y-41248448D01*
X100137156Y-41727690D01*
X99834764Y-42156358D01*
X99454866Y-42518130D01*
X99011934Y-42799223D01*
X98522840Y-42988930D01*
X98006217Y-43080025D01*
X97481736Y-43069038D01*
X96969382Y-42956390D01*
X96488659Y-42746368D01*
X96057889Y-42446975D01*
X95693472Y-42069610D01*
X95409297Y-41628656D01*
X95216180Y-41140898D01*
X95121481Y-40624924D01*
X95128806Y-40100376D01*
X95237875Y-39587244D01*
X95444534Y-39105073D01*
X95740914Y-38672221D01*
X96115724Y-38305180D01*
X96554685Y-38017932D01*
X97041081Y-37821415D01*
X97556383Y-37723116D01*
X98080964Y-37726778D01*
X98080964Y-37726778D01*
G37*
G36*
X42480964Y-37726778D02*
X42994848Y-37832264D01*
X43478451Y-38035551D01*
X43913365Y-38328905D01*
X44283008Y-38701137D01*
X44573317Y-39138087D01*
X44773223Y-39623095D01*
X44875013Y-40137175D01*
X44875013Y-40137187D01*
X44875115Y-40137703D01*
X44866748Y-40736889D01*
X44866632Y-40737398D01*
X44866632Y-40737417D01*
X44750528Y-41248448D01*
X44537156Y-41727690D01*
X44234764Y-42156358D01*
X43854866Y-42518130D01*
X43411934Y-42799223D01*
X42922840Y-42988930D01*
X42406217Y-43080025D01*
X41881736Y-43069038D01*
X41369382Y-42956390D01*
X40888659Y-42746368D01*
X40457889Y-42446975D01*
X40093472Y-42069610D01*
X39809297Y-41628656D01*
X39616180Y-41140898D01*
X39521481Y-40624924D01*
X39528806Y-40100376D01*
X39637875Y-39587244D01*
X39844534Y-39105073D01*
X40140914Y-38672221D01*
X40515724Y-38305180D01*
X40954685Y-38017932D01*
X41441081Y-37821415D01*
X41956383Y-37723116D01*
X42480964Y-37726778D01*
X42480964Y-37726778D01*
G37*
G36*
X104392311Y-38599229D02*
X104747709Y-38672182D01*
X105082164Y-38812774D01*
X105382944Y-39015652D01*
X105638586Y-39273085D01*
X105839362Y-39575276D01*
X105977612Y-39910699D01*
X106047978Y-40266070D01*
X106047978Y-40266087D01*
X106048079Y-40266598D01*
X106042293Y-40680988D01*
X106042177Y-40681497D01*
X106042177Y-40681517D01*
X105961917Y-41034777D01*
X105814352Y-41366216D01*
X105605221Y-41662678D01*
X105342487Y-41912876D01*
X105036160Y-42107277D01*
X104697908Y-42238476D01*
X104340617Y-42301477D01*
X103977892Y-42293878D01*
X103623554Y-42215972D01*
X103291091Y-42070722D01*
X102993175Y-41863666D01*
X102741148Y-41602684D01*
X102544616Y-41297725D01*
X102411058Y-40960397D01*
X102345565Y-40603556D01*
X102350631Y-40240783D01*
X102426062Y-39885906D01*
X102568984Y-39552446D01*
X102773961Y-39253085D01*
X103033174Y-38999245D01*
X103336753Y-38800588D01*
X103673139Y-38664679D01*
X104029517Y-38596696D01*
X104392311Y-38599229D01*
X104392311Y-38599229D01*
G37*
G36*
X110992311Y-38599229D02*
X111347709Y-38672182D01*
X111682164Y-38812774D01*
X111982944Y-39015652D01*
X112238586Y-39273085D01*
X112439362Y-39575276D01*
X112577612Y-39910699D01*
X112647978Y-40266070D01*
X112647978Y-40266087D01*
X112648079Y-40266598D01*
X112642293Y-40680988D01*
X112642177Y-40681497D01*
X112642177Y-40681517D01*
X112561917Y-41034777D01*
X112414352Y-41366216D01*
X112205221Y-41662678D01*
X111942487Y-41912876D01*
X111636160Y-42107277D01*
X111297908Y-42238476D01*
X110940617Y-42301477D01*
X110577892Y-42293878D01*
X110223554Y-42215972D01*
X109891091Y-42070722D01*
X109593175Y-41863666D01*
X109341148Y-41602684D01*
X109144616Y-41297725D01*
X109011058Y-40960397D01*
X108945565Y-40603556D01*
X108950631Y-40240783D01*
X109026062Y-39885906D01*
X109168984Y-39552446D01*
X109373961Y-39253085D01*
X109633174Y-38999245D01*
X109936753Y-38800588D01*
X110273139Y-38664679D01*
X110629517Y-38596696D01*
X110992311Y-38599229D01*
X110992311Y-38599229D01*
G37*
G36*
X85992311Y-38599229D02*
X86347709Y-38672182D01*
X86682164Y-38812774D01*
X86982944Y-39015652D01*
X87238586Y-39273085D01*
X87439362Y-39575276D01*
X87577612Y-39910699D01*
X87647978Y-40266070D01*
X87647978Y-40266087D01*
X87648079Y-40266598D01*
X87642293Y-40680988D01*
X87642177Y-40681497D01*
X87642177Y-40681517D01*
X87561917Y-41034777D01*
X87414352Y-41366216D01*
X87205221Y-41662678D01*
X86942487Y-41912876D01*
X86636160Y-42107277D01*
X86297908Y-42238476D01*
X85940617Y-42301477D01*
X85577892Y-42293878D01*
X85223554Y-42215972D01*
X84891091Y-42070722D01*
X84593175Y-41863666D01*
X84341148Y-41602684D01*
X84144616Y-41297725D01*
X84011058Y-40960397D01*
X83945565Y-40603556D01*
X83950631Y-40240783D01*
X84026062Y-39885906D01*
X84168984Y-39552446D01*
X84373961Y-39253085D01*
X84633174Y-38999245D01*
X84936753Y-38800588D01*
X85273139Y-38664679D01*
X85629517Y-38596696D01*
X85992311Y-38599229D01*
X85992311Y-38599229D01*
G37*
G36*
X79392311Y-38599229D02*
X79747709Y-38672182D01*
X80082164Y-38812774D01*
X80382944Y-39015652D01*
X80638586Y-39273085D01*
X80839362Y-39575276D01*
X80977612Y-39910699D01*
X81047978Y-40266070D01*
X81047978Y-40266087D01*
X81048079Y-40266598D01*
X81042293Y-40680988D01*
X81042177Y-40681497D01*
X81042177Y-40681517D01*
X80961917Y-41034777D01*
X80814352Y-41366216D01*
X80605221Y-41662678D01*
X80342487Y-41912876D01*
X80036160Y-42107277D01*
X79697908Y-42238476D01*
X79340617Y-42301477D01*
X78977892Y-42293878D01*
X78623554Y-42215972D01*
X78291091Y-42070722D01*
X77993175Y-41863666D01*
X77741148Y-41602684D01*
X77544616Y-41297725D01*
X77411058Y-40960397D01*
X77345565Y-40603556D01*
X77350631Y-40240783D01*
X77426062Y-39885906D01*
X77568984Y-39552446D01*
X77773961Y-39253085D01*
X78033174Y-38999245D01*
X78336753Y-38800588D01*
X78673139Y-38664679D01*
X79029517Y-38596696D01*
X79392311Y-38599229D01*
X79392311Y-38599229D01*
G37*
G36*
X54392311Y-38599229D02*
X54747709Y-38672182D01*
X55082164Y-38812774D01*
X55382944Y-39015652D01*
X55638586Y-39273085D01*
X55839362Y-39575276D01*
X55977612Y-39910699D01*
X56047978Y-40266070D01*
X56047978Y-40266087D01*
X56048079Y-40266598D01*
X56042293Y-40680988D01*
X56042177Y-40681497D01*
X56042177Y-40681517D01*
X55961917Y-41034777D01*
X55814352Y-41366216D01*
X55605221Y-41662678D01*
X55342487Y-41912876D01*
X55036160Y-42107277D01*
X54697908Y-42238476D01*
X54340617Y-42301477D01*
X53977892Y-42293878D01*
X53623554Y-42215972D01*
X53291091Y-42070722D01*
X52993175Y-41863666D01*
X52741148Y-41602684D01*
X52544616Y-41297725D01*
X52411058Y-40960397D01*
X52345565Y-40603556D01*
X52350631Y-40240783D01*
X52426062Y-39885906D01*
X52568984Y-39552446D01*
X52773961Y-39253085D01*
X53033174Y-38999245D01*
X53336753Y-38800588D01*
X53673139Y-38664679D01*
X54029517Y-38596696D01*
X54392311Y-38599229D01*
X54392311Y-38599229D01*
G37*
G36*
X35992311Y-38599229D02*
X36347709Y-38672182D01*
X36682164Y-38812774D01*
X36982944Y-39015652D01*
X37238586Y-39273085D01*
X37439362Y-39575276D01*
X37577612Y-39910699D01*
X37647978Y-40266070D01*
X37647978Y-40266087D01*
X37648079Y-40266598D01*
X37642293Y-40680988D01*
X37642177Y-40681497D01*
X37642177Y-40681517D01*
X37561917Y-41034777D01*
X37414352Y-41366216D01*
X37205221Y-41662678D01*
X36942487Y-41912876D01*
X36636160Y-42107277D01*
X36297908Y-42238476D01*
X35940617Y-42301477D01*
X35577892Y-42293878D01*
X35223554Y-42215972D01*
X34891091Y-42070722D01*
X34593175Y-41863666D01*
X34341148Y-41602684D01*
X34144616Y-41297725D01*
X34011058Y-40960397D01*
X33945565Y-40603556D01*
X33950631Y-40240783D01*
X34026062Y-39885906D01*
X34168984Y-39552446D01*
X34373961Y-39253085D01*
X34633174Y-38999245D01*
X34936753Y-38800588D01*
X35273139Y-38664679D01*
X35629517Y-38596696D01*
X35992311Y-38599229D01*
X35992311Y-38599229D01*
G37*
G36*
X29392311Y-38599229D02*
X29747709Y-38672182D01*
X30082164Y-38812774D01*
X30382944Y-39015652D01*
X30638586Y-39273085D01*
X30839362Y-39575276D01*
X30977612Y-39910699D01*
X31047978Y-40266070D01*
X31047978Y-40266087D01*
X31048079Y-40266598D01*
X31042293Y-40680988D01*
X31042177Y-40681497D01*
X31042177Y-40681517D01*
X30961917Y-41034777D01*
X30814352Y-41366216D01*
X30605221Y-41662678D01*
X30342487Y-41912876D01*
X30036160Y-42107277D01*
X29697908Y-42238476D01*
X29340617Y-42301477D01*
X28977892Y-42293878D01*
X28623554Y-42215972D01*
X28291091Y-42070722D01*
X27993175Y-41863666D01*
X27741148Y-41602684D01*
X27544616Y-41297725D01*
X27411058Y-40960397D01*
X27345565Y-40603556D01*
X27350631Y-40240783D01*
X27426062Y-39885906D01*
X27568984Y-39552446D01*
X27773961Y-39253085D01*
X28033174Y-38999245D01*
X28336753Y-38800588D01*
X28673139Y-38664679D01*
X29029517Y-38596696D01*
X29392311Y-38599229D01*
X29392311Y-38599229D01*
G37*
G36*
X60992311Y-38599229D02*
X61347709Y-38672182D01*
X61682164Y-38812774D01*
X61982944Y-39015652D01*
X62238586Y-39273085D01*
X62439362Y-39575276D01*
X62577612Y-39910699D01*
X62647978Y-40266070D01*
X62647978Y-40266087D01*
X62648079Y-40266598D01*
X62642293Y-40680988D01*
X62642177Y-40681497D01*
X62642177Y-40681517D01*
X62561917Y-41034777D01*
X62414352Y-41366216D01*
X62205221Y-41662678D01*
X61942487Y-41912876D01*
X61636160Y-42107277D01*
X61297908Y-42238476D01*
X60940617Y-42301477D01*
X60577892Y-42293878D01*
X60223554Y-42215972D01*
X59891091Y-42070722D01*
X59593175Y-41863666D01*
X59341148Y-41602684D01*
X59144616Y-41297725D01*
X59011058Y-40960397D01*
X58945565Y-40603556D01*
X58950631Y-40240783D01*
X59026062Y-39885906D01*
X59168984Y-39552446D01*
X59373961Y-39253085D01*
X59633174Y-38999245D01*
X59936753Y-38800588D01*
X60273139Y-38664679D01*
X60629517Y-38596696D01*
X60992311Y-38599229D01*
X60992311Y-38599229D01*
G37*
G36*
X57637269Y-35801892D02*
X57895654Y-35854931D01*
X58138810Y-35957144D01*
X58357490Y-36104646D01*
X58543345Y-36291803D01*
X58689315Y-36511505D01*
X58789828Y-36755367D01*
X58840956Y-37013588D01*
X58840956Y-37013600D01*
X58841058Y-37014116D01*
X58836851Y-37315389D01*
X58836735Y-37315898D01*
X58836735Y-37315918D01*
X58778417Y-37572603D01*
X58671133Y-37813569D01*
X58519089Y-38029104D01*
X58328074Y-38211005D01*
X58105366Y-38352340D01*
X57859446Y-38447726D01*
X57599687Y-38493529D01*
X57335975Y-38488004D01*
X57078363Y-38431365D01*
X56836652Y-38325764D01*
X56620059Y-38175228D01*
X56436827Y-37985487D01*
X56293944Y-37763774D01*
X56196843Y-37518526D01*
X56149228Y-37259094D01*
X56152912Y-36995347D01*
X56207752Y-36737344D01*
X56311662Y-36494904D01*
X56460683Y-36277265D01*
X56649140Y-36092714D01*
X56869849Y-35948286D01*
X57114412Y-35849476D01*
X57373509Y-35800050D01*
X57637269Y-35801892D01*
X57637269Y-35801892D01*
G37*
G36*
X82637269Y-35801892D02*
X82895654Y-35854931D01*
X83138810Y-35957144D01*
X83357490Y-36104646D01*
X83543345Y-36291803D01*
X83689315Y-36511505D01*
X83789828Y-36755367D01*
X83840956Y-37013588D01*
X83840956Y-37013600D01*
X83841058Y-37014116D01*
X83836851Y-37315389D01*
X83836735Y-37315898D01*
X83836735Y-37315918D01*
X83778417Y-37572603D01*
X83671133Y-37813569D01*
X83519089Y-38029104D01*
X83328074Y-38211005D01*
X83105366Y-38352340D01*
X82859446Y-38447726D01*
X82599687Y-38493529D01*
X82335975Y-38488004D01*
X82078363Y-38431365D01*
X81836652Y-38325764D01*
X81620059Y-38175228D01*
X81436827Y-37985487D01*
X81293944Y-37763774D01*
X81196843Y-37518526D01*
X81149228Y-37259094D01*
X81152912Y-36995347D01*
X81207752Y-36737344D01*
X81311662Y-36494904D01*
X81460683Y-36277265D01*
X81649140Y-36092714D01*
X81869849Y-35948286D01*
X82114412Y-35849476D01*
X82373509Y-35800050D01*
X82637269Y-35801892D01*
X82637269Y-35801892D01*
G37*
G36*
X107637269Y-35801892D02*
X107895654Y-35854931D01*
X108138810Y-35957144D01*
X108357490Y-36104646D01*
X108543345Y-36291803D01*
X108689315Y-36511505D01*
X108789828Y-36755367D01*
X108840956Y-37013588D01*
X108840956Y-37013600D01*
X108841058Y-37014116D01*
X108836851Y-37315389D01*
X108836735Y-37315898D01*
X108836735Y-37315918D01*
X108778417Y-37572603D01*
X108671133Y-37813569D01*
X108519089Y-38029104D01*
X108328074Y-38211005D01*
X108105366Y-38352340D01*
X107859446Y-38447726D01*
X107599687Y-38493529D01*
X107335975Y-38488004D01*
X107078363Y-38431365D01*
X106836652Y-38325764D01*
X106620059Y-38175228D01*
X106436827Y-37985487D01*
X106293944Y-37763774D01*
X106196843Y-37518526D01*
X106149228Y-37259094D01*
X106152912Y-36995347D01*
X106207752Y-36737344D01*
X106311662Y-36494904D01*
X106460683Y-36277265D01*
X106649140Y-36092714D01*
X106869849Y-35948286D01*
X107114412Y-35849476D01*
X107373509Y-35800050D01*
X107637269Y-35801892D01*
X107637269Y-35801892D01*
G37*
G36*
X32637269Y-35801892D02*
X32895654Y-35854931D01*
X33138810Y-35957144D01*
X33357490Y-36104646D01*
X33543345Y-36291803D01*
X33689315Y-36511505D01*
X33789828Y-36755367D01*
X33840956Y-37013588D01*
X33840956Y-37013600D01*
X33841058Y-37014116D01*
X33836851Y-37315389D01*
X33836735Y-37315898D01*
X33836735Y-37315918D01*
X33778417Y-37572603D01*
X33671133Y-37813569D01*
X33519089Y-38029104D01*
X33328074Y-38211005D01*
X33105366Y-38352340D01*
X32859446Y-38447726D01*
X32599687Y-38493529D01*
X32335975Y-38488004D01*
X32078363Y-38431365D01*
X31836652Y-38325764D01*
X31620059Y-38175228D01*
X31436827Y-37985487D01*
X31293944Y-37763774D01*
X31196843Y-37518526D01*
X31149228Y-37259094D01*
X31152912Y-36995347D01*
X31207752Y-36737344D01*
X31311662Y-36494904D01*
X31460683Y-36277265D01*
X31649140Y-36092714D01*
X31869849Y-35948286D01*
X32114412Y-35849476D01*
X32373509Y-35800050D01*
X32637269Y-35801892D01*
X32637269Y-35801892D01*
G37*
G36*
X46385165Y-34179805D02*
X46560599Y-34215817D01*
X46725693Y-34285216D01*
X46874166Y-34385362D01*
X47000353Y-34512433D01*
X47099464Y-34661606D01*
X47167707Y-34827176D01*
X47202387Y-35002327D01*
X47202387Y-35002335D01*
X47202490Y-35002856D01*
X47199633Y-35207408D01*
X47199517Y-35207917D01*
X47199517Y-35207937D01*
X47159959Y-35382046D01*
X47087118Y-35545653D01*
X46983887Y-35691991D01*
X46854195Y-35815495D01*
X46702984Y-35911456D01*
X46536015Y-35976220D01*
X46359649Y-36007318D01*
X46180599Y-36003566D01*
X46005692Y-35965111D01*
X45841577Y-35893411D01*
X45694523Y-35791205D01*
X45570114Y-35662377D01*
X45473103Y-35511844D01*
X45407175Y-35345330D01*
X45374847Y-35169188D01*
X45377348Y-34990112D01*
X45414582Y-34814937D01*
X45485130Y-34650337D01*
X45586314Y-34502562D01*
X45714267Y-34377261D01*
X45864118Y-34279201D01*
X46030166Y-34212113D01*
X46206083Y-34178555D01*
X46385165Y-34179805D01*
X46385165Y-34179805D01*
G37*
G36*
X96385165Y-34179805D02*
X96560599Y-34215817D01*
X96725693Y-34285216D01*
X96874166Y-34385362D01*
X97000353Y-34512433D01*
X97099464Y-34661606D01*
X97167707Y-34827176D01*
X97202387Y-35002327D01*
X97202387Y-35002335D01*
X97202490Y-35002856D01*
X97199633Y-35207408D01*
X97199517Y-35207917D01*
X97199517Y-35207937D01*
X97159959Y-35382046D01*
X97087118Y-35545653D01*
X96983887Y-35691991D01*
X96854195Y-35815495D01*
X96702984Y-35911456D01*
X96536015Y-35976220D01*
X96359649Y-36007318D01*
X96180599Y-36003566D01*
X96005692Y-35965111D01*
X95841577Y-35893411D01*
X95694523Y-35791205D01*
X95570114Y-35662377D01*
X95473103Y-35511844D01*
X95407175Y-35345330D01*
X95374847Y-35169188D01*
X95377348Y-34990112D01*
X95414582Y-34814937D01*
X95485130Y-34650337D01*
X95586314Y-34502562D01*
X95714267Y-34377261D01*
X95864118Y-34279201D01*
X96030166Y-34212113D01*
X96206083Y-34178555D01*
X96385165Y-34179805D01*
X96385165Y-34179805D01*
G37*
G36*
X93806665Y-34179805D02*
X93982099Y-34215817D01*
X94147193Y-34285216D01*
X94295666Y-34385362D01*
X94421853Y-34512433D01*
X94520964Y-34661606D01*
X94589207Y-34827176D01*
X94623887Y-35002327D01*
X94623887Y-35002335D01*
X94623990Y-35002856D01*
X94621133Y-35207408D01*
X94621017Y-35207917D01*
X94621017Y-35207937D01*
X94581459Y-35382046D01*
X94508618Y-35545653D01*
X94405387Y-35691991D01*
X94275695Y-35815495D01*
X94124484Y-35911456D01*
X93957515Y-35976220D01*
X93781149Y-36007318D01*
X93602099Y-36003566D01*
X93427192Y-35965111D01*
X93263077Y-35893411D01*
X93116023Y-35791205D01*
X92991614Y-35662377D01*
X92894603Y-35511844D01*
X92828675Y-35345330D01*
X92796347Y-35169188D01*
X92798848Y-34990112D01*
X92836082Y-34814937D01*
X92906630Y-34650337D01*
X93007814Y-34502562D01*
X93135767Y-34377261D01*
X93285618Y-34279201D01*
X93451666Y-34212113D01*
X93627583Y-34178555D01*
X93806665Y-34179805D01*
X93806665Y-34179805D01*
G37*
G36*
X43806665Y-34179805D02*
X43982099Y-34215817D01*
X44147193Y-34285216D01*
X44295666Y-34385362D01*
X44421853Y-34512433D01*
X44520964Y-34661606D01*
X44589207Y-34827176D01*
X44623887Y-35002327D01*
X44623887Y-35002335D01*
X44623990Y-35002856D01*
X44621133Y-35207408D01*
X44621017Y-35207917D01*
X44621017Y-35207937D01*
X44581459Y-35382046D01*
X44508618Y-35545653D01*
X44405387Y-35691991D01*
X44275695Y-35815495D01*
X44124484Y-35911456D01*
X43957515Y-35976220D01*
X43781149Y-36007318D01*
X43602099Y-36003566D01*
X43427192Y-35965111D01*
X43263077Y-35893411D01*
X43116023Y-35791205D01*
X42991614Y-35662377D01*
X42894603Y-35511844D01*
X42828675Y-35345330D01*
X42796347Y-35169188D01*
X42798848Y-34990112D01*
X42836082Y-34814937D01*
X42906630Y-34650337D01*
X43007814Y-34502562D01*
X43135767Y-34377261D01*
X43285618Y-34279201D01*
X43451666Y-34212113D01*
X43627583Y-34178555D01*
X43806665Y-34179805D01*
X43806665Y-34179805D01*
G37*
G36*
X35992311Y-31999229D02*
X36347709Y-32072182D01*
X36682164Y-32212774D01*
X36982944Y-32415652D01*
X37238586Y-32673085D01*
X37439362Y-32975276D01*
X37577612Y-33310699D01*
X37647978Y-33666070D01*
X37647978Y-33666087D01*
X37648079Y-33666598D01*
X37642293Y-34080988D01*
X37642177Y-34081497D01*
X37642177Y-34081517D01*
X37561917Y-34434777D01*
X37414352Y-34766216D01*
X37205221Y-35062678D01*
X36942487Y-35312876D01*
X36636160Y-35507277D01*
X36297908Y-35638476D01*
X35940617Y-35701477D01*
X35577892Y-35693878D01*
X35223554Y-35615972D01*
X34891091Y-35470722D01*
X34593175Y-35263666D01*
X34341148Y-35002684D01*
X34144616Y-34697725D01*
X34011058Y-34360397D01*
X33945565Y-34003556D01*
X33950631Y-33640783D01*
X34026062Y-33285906D01*
X34168984Y-32952446D01*
X34373961Y-32653085D01*
X34633174Y-32399245D01*
X34936753Y-32200588D01*
X35273139Y-32064679D01*
X35629517Y-31996696D01*
X35992311Y-31999229D01*
X35992311Y-31999229D01*
G37*
G36*
X54392311Y-31999229D02*
X54747709Y-32072182D01*
X55082164Y-32212774D01*
X55382944Y-32415652D01*
X55638586Y-32673085D01*
X55839362Y-32975276D01*
X55977612Y-33310699D01*
X56047978Y-33666070D01*
X56047978Y-33666087D01*
X56048079Y-33666598D01*
X56042293Y-34080988D01*
X56042177Y-34081497D01*
X56042177Y-34081517D01*
X55961917Y-34434777D01*
X55814352Y-34766216D01*
X55605221Y-35062678D01*
X55342487Y-35312876D01*
X55036160Y-35507277D01*
X54697908Y-35638476D01*
X54340617Y-35701477D01*
X53977892Y-35693878D01*
X53623554Y-35615972D01*
X53291091Y-35470722D01*
X52993175Y-35263666D01*
X52741148Y-35002684D01*
X52544616Y-34697725D01*
X52411058Y-34360397D01*
X52345565Y-34003556D01*
X52350631Y-33640783D01*
X52426062Y-33285906D01*
X52568984Y-32952446D01*
X52773961Y-32653085D01*
X53033174Y-32399245D01*
X53336753Y-32200588D01*
X53673139Y-32064679D01*
X54029517Y-31996696D01*
X54392311Y-31999229D01*
X54392311Y-31999229D01*
G37*
G36*
X60992311Y-31999229D02*
X61347709Y-32072182D01*
X61682164Y-32212774D01*
X61982944Y-32415652D01*
X62238586Y-32673085D01*
X62439362Y-32975276D01*
X62577612Y-33310699D01*
X62647978Y-33666070D01*
X62647978Y-33666087D01*
X62648079Y-33666598D01*
X62642293Y-34080988D01*
X62642177Y-34081497D01*
X62642177Y-34081517D01*
X62561917Y-34434777D01*
X62414352Y-34766216D01*
X62205221Y-35062678D01*
X61942487Y-35312876D01*
X61636160Y-35507277D01*
X61297908Y-35638476D01*
X60940617Y-35701477D01*
X60577892Y-35693878D01*
X60223554Y-35615972D01*
X59891091Y-35470722D01*
X59593175Y-35263666D01*
X59341148Y-35002684D01*
X59144616Y-34697725D01*
X59011058Y-34360397D01*
X58945565Y-34003556D01*
X58950631Y-33640783D01*
X59026062Y-33285906D01*
X59168984Y-32952446D01*
X59373961Y-32653085D01*
X59633174Y-32399245D01*
X59936753Y-32200588D01*
X60273139Y-32064679D01*
X60629517Y-31996696D01*
X60992311Y-31999229D01*
X60992311Y-31999229D01*
G37*
G36*
X79392311Y-31999229D02*
X79747709Y-32072182D01*
X80082164Y-32212774D01*
X80382944Y-32415652D01*
X80638586Y-32673085D01*
X80839362Y-32975276D01*
X80977612Y-33310699D01*
X81047978Y-33666070D01*
X81047978Y-33666087D01*
X81048079Y-33666598D01*
X81042293Y-34080988D01*
X81042177Y-34081497D01*
X81042177Y-34081517D01*
X80961917Y-34434777D01*
X80814352Y-34766216D01*
X80605221Y-35062678D01*
X80342487Y-35312876D01*
X80036160Y-35507277D01*
X79697908Y-35638476D01*
X79340617Y-35701477D01*
X78977892Y-35693878D01*
X78623554Y-35615972D01*
X78291091Y-35470722D01*
X77993175Y-35263666D01*
X77741148Y-35002684D01*
X77544616Y-34697725D01*
X77411058Y-34360397D01*
X77345565Y-34003556D01*
X77350631Y-33640783D01*
X77426062Y-33285906D01*
X77568984Y-32952446D01*
X77773961Y-32653085D01*
X78033174Y-32399245D01*
X78336753Y-32200588D01*
X78673139Y-32064679D01*
X79029517Y-31996696D01*
X79392311Y-31999229D01*
X79392311Y-31999229D01*
G37*
G36*
X85992311Y-31999229D02*
X86347709Y-32072182D01*
X86682164Y-32212774D01*
X86982944Y-32415652D01*
X87238586Y-32673085D01*
X87439362Y-32975276D01*
X87577612Y-33310699D01*
X87647978Y-33666070D01*
X87647978Y-33666087D01*
X87648079Y-33666598D01*
X87642293Y-34080988D01*
X87642177Y-34081497D01*
X87642177Y-34081517D01*
X87561917Y-34434777D01*
X87414352Y-34766216D01*
X87205221Y-35062678D01*
X86942487Y-35312876D01*
X86636160Y-35507277D01*
X86297908Y-35638476D01*
X85940617Y-35701477D01*
X85577892Y-35693878D01*
X85223554Y-35615972D01*
X84891091Y-35470722D01*
X84593175Y-35263666D01*
X84341148Y-35002684D01*
X84144616Y-34697725D01*
X84011058Y-34360397D01*
X83945565Y-34003556D01*
X83950631Y-33640783D01*
X84026062Y-33285906D01*
X84168984Y-32952446D01*
X84373961Y-32653085D01*
X84633174Y-32399245D01*
X84936753Y-32200588D01*
X85273139Y-32064679D01*
X85629517Y-31996696D01*
X85992311Y-31999229D01*
X85992311Y-31999229D01*
G37*
G36*
X104392311Y-31999229D02*
X104747709Y-32072182D01*
X105082164Y-32212774D01*
X105382944Y-32415652D01*
X105638586Y-32673085D01*
X105839362Y-32975276D01*
X105977612Y-33310699D01*
X106047978Y-33666070D01*
X106047978Y-33666087D01*
X106048079Y-33666598D01*
X106042293Y-34080988D01*
X106042177Y-34081497D01*
X106042177Y-34081517D01*
X105961917Y-34434777D01*
X105814352Y-34766216D01*
X105605221Y-35062678D01*
X105342487Y-35312876D01*
X105036160Y-35507277D01*
X104697908Y-35638476D01*
X104340617Y-35701477D01*
X103977892Y-35693878D01*
X103623554Y-35615972D01*
X103291091Y-35470722D01*
X102993175Y-35263666D01*
X102741148Y-35002684D01*
X102544616Y-34697725D01*
X102411058Y-34360397D01*
X102345565Y-34003556D01*
X102350631Y-33640783D01*
X102426062Y-33285906D01*
X102568984Y-32952446D01*
X102773961Y-32653085D01*
X103033174Y-32399245D01*
X103336753Y-32200588D01*
X103673139Y-32064679D01*
X104029517Y-31996696D01*
X104392311Y-31999229D01*
X104392311Y-31999229D01*
G37*
G36*
X110992311Y-31999229D02*
X111347709Y-32072182D01*
X111682164Y-32212774D01*
X111982944Y-32415652D01*
X112238586Y-32673085D01*
X112439362Y-32975276D01*
X112577612Y-33310699D01*
X112647978Y-33666070D01*
X112647978Y-33666087D01*
X112648079Y-33666598D01*
X112642293Y-34080988D01*
X112642177Y-34081497D01*
X112642177Y-34081517D01*
X112561917Y-34434777D01*
X112414352Y-34766216D01*
X112205221Y-35062678D01*
X111942487Y-35312876D01*
X111636160Y-35507277D01*
X111297908Y-35638476D01*
X110940617Y-35701477D01*
X110577892Y-35693878D01*
X110223554Y-35615972D01*
X109891091Y-35470722D01*
X109593175Y-35263666D01*
X109341148Y-35002684D01*
X109144616Y-34697725D01*
X109011058Y-34360397D01*
X108945565Y-34003556D01*
X108950631Y-33640783D01*
X109026062Y-33285906D01*
X109168984Y-32952446D01*
X109373961Y-32653085D01*
X109633174Y-32399245D01*
X109936753Y-32200588D01*
X110273139Y-32064679D01*
X110629517Y-31996696D01*
X110992311Y-31999229D01*
X110992311Y-31999229D01*
G37*
G36*
X29392311Y-31999229D02*
X29747709Y-32072182D01*
X30082164Y-32212774D01*
X30382944Y-32415652D01*
X30638586Y-32673085D01*
X30839362Y-32975276D01*
X30977612Y-33310699D01*
X31047978Y-33666070D01*
X31047978Y-33666087D01*
X31048079Y-33666598D01*
X31042293Y-34080988D01*
X31042177Y-34081497D01*
X31042177Y-34081517D01*
X30961917Y-34434777D01*
X30814352Y-34766216D01*
X30605221Y-35062678D01*
X30342487Y-35312876D01*
X30036160Y-35507277D01*
X29697908Y-35638476D01*
X29340617Y-35701477D01*
X28977892Y-35693878D01*
X28623554Y-35615972D01*
X28291091Y-35470722D01*
X27993175Y-35263666D01*
X27741148Y-35002684D01*
X27544616Y-34697725D01*
X27411058Y-34360397D01*
X27345565Y-34003556D01*
X27350631Y-33640783D01*
X27426062Y-33285906D01*
X27568984Y-32952446D01*
X27773961Y-32653085D01*
X28033174Y-32399245D01*
X28336753Y-32200588D01*
X28673139Y-32064679D01*
X29029517Y-31996696D01*
X29392311Y-31999229D01*
X29392311Y-31999229D01*
G37*
M02*
