G04 #@! TF.FileFunction,Paste,Top*
%FSLAX46Y46*%
G04 Gerber Fmt 4.6, Leading zero omitted, Abs format (unit mm)*
G04 Created by KiCad (PCBNEW 4.0.7) date 11/21/19 20:47:33*
%MOMM*%
%LPD*%
G01*
G04 APERTURE LIST*
%ADD10C,0.100000*%
%ADD11R,0.889000X0.635000*%
%ADD12R,0.600000X0.450000*%
%ADD13R,0.500000X0.550000*%
%ADD14R,0.635000X0.889000*%
%ADD15R,1.300000X1.000000*%
%ADD16R,1.500000X1.200000*%
%ADD17R,1.500000X0.600000*%
%ADD18R,1.300000X1.100000*%
%ADD19R,1.200000X0.800000*%
%ADD20R,0.600000X0.700000*%
%ADD21R,1.050000X0.600000*%
%ADD22C,0.400000*%
%ADD23R,0.550000X0.500000*%
%ADD24R,1.150000X0.440000*%
%ADD25R,1.300000X0.280000*%
%ADD26R,0.280000X1.300000*%
%ADD27R,1.100000X2.100000*%
%ADD28R,1.000000X1.300000*%
%ADD29R,2.100000X1.100000*%
%ADD30R,0.600000X0.600000*%
%ADD31R,0.400000X0.600000*%
%ADD32R,0.900000X0.950000*%
%ADD33R,1.800000X0.800000*%
%ADD34O,0.710000X0.254000*%
%ADD35O,0.254000X0.710000*%
%ADD36R,1.370000X1.370000*%
%ADD37R,1.650000X1.330000*%
%ADD38R,0.800000X1.200000*%
%ADD39R,0.700000X0.600000*%
%ADD40R,1.400000X0.425000*%
%ADD41R,0.400000X1.000000*%
%ADD42R,0.280000X1.000000*%
%ADD43R,0.420000X1.620000*%
%ADD44R,0.300000X1.500000*%
%ADD45R,0.500000X0.450000*%
%ADD46C,0.350000*%
%ADD47R,0.420000X0.889000*%
%ADD48R,1.400000X1.075000*%
%ADD49R,1.075000X1.400000*%
%ADD50R,0.450000X0.600000*%
%ADD51R,0.600000X1.050000*%
%ADD52R,1.500000X4.000000*%
%ADD53R,4.000000X1.500000*%
%ADD54R,1.600000X1.000000*%
%ADD55R,0.700000X0.900000*%
%ADD56R,0.440000X1.150000*%
%ADD57O,0.260000X0.700000*%
%ADD58O,0.700000X0.260000*%
%ADD59R,1.450000X1.450000*%
%ADD60R,1.050000X0.700000*%
%ADD61R,1.050000X0.860000*%
%ADD62R,0.600000X1.980000*%
%ADD63R,1.980000X0.600000*%
%ADD64R,0.280000X1.500000*%
%ADD65R,1.200000X0.500000*%
%ADD66R,1.100000X1.300000*%
%ADD67C,0.250000*%
G04 APERTURE END LIST*
D10*
D11*
X85350000Y-175650000D03*
X85350000Y-174150000D03*
D12*
X34300000Y-139100000D03*
X34300000Y-140000000D03*
D13*
X26000000Y-125300000D03*
X25000000Y-125300000D03*
D12*
X26100000Y-122850000D03*
X26100000Y-123750000D03*
X24900000Y-122850000D03*
X24900000Y-123750000D03*
D11*
X28100000Y-126100000D03*
X28100000Y-124600000D03*
X28100000Y-118800000D03*
X28100000Y-120300000D03*
X39200000Y-128600000D03*
X39200000Y-127100000D03*
D14*
X29800000Y-117800000D03*
X31300000Y-117800000D03*
X32750000Y-117100000D03*
X34250000Y-117100000D03*
D11*
X39200000Y-119400000D03*
X39200000Y-120900000D03*
D14*
X37700000Y-117800000D03*
X36200000Y-117800000D03*
D15*
X65900000Y-174400000D03*
X65900000Y-176400000D03*
D11*
X57200000Y-90350000D03*
X57200000Y-88850000D03*
D16*
X82860000Y-166000000D03*
X82860000Y-167600000D03*
X80740000Y-166000000D03*
X80740000Y-167600000D03*
D17*
X118600000Y-150700000D03*
X118600000Y-149100000D03*
X21400000Y-149100000D03*
X21400000Y-150700000D03*
X118600000Y-129300000D03*
X118600000Y-127700000D03*
X21400000Y-127700000D03*
X21400000Y-129300000D03*
X118600000Y-106900000D03*
X118600000Y-105300000D03*
X21400000Y-105300000D03*
X21400000Y-106900000D03*
X21400000Y-72300000D03*
X21400000Y-73900000D03*
X118600000Y-73900000D03*
X118600000Y-72300000D03*
X118600000Y-172500000D03*
X118600000Y-170900000D03*
X21400000Y-170900000D03*
X21400000Y-172500000D03*
X21400000Y-39300000D03*
X21400000Y-40900000D03*
X118600000Y-40900000D03*
X118600000Y-39300000D03*
D18*
X65000000Y-48900000D03*
X65000000Y-51100000D03*
D19*
X97800000Y-51770000D03*
X91800000Y-51770000D03*
X97800000Y-49230000D03*
X91800000Y-49230000D03*
X84000000Y-55570000D03*
X78000000Y-55570000D03*
X84000000Y-53030000D03*
X78000000Y-53030000D03*
D20*
X85500000Y-160450000D03*
X84550000Y-158450000D03*
X86450000Y-158450000D03*
D11*
X76000000Y-90500000D03*
X76000000Y-92000000D03*
X67200000Y-90600000D03*
X67200000Y-92100000D03*
D21*
X69450000Y-91250000D03*
X72150000Y-92200000D03*
X72150000Y-91250000D03*
X72150000Y-90300000D03*
X69450000Y-90300000D03*
X69450000Y-92200000D03*
D11*
X74400000Y-92000000D03*
X74400000Y-90500000D03*
D14*
X81100000Y-108100000D03*
X82600000Y-108100000D03*
D11*
X71800000Y-84350000D03*
X71800000Y-85850000D03*
X70200000Y-85850000D03*
X70200000Y-84350000D03*
D14*
X62250000Y-127350000D03*
X63750000Y-127350000D03*
D22*
X40800000Y-149500000D03*
X40000000Y-149500000D03*
X39200000Y-149500000D03*
X38400000Y-149500000D03*
X37600000Y-149500000D03*
X36800000Y-149500000D03*
X36000000Y-149500000D03*
X35200000Y-149500000D03*
X34400000Y-149500000D03*
X33600000Y-149500000D03*
X32800000Y-149500000D03*
X32000000Y-149500000D03*
X31200000Y-149500000D03*
X30400000Y-149500000D03*
X29600000Y-149500000D03*
X28800000Y-149500000D03*
X40800000Y-150300000D03*
X40000000Y-150300000D03*
X39200000Y-150300000D03*
X38400000Y-150300000D03*
X37600000Y-150300000D03*
X36800000Y-150300000D03*
X36000000Y-150300000D03*
X35200000Y-150300000D03*
X34400000Y-150300000D03*
X33600000Y-150300000D03*
X32800000Y-150300000D03*
X32000000Y-150300000D03*
X31200000Y-150300000D03*
X30400000Y-150300000D03*
X29600000Y-150300000D03*
X28800000Y-150300000D03*
X40800000Y-151100000D03*
X40000000Y-151100000D03*
X39200000Y-151100000D03*
X38400000Y-151100000D03*
X37600000Y-151100000D03*
X36800000Y-151100000D03*
X36000000Y-151100000D03*
X35200000Y-151100000D03*
X34400000Y-151100000D03*
X33600000Y-151100000D03*
X32800000Y-151100000D03*
X32000000Y-151100000D03*
X31200000Y-151100000D03*
X30400000Y-151100000D03*
X29600000Y-151100000D03*
X28800000Y-151100000D03*
X40800000Y-154300000D03*
X40000000Y-154300000D03*
X39200000Y-154300000D03*
X38400000Y-154300000D03*
X37600000Y-154300000D03*
X36800000Y-154300000D03*
X36000000Y-154300000D03*
X35200000Y-154300000D03*
X34400000Y-154300000D03*
X33600000Y-154300000D03*
X32800000Y-154300000D03*
X32000000Y-154300000D03*
X31200000Y-154300000D03*
X30400000Y-154300000D03*
X29600000Y-154300000D03*
X28800000Y-154300000D03*
X40800000Y-155100000D03*
X40000000Y-155100000D03*
X39200000Y-155100000D03*
X38400000Y-155100000D03*
X37600000Y-155100000D03*
X36800000Y-155100000D03*
X36000000Y-155100000D03*
X35200000Y-155100000D03*
X34400000Y-155100000D03*
X33600000Y-155100000D03*
X32800000Y-155100000D03*
X32000000Y-155100000D03*
X31200000Y-155100000D03*
X30400000Y-155100000D03*
X29600000Y-155100000D03*
X28800000Y-155100000D03*
X40800000Y-155900000D03*
X40000000Y-155900000D03*
X39200000Y-155900000D03*
X38400000Y-155900000D03*
X37600000Y-155900000D03*
X36800000Y-155900000D03*
X36000000Y-155900000D03*
X35200000Y-155900000D03*
X34400000Y-155900000D03*
X33600000Y-155900000D03*
X32800000Y-155900000D03*
X32000000Y-155900000D03*
X31200000Y-155900000D03*
X30400000Y-155900000D03*
X29600000Y-155900000D03*
X28800000Y-155900000D03*
D15*
X92525000Y-105400000D03*
X92525000Y-107400000D03*
D14*
X54000000Y-117800000D03*
X52500000Y-117800000D03*
D23*
X51700000Y-139900000D03*
X51700000Y-140900000D03*
D15*
X78800000Y-129600000D03*
X78800000Y-131600000D03*
D24*
X50775000Y-157300000D03*
X48825000Y-157300000D03*
X50775000Y-158100000D03*
X48825000Y-158100000D03*
X50775000Y-158900000D03*
X48825000Y-158900000D03*
X50775000Y-159700000D03*
X48825000Y-159700000D03*
D11*
X111950000Y-169200000D03*
X111950000Y-167700000D03*
D14*
X113300000Y-158250000D03*
X111800000Y-158250000D03*
X113450000Y-164850000D03*
X111950000Y-164850000D03*
D11*
X113550000Y-169200000D03*
X113550000Y-167700000D03*
D20*
X112750000Y-160550000D03*
X113700000Y-162550000D03*
X111800000Y-162550000D03*
D11*
X36300000Y-112450000D03*
X36300000Y-110950000D03*
D14*
X38750000Y-107300000D03*
X40250000Y-107300000D03*
X40250000Y-108900000D03*
X38750000Y-108900000D03*
D20*
X39500000Y-112900000D03*
X38550000Y-110900000D03*
X40450000Y-110900000D03*
D11*
X42700000Y-112450000D03*
X42700000Y-110950000D03*
X51500000Y-78700000D03*
X51500000Y-77200000D03*
D25*
X77850000Y-113700000D03*
X77850000Y-114200000D03*
X77850000Y-114700000D03*
X77850000Y-115200000D03*
X77850000Y-115700000D03*
X77850000Y-116200000D03*
X77850000Y-116700000D03*
X77850000Y-117200000D03*
X77850000Y-117700000D03*
X77850000Y-118200000D03*
X77850000Y-118700000D03*
X77850000Y-119200000D03*
D26*
X79100000Y-120450000D03*
X79600000Y-120450000D03*
X80100000Y-120450000D03*
X80600000Y-120450000D03*
X81100000Y-120450000D03*
X81600000Y-120450000D03*
X82100000Y-120450000D03*
X82600000Y-120450000D03*
X83100000Y-120450000D03*
X83600000Y-120450000D03*
X84100000Y-120450000D03*
X84600000Y-120450000D03*
D25*
X85850000Y-119200000D03*
X85850000Y-118700000D03*
X85850000Y-118200000D03*
X85850000Y-117700000D03*
X85850000Y-117200000D03*
X85850000Y-116700000D03*
X85850000Y-116200000D03*
X85850000Y-115700000D03*
X85850000Y-115200000D03*
X85850000Y-114700000D03*
X85850000Y-114200000D03*
X85850000Y-113700000D03*
D26*
X84600000Y-112450000D03*
X84100000Y-112450000D03*
X83600000Y-112450000D03*
X83100000Y-112450000D03*
X82600000Y-112450000D03*
X82100000Y-112450000D03*
X81600000Y-112450000D03*
X81100000Y-112450000D03*
X80600000Y-112450000D03*
X80100000Y-112450000D03*
X79600000Y-112450000D03*
X79100000Y-112450000D03*
D13*
X62800000Y-132500000D03*
X61800000Y-132500000D03*
D27*
X99850000Y-134100000D03*
X96550000Y-134100000D03*
D15*
X103000000Y-129600000D03*
X103000000Y-127600000D03*
D28*
X29500000Y-170600000D03*
X31500000Y-170600000D03*
D27*
X99850000Y-107900000D03*
X96550000Y-107900000D03*
D15*
X103000000Y-103400000D03*
X103000000Y-101400000D03*
D29*
X38900000Y-167450000D03*
X38900000Y-164150000D03*
D28*
X43400000Y-170600000D03*
X45400000Y-170600000D03*
D24*
X58975000Y-157300000D03*
X57025000Y-157300000D03*
X58975000Y-158100000D03*
X57025000Y-158100000D03*
X58975000Y-158900000D03*
X57025000Y-158900000D03*
X58975000Y-159700000D03*
X57025000Y-159700000D03*
D30*
X45052100Y-67193100D03*
X45052100Y-68971100D03*
X43528100Y-68971100D03*
X43528100Y-67193100D03*
D31*
X44290100Y-67193100D03*
X44290100Y-68971100D03*
D32*
X51851500Y-66718812D03*
X55001500Y-66718812D03*
D33*
X50180500Y-59933000D03*
X50180500Y-63133000D03*
X57180500Y-63133000D03*
X50180500Y-57733000D03*
X50180500Y-55533000D03*
X57180500Y-59933000D03*
X57180500Y-57733000D03*
X57180500Y-55533000D03*
D18*
X70762000Y-61077800D03*
X70762000Y-63277800D03*
X44981000Y-61077800D03*
X44981000Y-63277800D03*
X39500000Y-48900000D03*
X39500000Y-51100000D03*
D34*
X46932000Y-102175899D03*
D35*
X49052000Y-101555899D03*
X49052000Y-104295899D03*
X48552000Y-104295899D03*
X48552000Y-101555899D03*
X48052000Y-101555899D03*
X48052000Y-104295899D03*
X47552000Y-104295899D03*
X47552000Y-101555899D03*
D36*
X48302000Y-102925899D03*
D34*
X49672000Y-102175899D03*
X49672000Y-102675899D03*
X46932000Y-102675899D03*
X46932000Y-103175899D03*
X49672000Y-103175899D03*
X49672000Y-103675899D03*
X46932000Y-103675899D03*
D35*
X49398000Y-84570665D03*
X49398000Y-87310665D03*
X48898000Y-87310665D03*
X48898000Y-84570665D03*
X48398000Y-84570665D03*
X48398000Y-87310665D03*
X47898000Y-87310665D03*
X47898000Y-84570665D03*
D37*
X48648000Y-85940665D03*
D32*
X62519500Y-66718812D03*
X65669500Y-66718812D03*
X36840100Y-66718812D03*
X39990100Y-66718812D03*
X25943500Y-66718812D03*
X29093500Y-66718812D03*
D38*
X53270000Y-46600000D03*
X53270000Y-52600000D03*
X50730000Y-46600000D03*
X50730000Y-52600000D03*
X28270000Y-46600000D03*
X28270000Y-52600000D03*
X25730000Y-46600000D03*
X25730000Y-52600000D03*
D20*
X87500000Y-165000000D03*
X86550000Y-163000000D03*
X88450000Y-163000000D03*
X91500000Y-165000000D03*
X90550000Y-163000000D03*
X92450000Y-163000000D03*
X93500000Y-160450000D03*
X92550000Y-158450000D03*
X94450000Y-158450000D03*
X99500000Y-165000000D03*
X98550000Y-163000000D03*
X100450000Y-163000000D03*
X103500000Y-165000000D03*
X102550000Y-163000000D03*
X104450000Y-163000000D03*
X107500000Y-165000000D03*
X106550000Y-163000000D03*
X108450000Y-163000000D03*
X103500000Y-160450000D03*
X102550000Y-158450000D03*
X104450000Y-158450000D03*
X99500000Y-160450000D03*
X98550000Y-158450000D03*
X100450000Y-158450000D03*
X95500000Y-165000000D03*
X94550000Y-163000000D03*
X96450000Y-163000000D03*
X89500000Y-160450000D03*
X88550000Y-158450000D03*
X90450000Y-158450000D03*
X107500000Y-160450000D03*
X106550000Y-158450000D03*
X108450000Y-158450000D03*
D39*
X51424500Y-72331800D03*
X53424500Y-71381800D03*
X53424500Y-73281800D03*
X78556500Y-70452200D03*
X76556500Y-71402200D03*
X76556500Y-69502200D03*
X85795500Y-70452200D03*
X83795500Y-71402200D03*
X83795500Y-69502200D03*
X32952574Y-72331800D03*
X34952574Y-71381800D03*
X34952574Y-73281800D03*
D40*
X84894906Y-81120602D03*
X89294906Y-81120602D03*
X84894906Y-80470602D03*
X89294906Y-80470602D03*
X84894906Y-79820602D03*
X89294906Y-79820602D03*
X84894906Y-79170602D03*
X89294906Y-79170602D03*
X102297476Y-60003000D03*
X97897476Y-60003000D03*
X102297476Y-60653000D03*
X97897476Y-60653000D03*
X102297476Y-61303000D03*
X97897476Y-61303000D03*
X102297476Y-61953000D03*
X97897476Y-61953000D03*
X88962501Y-60003000D03*
X84562501Y-60003000D03*
X88962501Y-60653000D03*
X84562501Y-60653000D03*
X88962501Y-61303000D03*
X84562501Y-61303000D03*
X88962501Y-61953000D03*
X84562501Y-61953000D03*
D30*
X48708100Y-67193100D03*
X48708100Y-68971100D03*
X47184100Y-68971100D03*
X47184100Y-67193100D03*
D31*
X47946100Y-67193100D03*
X47946100Y-68971100D03*
D30*
X93456900Y-58653900D03*
X93456900Y-56875900D03*
X94980900Y-56875900D03*
X94980900Y-58653900D03*
D31*
X94218900Y-58653900D03*
X94218900Y-56875900D03*
D33*
X60848500Y-59933000D03*
X60848500Y-63133000D03*
X67848500Y-63133000D03*
X60848500Y-57733000D03*
X60848500Y-55533000D03*
X67848500Y-59933000D03*
X67848500Y-57733000D03*
X67848500Y-55533000D03*
X35067500Y-59933000D03*
X35067500Y-63133000D03*
X42067500Y-63133000D03*
X35067500Y-57733000D03*
X35067500Y-55533000D03*
X42067500Y-59933000D03*
X42067500Y-57733000D03*
X42067500Y-55533000D03*
X24399500Y-59933000D03*
X24399500Y-63133000D03*
X31399500Y-63133000D03*
X24399500Y-57733000D03*
X24399500Y-55533000D03*
X31399500Y-59933000D03*
X31399500Y-57733000D03*
X31399500Y-55533000D03*
D15*
X89100000Y-121600000D03*
X89100000Y-119600000D03*
X89090358Y-114646924D03*
X89090358Y-116646924D03*
X107350000Y-146700000D03*
X107350000Y-144700000D03*
X103000000Y-116600000D03*
X103000000Y-114600000D03*
D27*
X99850000Y-121100000D03*
X96550000Y-121100000D03*
D28*
X80200000Y-173100000D03*
X78200000Y-173100000D03*
D29*
X81800000Y-138550000D03*
X81800000Y-141850000D03*
X92700000Y-132250000D03*
X92700000Y-128950000D03*
X84800000Y-138550000D03*
X84800000Y-141850000D03*
D15*
X45350000Y-137400000D03*
X45350000Y-135400000D03*
D28*
X62000000Y-125450000D03*
X64000000Y-125450000D03*
D29*
X84800000Y-150550000D03*
X84800000Y-147250000D03*
D15*
X79300000Y-139100000D03*
X79300000Y-141100000D03*
D29*
X81450000Y-128950000D03*
X81450000Y-132250000D03*
X25000000Y-167450000D03*
X25000000Y-164150000D03*
X81800000Y-150550000D03*
X81800000Y-147250000D03*
D32*
X36790100Y-92118812D03*
X39940100Y-92118812D03*
D20*
X69300000Y-79800000D03*
X68350000Y-77800000D03*
X70250000Y-77800000D03*
X62100000Y-79800000D03*
X61150000Y-77800000D03*
X63050000Y-77800000D03*
D28*
X78200000Y-175100000D03*
X80200000Y-175100000D03*
D30*
X72838000Y-108089000D03*
X72838000Y-106311000D03*
X74362000Y-106311000D03*
X74362000Y-108089000D03*
D31*
X73600000Y-108089000D03*
X73600000Y-106311000D03*
D33*
X35000000Y-85000000D03*
X35000000Y-88200000D03*
X42000000Y-88200000D03*
X35000000Y-82800000D03*
X35000000Y-80600000D03*
X42000000Y-85000000D03*
X42000000Y-82800000D03*
X42000000Y-80600000D03*
D41*
X55950000Y-112800000D03*
X55950000Y-111000000D03*
X55300000Y-112800000D03*
X55300000Y-111000000D03*
X54650000Y-112800000D03*
X54650000Y-111000000D03*
D42*
X29500000Y-184700000D03*
X30000000Y-184700000D03*
X30500000Y-184700000D03*
X31000000Y-184700000D03*
X29500000Y-182900000D03*
X30000000Y-182900000D03*
X30500000Y-182900000D03*
X31000000Y-182900000D03*
D43*
X63600000Y-103800000D03*
X63600000Y-110650000D03*
X64250000Y-103800000D03*
X64250000Y-110650000D03*
X64900000Y-103800000D03*
X64900000Y-110650000D03*
X65550000Y-103800000D03*
X65550000Y-110650000D03*
X66200000Y-103800000D03*
X66200000Y-110650000D03*
X66850000Y-103800000D03*
X66850000Y-110650000D03*
X67500000Y-103800000D03*
X67500000Y-110650000D03*
X68150000Y-103800000D03*
X68150000Y-110650000D03*
X68800000Y-103800000D03*
X68800000Y-110650000D03*
X69450000Y-103800000D03*
X69450000Y-110650000D03*
D24*
X50775000Y-143300000D03*
X48825000Y-143300000D03*
X50775000Y-144100000D03*
X48825000Y-144100000D03*
X50775000Y-144900000D03*
X48825000Y-144900000D03*
X50775000Y-145700000D03*
X48825000Y-145700000D03*
X50775000Y-146800000D03*
X48825000Y-146800000D03*
X50775000Y-147600000D03*
X48825000Y-147600000D03*
X50775000Y-148400000D03*
X48825000Y-148400000D03*
X50775000Y-149200000D03*
X48825000Y-149200000D03*
X50775000Y-150300000D03*
X48825000Y-150300000D03*
X50775000Y-151100000D03*
X48825000Y-151100000D03*
X50775000Y-151900000D03*
X48825000Y-151900000D03*
X50775000Y-152700000D03*
X48825000Y-152700000D03*
X50775000Y-153800000D03*
X48825000Y-153800000D03*
X50775000Y-154600000D03*
X48825000Y-154600000D03*
X50775000Y-155400000D03*
X48825000Y-155400000D03*
X50775000Y-156200000D03*
X48825000Y-156200000D03*
D44*
X109000000Y-147150000D03*
X109000000Y-152650000D03*
X109650000Y-147150000D03*
X109650000Y-152650000D03*
X110300000Y-147150000D03*
X110300000Y-152650000D03*
X110950000Y-147150000D03*
X110950000Y-152650000D03*
X111600000Y-147150000D03*
X111600000Y-152650000D03*
X112250000Y-147150000D03*
X112250000Y-152650000D03*
X112900000Y-147150000D03*
X112900000Y-152650000D03*
D11*
X103600000Y-171000000D03*
X103600000Y-172500000D03*
X113000000Y-130550000D03*
X113000000Y-132050000D03*
D14*
X109650000Y-128600000D03*
X108150000Y-128600000D03*
X109750000Y-133900000D03*
X108250000Y-133900000D03*
X100550000Y-131500000D03*
X99050000Y-131500000D03*
D11*
X27600000Y-168150000D03*
X27600000Y-166650000D03*
X30500000Y-177250000D03*
X30500000Y-175750000D03*
X25200000Y-177350000D03*
X25200000Y-175850000D03*
D14*
X28550000Y-180600000D03*
X27050000Y-180600000D03*
X109750000Y-107700000D03*
X108250000Y-107700000D03*
X109650000Y-102400000D03*
X108150000Y-102400000D03*
D11*
X113000000Y-104350000D03*
X113000000Y-105850000D03*
D14*
X100550000Y-105300000D03*
X99050000Y-105300000D03*
D11*
X38200000Y-177350000D03*
X38200000Y-175850000D03*
X44400000Y-177250000D03*
X44400000Y-175750000D03*
D14*
X41800000Y-180600000D03*
X40300000Y-180600000D03*
D11*
X41500000Y-168150000D03*
X41500000Y-166650000D03*
D14*
X86050000Y-64000000D03*
X84550000Y-64000000D03*
X99400000Y-63900000D03*
X97900000Y-63900000D03*
X57747560Y-102600000D03*
X59247560Y-102600000D03*
D11*
X53100000Y-111900000D03*
X53100000Y-110400000D03*
X107350000Y-150650000D03*
X107350000Y-149150000D03*
X84902200Y-85052200D03*
X84902200Y-83552200D03*
X89302200Y-75252200D03*
X89302200Y-76752200D03*
X81700000Y-72912000D03*
X81700000Y-71412000D03*
X74191000Y-67988000D03*
X74191000Y-69488000D03*
X81700000Y-67988000D03*
X81700000Y-69488000D03*
X55536000Y-74812000D03*
X55536000Y-73312000D03*
X55536000Y-69888000D03*
X55536000Y-71388000D03*
X43300000Y-78000000D03*
X43300000Y-76500000D03*
X50426000Y-89731000D03*
X50426000Y-91231000D03*
X46847000Y-89731000D03*
X46847000Y-91231000D03*
X31877000Y-89731000D03*
X31877000Y-91231000D03*
X28321000Y-89731000D03*
X28321000Y-91231000D03*
X36600000Y-74812000D03*
X36600000Y-73312000D03*
X36599000Y-69888000D03*
X36599000Y-71388000D03*
X47267000Y-61567500D03*
X47267000Y-63067500D03*
X44100000Y-50750000D03*
X44100000Y-49250000D03*
X37361000Y-50740500D03*
X37361000Y-49240500D03*
D14*
X31100000Y-50800000D03*
X32600000Y-50800000D03*
X56100000Y-50800000D03*
X57600000Y-50800000D03*
D11*
X62888000Y-50740500D03*
X62888000Y-49240500D03*
X70127000Y-49240500D03*
X70127000Y-50740500D03*
X72921000Y-61567500D03*
X72921000Y-63067500D03*
X53500000Y-105200000D03*
X53500000Y-103700000D03*
D14*
X59250000Y-105800000D03*
X57750000Y-105800000D03*
D11*
X44500000Y-108850000D03*
X44500000Y-107350000D03*
X42750000Y-105200000D03*
X42750000Y-103700000D03*
X37650000Y-103700000D03*
X37650000Y-105200000D03*
D14*
X24900000Y-136250000D03*
X26400000Y-136250000D03*
D11*
X28200000Y-108850000D03*
X28200000Y-107350000D03*
X26450000Y-103700000D03*
X26450000Y-105200000D03*
X86000000Y-166900000D03*
X86000000Y-168400000D03*
X90000000Y-166900000D03*
X90000000Y-168400000D03*
X92150000Y-171000000D03*
X92150000Y-172500000D03*
X98000000Y-166900000D03*
X98000000Y-168400000D03*
X102000000Y-166900000D03*
X102000000Y-168400000D03*
X106000000Y-166900000D03*
X106000000Y-168400000D03*
X107650000Y-171000000D03*
X107650000Y-172500000D03*
X99650000Y-171000000D03*
X99650000Y-172500000D03*
X94000000Y-166900000D03*
X94000000Y-168400000D03*
X88250000Y-171000000D03*
X88250000Y-172500000D03*
X84600000Y-171000000D03*
X84600000Y-172500000D03*
X104000000Y-145700000D03*
X104000000Y-147200000D03*
X88000000Y-145695602D03*
X88000000Y-147195602D03*
X88000000Y-154100000D03*
X88000000Y-152600000D03*
D14*
X106650000Y-90200000D03*
X108150000Y-90200000D03*
D11*
X113600000Y-87550000D03*
X113600000Y-86050000D03*
X105600000Y-87750000D03*
X105600000Y-86250000D03*
X106150000Y-75450000D03*
X106150000Y-76950000D03*
D14*
X104750000Y-58166000D03*
X103250000Y-58166000D03*
X91301000Y-58166000D03*
X89801000Y-58166000D03*
D11*
X74200000Y-72912000D03*
X74200000Y-71412000D03*
X104000000Y-154100000D03*
X104000000Y-152600000D03*
X107350000Y-141150000D03*
X107350000Y-142650000D03*
X67200000Y-49250000D03*
X67200000Y-50750000D03*
X41700000Y-49250000D03*
X41700000Y-50750000D03*
X33000000Y-78700000D03*
X33000000Y-77200000D03*
X24800000Y-78000000D03*
X24800000Y-76500000D03*
D14*
X49050000Y-117100000D03*
X50550000Y-117100000D03*
D11*
X55500000Y-128600000D03*
X55500000Y-127100000D03*
D14*
X46100000Y-117800000D03*
X47600000Y-117800000D03*
D11*
X55500000Y-119400000D03*
X55500000Y-120900000D03*
X44400000Y-118800000D03*
X44400000Y-120300000D03*
D14*
X109650000Y-115600000D03*
X108150000Y-115600000D03*
X109750000Y-120900000D03*
X108250000Y-120900000D03*
X100550000Y-118500000D03*
X99050000Y-118500000D03*
D11*
X113000000Y-117550000D03*
X113000000Y-119050000D03*
X69700000Y-174650000D03*
X69700000Y-173150000D03*
X68100000Y-174650000D03*
X68100000Y-173150000D03*
X64200000Y-169650000D03*
X64200000Y-168150000D03*
D14*
X82800000Y-169600000D03*
X81300000Y-169600000D03*
X54200000Y-161800000D03*
X52700000Y-161800000D03*
X80750000Y-164000000D03*
X82250000Y-164000000D03*
D11*
X59200000Y-164000000D03*
X59200000Y-165500000D03*
X47300000Y-137150000D03*
X47300000Y-135650000D03*
X77500000Y-139350000D03*
X77500000Y-140850000D03*
D14*
X79100000Y-123000000D03*
X80600000Y-123000000D03*
X83100000Y-123000000D03*
X84600000Y-123000000D03*
X84550000Y-104100000D03*
X86050000Y-104100000D03*
X77250000Y-104100000D03*
X78750000Y-104100000D03*
X76350000Y-110200000D03*
X77850000Y-110200000D03*
D11*
X67200000Y-97650000D03*
X67200000Y-96150000D03*
X60000000Y-96250000D03*
X60000000Y-97750000D03*
X54050000Y-90350000D03*
X54050000Y-88850000D03*
X54050000Y-82450000D03*
X54050000Y-83950000D03*
D14*
X62100000Y-101000000D03*
X63600000Y-101000000D03*
X68550000Y-72900000D03*
X70050000Y-72900000D03*
X61350000Y-72900000D03*
X62850000Y-72900000D03*
D11*
X78200000Y-78850000D03*
X78200000Y-77350000D03*
X24200000Y-154500000D03*
X24200000Y-153000000D03*
X25800000Y-153000000D03*
X25800000Y-154500000D03*
D14*
X24300000Y-160100000D03*
X25800000Y-160100000D03*
X24300000Y-158400000D03*
X25800000Y-158400000D03*
D11*
X58800000Y-79500000D03*
X58800000Y-78000000D03*
D14*
X61350000Y-76100000D03*
X62850000Y-76100000D03*
D11*
X66050000Y-79500000D03*
X66050000Y-78000000D03*
D14*
X68550000Y-76100000D03*
X70050000Y-76100000D03*
X62850000Y-74500000D03*
X61350000Y-74500000D03*
X68550000Y-74500000D03*
X70050000Y-74500000D03*
D11*
X55650000Y-82450000D03*
X55650000Y-83950000D03*
X55650000Y-90350000D03*
X55650000Y-88850000D03*
D14*
X80550000Y-101900000D03*
X79050000Y-101900000D03*
X87850000Y-101900000D03*
X86350000Y-101900000D03*
X75450000Y-101900000D03*
X76950000Y-101900000D03*
X82750000Y-101900000D03*
X84250000Y-101900000D03*
X88800000Y-111333470D03*
X90300000Y-111333470D03*
X81800000Y-155500000D03*
X83300000Y-155500000D03*
D11*
X62400000Y-164000000D03*
X62400000Y-165500000D03*
D14*
X86750000Y-135400000D03*
X88250000Y-135400000D03*
D11*
X60800000Y-164000000D03*
X60800000Y-165500000D03*
X62600000Y-168150000D03*
X62600000Y-169650000D03*
X57592941Y-165500000D03*
X57592941Y-164000000D03*
X61000000Y-168150000D03*
X61000000Y-169650000D03*
X59200000Y-169650000D03*
X59200000Y-168150000D03*
X73200000Y-157400000D03*
X73200000Y-155900000D03*
X109800000Y-119050000D03*
X109800000Y-117550000D03*
X111400000Y-117550000D03*
X111400000Y-119050000D03*
D14*
X99050000Y-116900000D03*
X100550000Y-116900000D03*
D11*
X108200000Y-117550000D03*
X108200000Y-119050000D03*
X92302200Y-78552200D03*
X92302200Y-80052200D03*
X81702200Y-77352200D03*
X81702200Y-78852200D03*
X92402200Y-82402200D03*
X92402200Y-83902200D03*
X81702200Y-81302200D03*
X81702200Y-82802200D03*
X84500000Y-98850000D03*
X84500000Y-97350000D03*
X86100000Y-98850000D03*
X86100000Y-97350000D03*
X78800000Y-98850000D03*
X78800000Y-97350000D03*
X77200000Y-98850000D03*
X77200000Y-97350000D03*
D14*
X32650000Y-130550000D03*
X34150000Y-130550000D03*
D11*
X45400000Y-128900000D03*
X45400000Y-130400000D03*
X25300000Y-131900000D03*
X25300000Y-133400000D03*
X31400000Y-107350000D03*
X31400000Y-108850000D03*
X33000000Y-107350000D03*
X33000000Y-108850000D03*
X47400000Y-107350000D03*
X47400000Y-108850000D03*
X49000000Y-107350000D03*
X49000000Y-108850000D03*
X50700000Y-107350000D03*
X50700000Y-108850000D03*
X72100000Y-98850000D03*
X72100000Y-97350000D03*
X70500000Y-97350000D03*
X70500000Y-98850000D03*
D14*
X99388500Y-66185000D03*
X97888500Y-66185000D03*
X31100000Y-52597000D03*
X32600000Y-52597000D03*
D11*
X101800000Y-76950000D03*
X101800000Y-75450000D03*
X104300000Y-75450000D03*
X104300000Y-76950000D03*
D14*
X91261000Y-55950000D03*
X89761000Y-55950000D03*
X86000000Y-58200000D03*
X87500000Y-58200000D03*
X99350000Y-58166000D03*
X100850000Y-58166000D03*
D11*
X103300000Y-48450000D03*
X103300000Y-49950000D03*
X101600000Y-49950000D03*
X101600000Y-48450000D03*
X82500000Y-49950000D03*
X82500000Y-48450000D03*
X84146000Y-48450000D03*
X84146000Y-49950000D03*
X72286000Y-49240500D03*
X72286000Y-50740500D03*
X60900000Y-50740500D03*
X60900000Y-49240500D03*
D14*
X56100000Y-52597000D03*
X57600000Y-52597000D03*
D11*
X46400000Y-49250000D03*
X46400000Y-50750000D03*
X35400000Y-50750000D03*
X35400000Y-49250000D03*
X33170000Y-67893500D03*
X33170000Y-66393500D03*
X59078000Y-67893500D03*
X59078000Y-66393500D03*
D14*
X89379602Y-68344000D03*
X90879602Y-68344000D03*
X90879602Y-66185000D03*
X89379602Y-66185000D03*
X97888500Y-68344000D03*
X99388500Y-68344000D03*
D11*
X98100000Y-85350000D03*
X98100000Y-86850000D03*
X96300000Y-86850000D03*
X96300000Y-85350000D03*
D14*
X57750000Y-101000000D03*
X59250000Y-101000000D03*
X59247560Y-104200000D03*
X57747560Y-104200000D03*
X49393398Y-99135000D03*
X50893398Y-99135000D03*
D11*
X49422000Y-95654398D03*
X49422000Y-97154398D03*
D14*
X47210602Y-99135000D03*
X45710602Y-99135000D03*
D11*
X47286000Y-95654398D03*
X47286000Y-97154398D03*
X45854000Y-85494398D03*
X45854000Y-86994398D03*
D14*
X45167500Y-83514000D03*
X46667500Y-83514000D03*
D11*
X73400000Y-84350000D03*
X73400000Y-85850000D03*
D14*
X26514500Y-83514000D03*
X28014500Y-83514000D03*
D11*
X27328000Y-85494398D03*
X27328000Y-86994398D03*
D14*
X30935500Y-99135000D03*
X29435500Y-99135000D03*
D11*
X31011000Y-95654398D03*
X31011000Y-97154398D03*
X33043000Y-95654398D03*
X33043000Y-97154398D03*
D14*
X33118500Y-99135000D03*
X34618500Y-99135000D03*
D11*
X76600000Y-78850000D03*
X76600000Y-77350000D03*
X73400000Y-77350000D03*
X73400000Y-78850000D03*
X75000000Y-77350000D03*
X75000000Y-78850000D03*
X68600000Y-85850000D03*
X68600000Y-84350000D03*
D14*
X82550000Y-135400000D03*
X84050000Y-135400000D03*
X97850000Y-54600000D03*
X99350000Y-54600000D03*
D11*
X43100000Y-166650000D03*
X43100000Y-168150000D03*
D14*
X41800000Y-179000000D03*
X40300000Y-179000000D03*
X40300000Y-177400000D03*
X41800000Y-177400000D03*
X41800000Y-175800000D03*
X40300000Y-175800000D03*
X99050000Y-103700000D03*
X100550000Y-103700000D03*
D11*
X108200000Y-104350000D03*
X108200000Y-105850000D03*
X109800000Y-105850000D03*
X109800000Y-104350000D03*
X111400000Y-104350000D03*
X111400000Y-105850000D03*
D14*
X28550000Y-179000000D03*
X27050000Y-179000000D03*
X27050000Y-177400000D03*
X28550000Y-177400000D03*
X28550000Y-175800000D03*
X27050000Y-175800000D03*
D11*
X29200000Y-166650000D03*
X29200000Y-168150000D03*
D14*
X99050000Y-129900000D03*
X100550000Y-129900000D03*
D11*
X111400000Y-130550000D03*
X111400000Y-132050000D03*
X108200000Y-130550000D03*
X108200000Y-132050000D03*
X109800000Y-132050000D03*
X109800000Y-130550000D03*
X57600000Y-169650000D03*
X57600000Y-168150000D03*
D15*
X91300000Y-119600000D03*
X91300000Y-121600000D03*
D45*
X47650000Y-113325000D03*
X47650000Y-114875000D03*
X48750000Y-113325000D03*
X48750000Y-114875000D03*
X47650000Y-110425000D03*
X47650000Y-111975000D03*
X48750000Y-110425000D03*
X48750000Y-111975000D03*
X31650000Y-113325000D03*
X31650000Y-114875000D03*
X32750000Y-113325000D03*
X32750000Y-114875000D03*
X31650000Y-110425000D03*
X31650000Y-111975000D03*
X32750000Y-110425000D03*
X32750000Y-111975000D03*
D46*
X75600000Y-169400000D03*
X75600000Y-168600000D03*
X75600000Y-167800000D03*
X75600000Y-167000000D03*
X75600000Y-166200000D03*
X75600000Y-165400000D03*
X75600000Y-164600000D03*
X75600000Y-163800000D03*
X75600000Y-163000000D03*
X75600000Y-162200000D03*
X75600000Y-161400000D03*
X74800000Y-169400000D03*
X74800000Y-168600000D03*
X74800000Y-167800000D03*
X74800000Y-167000000D03*
X74800000Y-166200000D03*
X74800000Y-165400000D03*
X74800000Y-164600000D03*
X74800000Y-163800000D03*
X74800000Y-163000000D03*
X74800000Y-162200000D03*
X74800000Y-161400000D03*
X74000000Y-169400000D03*
X74000000Y-168600000D03*
X74000000Y-167800000D03*
X74000000Y-167000000D03*
X74000000Y-166200000D03*
X74000000Y-165400000D03*
X74000000Y-164600000D03*
X74000000Y-163800000D03*
X74000000Y-163000000D03*
X74000000Y-162200000D03*
X74000000Y-161400000D03*
X73200000Y-169400000D03*
X73200000Y-168600000D03*
X73200000Y-167800000D03*
X73200000Y-167000000D03*
X73200000Y-166200000D03*
X73200000Y-165400000D03*
X73200000Y-164600000D03*
X73200000Y-163800000D03*
X73200000Y-163000000D03*
X73200000Y-162200000D03*
X73200000Y-161400000D03*
X72400000Y-169400000D03*
X72400000Y-168600000D03*
X72400000Y-167800000D03*
X72400000Y-167000000D03*
X72400000Y-166200000D03*
X72400000Y-165400000D03*
X72400000Y-164600000D03*
X72400000Y-163800000D03*
X72400000Y-163000000D03*
X72400000Y-162200000D03*
X72400000Y-161400000D03*
X71600000Y-169400000D03*
X71600000Y-168600000D03*
X71600000Y-167800000D03*
X71600000Y-167000000D03*
X71600000Y-166200000D03*
X71600000Y-165400000D03*
X71600000Y-164600000D03*
X71600000Y-163800000D03*
X71600000Y-163000000D03*
X71600000Y-162200000D03*
X71600000Y-161400000D03*
X70800000Y-169400000D03*
X70800000Y-168600000D03*
X70800000Y-167800000D03*
X70800000Y-167000000D03*
X70800000Y-166200000D03*
X70800000Y-165400000D03*
X70800000Y-164600000D03*
X70800000Y-163800000D03*
X70800000Y-163000000D03*
X70800000Y-162200000D03*
X70800000Y-161400000D03*
X70000000Y-169400000D03*
X70000000Y-168600000D03*
X70000000Y-167800000D03*
X70000000Y-167000000D03*
X70000000Y-166200000D03*
X70000000Y-165400000D03*
X70000000Y-164600000D03*
X70000000Y-163800000D03*
X70000000Y-163000000D03*
X70000000Y-162200000D03*
X70000000Y-161400000D03*
X69200000Y-169400000D03*
X69200000Y-168600000D03*
X69200000Y-167800000D03*
X69200000Y-167000000D03*
X69200000Y-166200000D03*
X69200000Y-165400000D03*
X69200000Y-164600000D03*
X69200000Y-163800000D03*
X69200000Y-163000000D03*
X69200000Y-162200000D03*
X69200000Y-161400000D03*
X68400000Y-169400000D03*
X68400000Y-168600000D03*
X68400000Y-167800000D03*
X68400000Y-167000000D03*
X68400000Y-166200000D03*
X68400000Y-165400000D03*
X68400000Y-164600000D03*
X68400000Y-163800000D03*
X68400000Y-163000000D03*
X68400000Y-162200000D03*
X68400000Y-161400000D03*
X67600000Y-169400000D03*
X67600000Y-168600000D03*
X67600000Y-167800000D03*
X67600000Y-167000000D03*
X67600000Y-166200000D03*
X67600000Y-165400000D03*
X67600000Y-164600000D03*
X67600000Y-163800000D03*
X67600000Y-163000000D03*
X67600000Y-162200000D03*
X67600000Y-161400000D03*
D13*
X42300000Y-125300000D03*
X41300000Y-125300000D03*
D11*
X28750000Y-134750000D03*
X28750000Y-136250000D03*
D12*
X41200000Y-122850000D03*
X41200000Y-123750000D03*
X42400000Y-122850000D03*
X42400000Y-123750000D03*
X72900000Y-174850000D03*
X72900000Y-175750000D03*
X71700000Y-174850000D03*
X71700000Y-175750000D03*
D23*
X31500000Y-141950000D03*
X31500000Y-140950000D03*
D12*
X33100000Y-139100000D03*
X33100000Y-140000000D03*
D47*
X32075000Y-133425000D03*
X32075000Y-137575000D03*
X32725000Y-133425000D03*
X32725000Y-137575000D03*
X33375000Y-133425000D03*
X33375000Y-137575000D03*
X34025000Y-133425000D03*
X34025000Y-137575000D03*
X34675000Y-133425000D03*
X34675000Y-137575000D03*
X35325000Y-133425000D03*
X35325000Y-137575000D03*
D29*
X84950000Y-132250000D03*
X84950000Y-128950000D03*
X89551064Y-108252574D03*
X89551064Y-104952574D03*
D15*
X87600000Y-131600000D03*
X87600000Y-129600000D03*
D23*
X45400000Y-153500000D03*
X45400000Y-152500000D03*
X43300000Y-150100000D03*
X43300000Y-151100000D03*
X43300000Y-155900000D03*
X43300000Y-154900000D03*
D11*
X25050000Y-93050000D03*
X25050000Y-91550000D03*
X39400000Y-97400000D03*
X39400000Y-95900000D03*
D14*
X57750000Y-109000000D03*
X59250000Y-109000000D03*
X59250000Y-107400000D03*
X57750000Y-107400000D03*
D48*
X71900000Y-57537500D03*
X71900000Y-53862500D03*
X46000000Y-57537500D03*
X46000000Y-53862500D03*
D49*
X68062500Y-45500000D03*
X71737500Y-45500000D03*
X44162500Y-45500000D03*
X47837500Y-45500000D03*
D12*
X44700000Y-104700000D03*
X44700000Y-103800000D03*
X51600000Y-104700000D03*
X51600000Y-103800000D03*
D50*
X25200000Y-137900000D03*
X26100000Y-137900000D03*
D12*
X30300000Y-135050000D03*
X30300000Y-135950000D03*
X28400000Y-104700000D03*
X28400000Y-103800000D03*
X35750000Y-104700000D03*
X35750000Y-103800000D03*
D14*
X64350000Y-94100000D03*
X62850000Y-94100000D03*
D11*
X58400000Y-97750000D03*
X58400000Y-96250000D03*
D51*
X26000000Y-98000000D03*
X26950000Y-95300000D03*
X26000000Y-95300000D03*
X25050000Y-95300000D03*
X25050000Y-98000000D03*
X26950000Y-98000000D03*
X42500000Y-98000000D03*
X43450000Y-95300000D03*
X42500000Y-95300000D03*
X41550000Y-95300000D03*
X41550000Y-98000000D03*
X43450000Y-98000000D03*
D21*
X64950000Y-97000000D03*
X62250000Y-96050000D03*
X62250000Y-97000000D03*
X62250000Y-97950000D03*
X64950000Y-97950000D03*
X64950000Y-96050000D03*
D14*
X70050000Y-94100000D03*
X71550000Y-94100000D03*
D50*
X76650000Y-111800000D03*
X77550000Y-111800000D03*
D11*
X57250000Y-82450000D03*
X57250000Y-83950000D03*
D14*
X61450000Y-92300000D03*
X59950000Y-92300000D03*
X63150000Y-82500000D03*
X61650000Y-82500000D03*
D21*
X110950000Y-87200000D03*
X108250000Y-86250000D03*
X108250000Y-87200000D03*
X108250000Y-88150000D03*
X110950000Y-88150000D03*
X110950000Y-86250000D03*
D52*
X99200000Y-126100000D03*
X95600000Y-126100000D03*
D53*
X33000000Y-167300000D03*
X33000000Y-163700000D03*
D52*
X99200000Y-99900000D03*
X95600000Y-99900000D03*
D53*
X46900000Y-167300000D03*
X46900000Y-163700000D03*
D52*
X99200000Y-113100000D03*
X95600000Y-113100000D03*
D54*
X77978000Y-64365000D03*
X77978000Y-61365000D03*
X80772000Y-64365000D03*
X80772000Y-61365000D03*
X46350000Y-180650000D03*
X46350000Y-183650000D03*
D11*
X96500000Y-172750000D03*
X96500000Y-174250000D03*
X42200000Y-187950000D03*
X42200000Y-186450000D03*
X111500000Y-127199998D03*
X111500000Y-128699998D03*
D14*
X31850000Y-178900000D03*
X30350000Y-178900000D03*
D18*
X48200000Y-188200000D03*
X48200000Y-186000000D03*
X65600000Y-188100000D03*
X65600000Y-185900000D03*
D55*
X108500000Y-46350000D03*
X107850000Y-44450000D03*
X109150000Y-44450000D03*
X83500000Y-46350000D03*
X82850000Y-44450000D03*
X84150000Y-44450000D03*
D56*
X68400000Y-130674998D03*
X68400000Y-128724998D03*
X67600000Y-130674998D03*
X67600000Y-128724998D03*
X66800000Y-130674998D03*
X66800000Y-128724998D03*
X66000000Y-130674998D03*
X66000000Y-128724998D03*
X72000000Y-130674998D03*
X72000000Y-128724998D03*
X71200000Y-130674998D03*
X71200000Y-128724998D03*
X70400000Y-130674998D03*
X70400000Y-128724998D03*
X69600000Y-130674998D03*
X69600000Y-128724998D03*
X75600000Y-130674998D03*
X75600000Y-128724998D03*
X74800000Y-130674998D03*
X74800000Y-128724998D03*
X74000000Y-130674998D03*
X74000000Y-128724998D03*
X73200000Y-130674998D03*
X73200000Y-128724998D03*
D11*
X75700000Y-135750000D03*
X75700000Y-134250000D03*
X77700000Y-135750000D03*
X77700000Y-134250000D03*
D18*
X48900000Y-173650000D03*
X48900000Y-171450000D03*
D11*
X58300000Y-127100000D03*
X58300000Y-128600000D03*
X44400000Y-126100000D03*
X44400000Y-124600000D03*
X43800000Y-128900000D03*
X43800000Y-130400000D03*
X28000000Y-129450000D03*
X28000000Y-127950000D03*
X41800000Y-116500000D03*
X41800000Y-118000000D03*
D57*
X36200000Y-120100000D03*
X35700000Y-120100000D03*
X35200000Y-120100000D03*
X34700000Y-120100000D03*
X34200000Y-120100000D03*
X33700000Y-120100000D03*
X33200000Y-120100000D03*
X32700000Y-120100000D03*
X32200000Y-120100000D03*
X31700000Y-120100000D03*
X31200000Y-120100000D03*
X30700000Y-120100000D03*
D58*
X30000000Y-120800000D03*
X30000000Y-121300000D03*
X30000000Y-121800000D03*
X30000000Y-122300000D03*
X30000000Y-122800000D03*
X30000000Y-123300000D03*
X30000000Y-123800000D03*
X30000000Y-124300000D03*
X30000000Y-124800000D03*
X30000000Y-125300000D03*
X30000000Y-125800000D03*
X30000000Y-126300000D03*
D57*
X30700000Y-127000000D03*
X31200000Y-127000000D03*
X31700000Y-127000000D03*
X32200000Y-127000000D03*
X32700000Y-127000000D03*
X33200000Y-127000000D03*
X33700000Y-127000000D03*
X34200000Y-127000000D03*
X34700000Y-127000000D03*
X35200000Y-127000000D03*
X35700000Y-127000000D03*
X36200000Y-127000000D03*
D58*
X36900000Y-126300000D03*
X36900000Y-125800000D03*
X36900000Y-125300000D03*
X36900000Y-124800000D03*
X36900000Y-124300000D03*
X36900000Y-123800000D03*
X36900000Y-123300000D03*
X36900000Y-122800000D03*
X36900000Y-122300000D03*
X36900000Y-121800000D03*
X36900000Y-121300000D03*
X36900000Y-120800000D03*
D59*
X31670000Y-121770000D03*
X35230000Y-123550000D03*
X33450000Y-121770000D03*
X33450000Y-123550000D03*
X35230000Y-121770000D03*
X33450000Y-125330000D03*
X35230000Y-125330000D03*
X31670000Y-125330000D03*
X31670000Y-123550000D03*
D57*
X52500000Y-120100000D03*
X52000000Y-120100000D03*
X51500000Y-120100000D03*
X51000000Y-120100000D03*
X50500000Y-120100000D03*
X50000000Y-120100000D03*
X49500000Y-120100000D03*
X49000000Y-120100000D03*
X48500000Y-120100000D03*
X48000000Y-120100000D03*
X47500000Y-120100000D03*
X47000000Y-120100000D03*
D58*
X46300000Y-120800000D03*
X46300000Y-121300000D03*
X46300000Y-121800000D03*
X46300000Y-122300000D03*
X46300000Y-122800000D03*
X46300000Y-123300000D03*
X46300000Y-123800000D03*
X46300000Y-124300000D03*
X46300000Y-124800000D03*
X46300000Y-125300000D03*
X46300000Y-125800000D03*
X46300000Y-126300000D03*
D57*
X47000000Y-127000000D03*
X47500000Y-127000000D03*
X48000000Y-127000000D03*
X48500000Y-127000000D03*
X49000000Y-127000000D03*
X49500000Y-127000000D03*
X50000000Y-127000000D03*
X50500000Y-127000000D03*
X51000000Y-127000000D03*
X51500000Y-127000000D03*
X52000000Y-127000000D03*
X52500000Y-127000000D03*
D58*
X53200000Y-126300000D03*
X53200000Y-125800000D03*
X53200000Y-125300000D03*
X53200000Y-124800000D03*
X53200000Y-124300000D03*
X53200000Y-123800000D03*
X53200000Y-123300000D03*
X53200000Y-122800000D03*
X53200000Y-122300000D03*
X53200000Y-121800000D03*
X53200000Y-121300000D03*
X53200000Y-120800000D03*
D59*
X47970000Y-121770000D03*
X51530000Y-123550000D03*
X49750000Y-121770000D03*
X49750000Y-123550000D03*
X51530000Y-121770000D03*
X49750000Y-125330000D03*
X51530000Y-125330000D03*
X47970000Y-125330000D03*
X47970000Y-123550000D03*
D11*
X81250000Y-180000000D03*
X81250000Y-181500000D03*
D35*
X30872000Y-84570665D03*
X30872000Y-87310665D03*
X30372000Y-87310665D03*
X30372000Y-84570665D03*
X29872000Y-84570665D03*
X29872000Y-87310665D03*
X29372000Y-87310665D03*
X29372000Y-84570665D03*
D37*
X30122000Y-85940665D03*
D34*
X30707800Y-102175899D03*
D35*
X32827800Y-101555899D03*
X32827800Y-104295899D03*
X32327800Y-104295899D03*
X32327800Y-101555899D03*
X31827800Y-101555899D03*
X31827800Y-104295899D03*
X31327800Y-104295899D03*
X31327800Y-101555899D03*
D36*
X32077800Y-102925899D03*
D34*
X33447800Y-102175899D03*
X33447800Y-102675899D03*
X30707800Y-102675899D03*
X30707800Y-103175899D03*
X33447800Y-103175899D03*
X33447800Y-103675899D03*
X30707800Y-103675899D03*
D22*
X70800000Y-151400000D03*
X70800000Y-150400000D03*
X70800000Y-149400000D03*
X70800000Y-148400000D03*
X70800000Y-147400000D03*
X70800000Y-146400000D03*
X70800000Y-145400000D03*
X70800000Y-144400000D03*
X70800000Y-143400000D03*
X70800000Y-142400000D03*
X70800000Y-141400000D03*
X70800000Y-140400000D03*
X70800000Y-139400000D03*
X70800000Y-138400000D03*
X70800000Y-137400000D03*
X70800000Y-136400000D03*
X69800000Y-151400000D03*
X69800000Y-150400000D03*
X69800000Y-149400000D03*
X69800000Y-148400000D03*
X69800000Y-147400000D03*
X69800000Y-146400000D03*
X69800000Y-145400000D03*
X69800000Y-144400000D03*
X69800000Y-143400000D03*
X69800000Y-142400000D03*
X69800000Y-141400000D03*
X69800000Y-140400000D03*
X69800000Y-139400000D03*
X69800000Y-138400000D03*
X69800000Y-137400000D03*
X69800000Y-136400000D03*
X68800000Y-151400000D03*
X68800000Y-150400000D03*
X68800000Y-149400000D03*
X68800000Y-148400000D03*
X68800000Y-147400000D03*
X68800000Y-146400000D03*
X68800000Y-145400000D03*
X68800000Y-144400000D03*
X68800000Y-143400000D03*
X68800000Y-142400000D03*
X68800000Y-141400000D03*
X68800000Y-140400000D03*
X68800000Y-139400000D03*
X68800000Y-138400000D03*
X68800000Y-137400000D03*
X68800000Y-136400000D03*
X67800000Y-151400000D03*
X67800000Y-150400000D03*
X67800000Y-149400000D03*
X67800000Y-148400000D03*
X67800000Y-147400000D03*
X67800000Y-146400000D03*
X67800000Y-145400000D03*
X67800000Y-144400000D03*
X67800000Y-143400000D03*
X67800000Y-142400000D03*
X67800000Y-141400000D03*
X67800000Y-140400000D03*
X67800000Y-139400000D03*
X67800000Y-138400000D03*
X67800000Y-137400000D03*
X67800000Y-136400000D03*
X66800000Y-151400000D03*
X66800000Y-150400000D03*
X66800000Y-149400000D03*
X66800000Y-148400000D03*
X66800000Y-147400000D03*
X66800000Y-146400000D03*
X66800000Y-145400000D03*
X66800000Y-144400000D03*
X66800000Y-143400000D03*
X66800000Y-142400000D03*
X66800000Y-141400000D03*
X66800000Y-140400000D03*
X66800000Y-139400000D03*
X66800000Y-138400000D03*
X66800000Y-137400000D03*
X66800000Y-136400000D03*
X65800000Y-151400000D03*
X65800000Y-150400000D03*
X65800000Y-149400000D03*
X65800000Y-148400000D03*
X65800000Y-147400000D03*
X65800000Y-146400000D03*
X65800000Y-145400000D03*
X65800000Y-144400000D03*
X65800000Y-143400000D03*
X65800000Y-142400000D03*
X65800000Y-141400000D03*
X65800000Y-140400000D03*
X65800000Y-139400000D03*
X65800000Y-138400000D03*
X65800000Y-137400000D03*
X65800000Y-136400000D03*
X64800000Y-151400000D03*
X64800000Y-150400000D03*
X64800000Y-149400000D03*
X64800000Y-148400000D03*
X64800000Y-147400000D03*
X64800000Y-146400000D03*
X64800000Y-145400000D03*
X64800000Y-144400000D03*
X64800000Y-143400000D03*
X64800000Y-142400000D03*
X64800000Y-141400000D03*
X64800000Y-140400000D03*
X64800000Y-139400000D03*
X64800000Y-138400000D03*
X64800000Y-137400000D03*
X64800000Y-136400000D03*
X63800000Y-151400000D03*
X63800000Y-150400000D03*
X63800000Y-149400000D03*
X63800000Y-148400000D03*
X63800000Y-147400000D03*
X63800000Y-146400000D03*
X63800000Y-145400000D03*
X63800000Y-144400000D03*
X63800000Y-143400000D03*
X63800000Y-142400000D03*
X63800000Y-141400000D03*
X63800000Y-140400000D03*
X63800000Y-139400000D03*
X63800000Y-138400000D03*
X63800000Y-137400000D03*
X63800000Y-136400000D03*
X62800000Y-151400000D03*
X62800000Y-150400000D03*
X62800000Y-149400000D03*
X62800000Y-148400000D03*
X62800000Y-147400000D03*
X62800000Y-146400000D03*
X62800000Y-145400000D03*
X62800000Y-144400000D03*
X62800000Y-143400000D03*
X62800000Y-142400000D03*
X62800000Y-141400000D03*
X62800000Y-140400000D03*
X62800000Y-139400000D03*
X62800000Y-138400000D03*
X62800000Y-137400000D03*
X62800000Y-136400000D03*
X61800000Y-151400000D03*
X61800000Y-150400000D03*
X61800000Y-149400000D03*
X61800000Y-148400000D03*
X61800000Y-147400000D03*
X61800000Y-146400000D03*
X61800000Y-145400000D03*
X61800000Y-144400000D03*
X61800000Y-143400000D03*
X61800000Y-142400000D03*
X61800000Y-141400000D03*
X61800000Y-140400000D03*
X61800000Y-139400000D03*
X61800000Y-138400000D03*
X61800000Y-137400000D03*
X61800000Y-136400000D03*
X60800000Y-151400000D03*
X60800000Y-150400000D03*
X60800000Y-149400000D03*
X60800000Y-148400000D03*
X60800000Y-147400000D03*
X60800000Y-146400000D03*
X60800000Y-145400000D03*
X60800000Y-144400000D03*
X60800000Y-143400000D03*
X60800000Y-142400000D03*
X60800000Y-141400000D03*
X60800000Y-140400000D03*
X60800000Y-139400000D03*
X60800000Y-138400000D03*
X60800000Y-137400000D03*
X60800000Y-136400000D03*
X59800000Y-151400000D03*
X59800000Y-150400000D03*
X59800000Y-149400000D03*
X59800000Y-148400000D03*
X59800000Y-147400000D03*
X59800000Y-146400000D03*
X59800000Y-145400000D03*
X59800000Y-144400000D03*
X59800000Y-143400000D03*
X59800000Y-142400000D03*
X59800000Y-141400000D03*
X59800000Y-140400000D03*
X59800000Y-139400000D03*
X59800000Y-138400000D03*
X59800000Y-137400000D03*
X59800000Y-136400000D03*
X58800000Y-151400000D03*
X58800000Y-150400000D03*
X58800000Y-149400000D03*
X58800000Y-148400000D03*
X58800000Y-147400000D03*
X58800000Y-146400000D03*
X58800000Y-145400000D03*
X58800000Y-144400000D03*
X58800000Y-143400000D03*
X58800000Y-142400000D03*
X58800000Y-141400000D03*
X58800000Y-140400000D03*
X58800000Y-139400000D03*
X58800000Y-138400000D03*
X58800000Y-137400000D03*
X58800000Y-136400000D03*
X57800000Y-151400000D03*
X57800000Y-150400000D03*
X57800000Y-149400000D03*
X57800000Y-148400000D03*
X57800000Y-147400000D03*
X57800000Y-146400000D03*
X57800000Y-145400000D03*
X57800000Y-144400000D03*
X57800000Y-143400000D03*
X57800000Y-142400000D03*
X57800000Y-141400000D03*
X57800000Y-140400000D03*
X57800000Y-139400000D03*
X57800000Y-138400000D03*
X57800000Y-137400000D03*
X57800000Y-136400000D03*
X56800000Y-151400000D03*
X56800000Y-150400000D03*
X56800000Y-149400000D03*
X56800000Y-148400000D03*
X56800000Y-147400000D03*
X56800000Y-146400000D03*
X56800000Y-145400000D03*
X56800000Y-144400000D03*
X56800000Y-143400000D03*
X56800000Y-142400000D03*
X56800000Y-141400000D03*
X56800000Y-140400000D03*
X56800000Y-139400000D03*
X56800000Y-138400000D03*
X56800000Y-137400000D03*
X56800000Y-136400000D03*
X55800000Y-151400000D03*
X55800000Y-150400000D03*
X55800000Y-149400000D03*
X55800000Y-148400000D03*
X55800000Y-147400000D03*
X55800000Y-146400000D03*
X55800000Y-145400000D03*
X55800000Y-144400000D03*
X55800000Y-143400000D03*
X55800000Y-142400000D03*
X55800000Y-141400000D03*
X55800000Y-140400000D03*
X55800000Y-139400000D03*
X55800000Y-138400000D03*
X55800000Y-137400000D03*
X55800000Y-136400000D03*
D60*
X26525000Y-140900000D03*
D61*
X24675000Y-142190000D03*
X24675000Y-139610000D03*
X26525000Y-139610000D03*
X26525000Y-142190000D03*
D60*
X24675000Y-140900000D03*
D62*
X60495000Y-84885000D03*
X60495000Y-89815000D03*
X61765000Y-84885000D03*
X61765000Y-89815000D03*
X63035000Y-84885000D03*
X63035000Y-89815000D03*
X64305000Y-84885000D03*
X64305000Y-89815000D03*
X30805000Y-80065000D03*
X30805000Y-75135000D03*
X29535000Y-80065000D03*
X29535000Y-75135000D03*
X28265000Y-80065000D03*
X28265000Y-75135000D03*
X26995000Y-80065000D03*
X26995000Y-75135000D03*
X49305000Y-80065000D03*
X49305000Y-75135000D03*
X48035000Y-80065000D03*
X48035000Y-75135000D03*
X46765000Y-80065000D03*
X46765000Y-75135000D03*
X45495000Y-80065000D03*
X45495000Y-75135000D03*
D63*
X39065000Y-182495000D03*
X34135000Y-182495000D03*
X39065000Y-183765000D03*
X34135000Y-183765000D03*
X39065000Y-185035000D03*
X34135000Y-185035000D03*
X39065000Y-186305000D03*
X34135000Y-186305000D03*
D62*
X51295000Y-164435000D03*
X51295000Y-169365000D03*
X52565000Y-164435000D03*
X52565000Y-169365000D03*
X53835000Y-164435000D03*
X53835000Y-169365000D03*
X55105000Y-164435000D03*
X55105000Y-169365000D03*
D64*
X101702948Y-153659189D03*
X101702948Y-146159189D03*
X101202948Y-153659189D03*
X101202948Y-146159189D03*
X100702948Y-153659189D03*
X100702948Y-146159189D03*
X100202948Y-153659189D03*
X100202948Y-146159189D03*
X99702948Y-153659189D03*
X99702948Y-146159189D03*
X99202948Y-153659189D03*
X99202948Y-146159189D03*
X98702948Y-153659189D03*
X98702948Y-146159189D03*
X98202948Y-153659189D03*
X98202948Y-146159189D03*
X97702948Y-153659189D03*
X97702948Y-146159189D03*
X97202948Y-153659189D03*
X97202948Y-146159189D03*
X96702948Y-153659189D03*
X96702948Y-146159189D03*
X96202948Y-153659189D03*
X96202948Y-146159189D03*
X95702948Y-153659189D03*
X95702948Y-146159189D03*
X95202948Y-153659189D03*
X95202948Y-146159189D03*
X94702948Y-153659189D03*
X94702948Y-146159189D03*
X94202948Y-153659189D03*
X94202948Y-146159189D03*
X93702948Y-153659189D03*
X93702948Y-146159189D03*
X93202948Y-153659189D03*
X93202948Y-146159189D03*
X92702948Y-153659189D03*
X92702948Y-146159189D03*
X92202948Y-153659189D03*
X92202948Y-146159189D03*
X91702948Y-153659189D03*
X91702948Y-146159189D03*
X91202948Y-153659189D03*
X91202948Y-146159189D03*
X90702948Y-153659189D03*
X90702948Y-146159189D03*
X90202948Y-153659189D03*
X90202948Y-146159189D03*
D41*
X79100000Y-181500000D03*
X79100000Y-179700000D03*
X78450000Y-179700000D03*
X77800000Y-181500000D03*
X77800000Y-179700000D03*
D65*
X102829116Y-88123000D03*
X102829116Y-87173000D03*
X102829116Y-86223000D03*
X100629116Y-86223000D03*
X100629116Y-88123000D03*
X111847116Y-142837000D03*
X111847116Y-141887000D03*
X111847116Y-140937000D03*
X109647116Y-140937000D03*
X109647116Y-142837000D03*
X110850000Y-78200000D03*
X110850000Y-77250000D03*
X110850000Y-76300000D03*
X108650000Y-76300000D03*
X108650000Y-78200000D03*
D11*
X101150000Y-175650000D03*
X101150000Y-174150000D03*
X87100000Y-175650000D03*
X87100000Y-174150000D03*
X98500000Y-175650000D03*
X98500000Y-174150000D03*
X88950000Y-175650000D03*
X88950000Y-174150000D03*
X104550000Y-175650000D03*
X104550000Y-174150000D03*
X90700000Y-175650000D03*
X90700000Y-174150000D03*
X102850000Y-175650000D03*
X102850000Y-174150000D03*
X94550000Y-175650000D03*
X94550000Y-174150000D03*
X107950000Y-175650000D03*
X107950000Y-174150000D03*
X92750000Y-175650000D03*
X92750000Y-174150000D03*
X106250000Y-175650000D03*
X106250000Y-174150000D03*
X86100000Y-171000000D03*
X86100000Y-172500000D03*
X89750000Y-171000000D03*
X89750000Y-172500000D03*
X93650000Y-171000000D03*
X93650000Y-172500000D03*
X101150000Y-171000000D03*
X101150000Y-172500000D03*
X105100000Y-171000000D03*
X105100000Y-172500000D03*
X109150000Y-171000000D03*
X109150000Y-172500000D03*
X87500000Y-166900000D03*
X87500000Y-168400000D03*
X91500000Y-166900000D03*
X91500000Y-168400000D03*
X95500000Y-166900000D03*
X95500000Y-168400000D03*
X99500000Y-166900000D03*
X99500000Y-168400000D03*
X103500000Y-166900000D03*
X103500000Y-168400000D03*
X107500000Y-166900000D03*
X107500000Y-168400000D03*
X103750000Y-82050000D03*
X103750000Y-80550000D03*
X95750000Y-92050000D03*
X95750000Y-90550000D03*
X105900000Y-82050000D03*
X105900000Y-80550000D03*
X98000000Y-92050000D03*
X98000000Y-90550000D03*
D66*
X43900000Y-32400000D03*
X46100000Y-32400000D03*
X93900000Y-32400000D03*
X96100000Y-32400000D03*
X80320000Y-187400000D03*
X78120000Y-187400000D03*
D67*
X105100000Y-116100000D03*
X105600000Y-116100000D03*
X106100000Y-116100000D03*
X105100000Y-115600000D03*
X105600000Y-115600000D03*
X106100000Y-115600000D03*
X105100000Y-115100000D03*
X105600000Y-115100000D03*
X106100000Y-115100000D03*
X43900000Y-172700000D03*
X43900000Y-173200000D03*
X43900000Y-173700000D03*
X44400000Y-172700000D03*
X44400000Y-173200000D03*
X44400000Y-173700000D03*
X44900000Y-172700000D03*
X44900000Y-173200000D03*
X44900000Y-173700000D03*
X105100000Y-102900000D03*
X105600000Y-102900000D03*
X106100000Y-102900000D03*
X105100000Y-102400000D03*
X105600000Y-102400000D03*
X106100000Y-102400000D03*
X105100000Y-101900000D03*
X105600000Y-101900000D03*
X106100000Y-101900000D03*
X30000000Y-172700000D03*
X30000000Y-173200000D03*
X30000000Y-173700000D03*
X30500000Y-172700000D03*
X30500000Y-173200000D03*
X30500000Y-173700000D03*
X31000000Y-172700000D03*
X31000000Y-173200000D03*
X31000000Y-173700000D03*
X105100000Y-129100000D03*
X105600000Y-129100000D03*
X106100000Y-129100000D03*
X105100000Y-128600000D03*
X105600000Y-128600000D03*
X106100000Y-128600000D03*
X105100000Y-128100000D03*
X105600000Y-128100000D03*
X106100000Y-128100000D03*
M02*
