M48
;DRILL file {KiCad 4.0.7} date 11/21/19 20:47:43
;FORMAT={-:-/ absolute / inch / decimal}
FMAT,2
INCH,TZ
T1C0.008
T2C0.010
T3C0.012
T4C0.024
T5C0.028
T6C0.036
T7C0.038
T8C0.039
T9C0.046
T10C0.050
T11C0.071
T12C0.075
T13C0.091
T14C0.126
%
G90
G05
M72
T1
X0.9843Y-6.0236
X1.0157Y-5.9449
X1.0157Y-5.998
X1.063Y-6.3031
X1.0984Y-6.0118
X1.1024Y-6.1614
X1.1063Y-5.8622
X1.1181Y-6.0591
X1.1181Y-6.122
X1.1339Y-5.8622
X1.1339Y-6.1614
X1.1496Y-5.9646
X1.1496Y-6.0591
X1.1654Y-5.8622
X1.1654Y-6.1614
X1.1811Y-5.9331
X1.1811Y-5.9646
X1.1811Y-6.0591
X1.1969Y-5.8622
X1.1969Y-6.1614
X1.1969Y-6.1929
X1.2069Y-5.0984
X1.2126Y-6.0157
X1.2283Y-5.8622
X1.2283Y-6.1614
X1.2302Y-5.0984
X1.2441Y-5.9646
X1.2441Y-6.0906
X1.2598Y-5.8622
X1.2598Y-6.1614
X1.2614Y-5.083
X1.2756Y-5.9331
X1.2756Y-6.122
X1.2779Y-5.0666
X1.2835Y-6.2402
X1.2874Y-6.1614
X1.2913Y-5.8622
X1.3071Y-5.9646
X1.3071Y-6.0591
X1.3071Y-6.122
X1.3346Y-6.2402
X1.3386Y-5.9016
X1.3386Y-5.9331
X1.3701Y-6.0906
X1.3701Y-6.122
X1.3855Y-5.8622
X1.3858Y-6.1614
X1.4016Y-5.9016
X1.4016Y-6.0906
X1.4016Y-6.122
X1.4062Y-5.0945
X1.4062Y-5.1178
X1.4173Y-5.8622
X1.4173Y-6.1614
X1.4331Y-5.7874
X1.4331Y-5.9331
X1.4331Y-6.0906
X1.4488Y-5.8622
X1.4488Y-6.1614
X1.4646Y-5.9331
X1.4685Y-6.0551
X1.4791Y-5.0445
X1.4791Y-5.0678
X1.4803Y-6.1614
X1.4882Y-5.7874
X1.4961Y-5.9016
X1.4961Y-5.9331
X1.4961Y-6.0906
X1.4961Y-6.122
X1.5Y-6.0551
X1.5039Y-5.8622
X1.5118Y-6.1614
X1.5213Y-5.4551
X1.5276Y-5.8701
X1.5276Y-5.9016
X1.5276Y-5.9331
X1.5276Y-6.0906
X1.5276Y-6.122
X1.5378Y-5.4386
X1.5409Y-4.9076
X1.5409Y-4.9309
X1.5433Y-6.1614
X1.5591Y-5.8701
X1.5591Y-6.122
X1.563Y-5.9685
X1.5748Y-6.1614
X1.5906Y-5.8701
X1.5906Y-5.9016
X1.5906Y-5.9646
X1.5906Y-6.122
X1.6063Y-6.1614
X1.622Y-5.8701
X1.622Y-5.9646
X1.6299Y-5.9331
X1.6299Y-6.0748
X1.6299Y-6.1063
X1.6614Y-5.9016
X1.739Y-6.1065
X1.739Y-6.1298
X1.7441Y-5.9175
X1.7441Y-5.9408
X1.8228Y-5.9724
X1.8228Y-6.1496
X1.8268Y-6.0551
X1.8465Y-6.012
X1.8465Y-6.0353
X1.8486Y-5.0984
X1.8719Y-5.0984
X1.874Y-6.1378
X1.8858Y-5.6417
X1.8858Y-5.6732
X1.8858Y-5.7047
X1.8858Y-5.9803
X1.8858Y-6.0866
X1.8858Y-6.1929
X1.8858Y-6.2244
X1.9032Y-5.083
X1.9197Y-5.0666
X1.9844Y-5.2627
X2.0077Y-5.2627
X2.0123Y-6.7657
X2.035Y-6.7657
X2.0354Y-5.7795
X2.0354Y-5.811
X2.0354Y-5.8425
X2.0354Y-5.874
X2.0354Y-5.9173
X2.0354Y-5.9488
X2.0394Y-5.7244
X2.0533Y-5.0968
X2.0533Y-5.1201
X2.0787Y-5.3604
X2.0787Y-5.3837
X2.1209Y-5.0445
X2.1209Y-5.0678
X2.122Y-5.6457
X2.122Y-5.8228
X2.1476Y-5.4175
X2.1476Y-5.4408
X2.1512Y-5.5158
X2.1654Y-6.248
X2.1654Y-6.2874
X2.1677Y-5.5323
X2.1693Y-5.8425
X2.1732Y-5.685
X2.1732Y-5.7244
X2.1827Y-4.9076
X2.1827Y-4.9309
X2.1931Y-5.3228
X2.2087Y-6.1929
X2.2087Y-6.2244
X2.2087Y-6.2559
X2.2164Y-5.3228
X2.2165Y-5.626
X2.2165Y-5.7836
X2.2165Y-5.8228
X2.2382Y-4.3939
X2.2382Y-4.4172
X2.2559Y-5.4291
X2.2559Y-5.4685
X2.2559Y-5.5079
X2.2559Y-5.5472
X2.2559Y-5.626
X2.2559Y-5.7441
X2.2559Y-5.7835
X2.2559Y-5.8622
X2.2953Y-5.7835
X2.2953Y-5.8228
X2.2953Y-5.8622
X2.3072Y-5.3228
X2.3306Y-5.3228
X2.3346Y-5.6654
X2.3346Y-5.7047
X2.3346Y-5.7441
X2.3346Y-5.7835
X2.374Y-5.8228
X2.374Y-5.8622
X2.4055Y-6.0717
X2.4055Y-6.095
X2.4134Y-5.3228
X2.4134Y-5.4291
X2.4134Y-5.8228
X2.4134Y-5.8622
X2.4134Y-5.9016
X2.4268Y-5.1145
X2.4433Y-5.0981
X2.4528Y-5.3228
X2.4528Y-5.4291
X2.4528Y-5.8228
X2.4528Y-5.9016
X2.4921Y-5.8622
X2.4921Y-6.1024
X2.4921Y-6.1378
X2.5789Y-5.3228
X2.6022Y-5.3228
X2.6376Y-6.4486
X2.6378Y-6.4803
X2.6378Y-6.5124
X2.6378Y-6.6063
X2.6457Y-6.4016
X2.6614Y-6.3287
X2.6772Y-6.4016
X2.6772Y-6.6535
X2.7028Y-7.0064
X2.7028Y-7.0291
X2.7087Y-6.4016
X2.7087Y-6.4646
X2.7087Y-6.4961
X2.7087Y-6.5276
X2.7087Y-6.6535
X2.7244Y-6.3287
X2.7402Y-6.4016
X2.7402Y-6.4331
X2.7402Y-6.4961
X2.7402Y-6.6535
X2.7618Y-7.1087
X2.7618Y-7.1314
X2.7717Y-6.4016
X2.7717Y-6.4646
X2.7717Y-6.4961
X2.7717Y-6.5276
X2.7717Y-6.5591
X2.7717Y-6.622
X2.7717Y-6.6535
X2.7721Y-6.4331
X2.7874Y-6.3307
X2.8031Y-6.4646
X2.8031Y-6.5591
X2.8031Y-6.622
X2.8189Y-6.3307
X2.8346Y-6.4331
X2.8346Y-6.4961
X2.8346Y-6.5276
X2.8346Y-6.5906
X2.8346Y-6.622
X2.8504Y-6.3307
X2.8661Y-6.4016
X2.8661Y-6.4331
X2.8661Y-6.4646
X2.8661Y-6.4961
X2.8661Y-6.5276
X2.8661Y-6.5906
X2.8661Y-6.622
X2.8661Y-6.6535
X2.8976Y-6.4016
X2.8976Y-6.4331
X2.8976Y-6.4961
X2.8976Y-6.5276
X2.8976Y-6.5905
X2.8976Y-6.622
X2.9134Y-6.3307
X2.9291Y-6.4016
X2.9291Y-6.4331
X2.9291Y-6.4646
X2.9291Y-6.5276
X2.9291Y-6.5905
X2.9291Y-6.622
X2.9291Y-6.6535
X2.9449Y-6.3307
X2.9606Y-6.6535
X2.9921Y-6.5591
X2.9921Y-6.5906
X2.9921Y-6.6535
X2.9921Y-6.685
X3.Y-6.3543
X3.Y-6.4488
X3.Y-6.4803
X3.Y-6.5118
X3.0354Y-6.4646
T2
X0.9252Y-6.2362
X0.9252Y-6.3031
X0.9291Y-5.9134
X0.9311Y-5.5965
X0.9429Y-3.0118
X0.9429Y-3.0709
X0.9488Y-3.6634
X0.9528Y-6.1102
X0.9528Y-6.5394
X0.9646Y-6.4213
X0.9646Y-6.6378
X0.9646Y-6.6772
X0.9783Y-5.3307
X0.9783Y-5.3976
X0.9862Y-3.5709
X0.9862Y-3.8937
X0.9921Y-5.4606
X1.0039Y-6.4213
X1.0039Y-6.6378
X1.0039Y-6.6772
X1.013Y-1.7902
X1.0157Y-6.1102
X1.0236Y-3.7146
X1.0315Y-5.1929
X1.0335Y-5.252
X1.0354Y-7.1102
X1.0394Y-5.3307
X1.0394Y-5.3976
X1.0394Y-5.4646
X1.0433Y-6.4213
X1.0434Y-3.3216
X1.0512Y-2.7244
X1.0674Y-1.8816
X1.0709Y-4.6772
X1.0709Y-4.7362
X1.0709Y-4.9055
X1.0709Y-4.9646
X1.0748Y-4.0827
X1.0748Y-4.1398
X1.0748Y-4.2264
X1.0807Y-3.5322
X1.0807Y-3.5922
X1.0886Y-3.8583
X1.0984Y-5.3071
X1.0984Y-5.3622
X1.1024Y-5.9173
X1.1063Y-4.815
X1.1063Y-4.815
X1.1063Y-4.8543
X1.1092Y-4.3159
X1.1102Y-4.0453
X1.1358Y-5.0374
X1.1378Y-5.0965
X1.1378Y-5.1476
X1.1457Y-4.0827
X1.1457Y-4.122
X1.1457Y-4.8346
X1.1457Y-4.874
X1.1476Y-4.0217
X1.1732Y-4.6024
X1.1785Y-2.6267
X1.185Y-2.3602
X1.1859Y-3.3835
X1.1957Y-3.4989
X1.2008Y-7.0059
X1.205Y-3.2972
X1.2205Y-3.5322
X1.2205Y-3.5922
X1.2283Y-4.685
X1.2323Y-4.6024
X1.2461Y-4.437
X1.252Y-1.9134
X1.2559Y-5.1398
X1.2628Y-5.4488
X1.2629Y-4.0522
X1.2677Y-7.
X1.2815Y-4.8287
X1.2815Y-4.8996
X1.2854Y-5.6063
X1.2894Y-4.4331
X1.3074Y-4.1486
X1.3327Y-3.0394
X1.3327Y-3.0984
X1.3524Y-4.8287
X1.3524Y-4.8996
X1.3543Y-4.4921
X1.3799Y-4.0217
X1.3799Y-4.0807
X1.3799Y-4.122
X1.3858Y-7.0984
X1.3957Y-4.4272
X1.3959Y-4.3681
X1.4062Y-5.063
X1.4062Y-5.1493
X1.4134Y-5.4213
X1.4252Y-4.6024
X1.4469Y-5.6063
X1.4488Y-3.685
X1.4488Y-4.0807
X1.4488Y-4.1398
X1.4744Y-2.752
X1.4744Y-2.945
X1.4791Y-5.013
X1.4791Y-5.0993
X1.4848Y-4.6025
X1.4891Y-2.811
X1.4891Y-2.8858
X1.4941Y-4.2244
X1.4961Y-3.7756
X1.4961Y-4.874
X1.4961Y-5.4803
X1.5Y-6.5394
X1.5118Y-6.4213
X1.5118Y-6.6378
X1.5118Y-6.6772
X1.5276Y-4.4449
X1.5409Y-4.8761
X1.5409Y-4.9624
X1.5512Y-3.8661
X1.5512Y-6.4213
X1.5512Y-6.6378
X1.5512Y-6.6772
X1.5551Y-1.8858
X1.5571Y-7.1102
X1.561Y-4.8268
X1.563Y-5.4134
X1.5728Y-3.6654
X1.5787Y-4.7008
X1.5787Y-4.7598
X1.5787Y-5.0039
X1.5787Y-5.063
X1.5827Y-4.8543
X1.5906Y-6.4213
X1.5945Y-4.7953
X1.6085Y-2.6267
X1.6358Y-3.8937
X1.6417Y-1.9094
X1.6457Y-4.5551
X1.6457Y-4.6811
X1.6476Y-4.4252
X1.6693Y-2.752
X1.6713Y-3.0118
X1.6713Y-3.0709
X1.6732Y-3.7165
X1.7126Y-4.6772
X1.7126Y-4.7362
X1.7126Y-4.9055
X1.7126Y-4.9646
X1.7137Y-2.7441
X1.7165Y-4.0827
X1.7165Y-4.1398
X1.7165Y-4.2264
X1.7244Y-5.0433
X1.7244Y-5.1654
X1.7362Y-1.9094
X1.7382Y-3.8583
X1.7437Y-2.7441
X1.748Y-4.815
X1.748Y-4.8543
X1.748Y-5.878
X1.748Y-5.9803
X1.748Y-6.0669
X1.748Y-7.0059
X1.752Y-4.3148
X1.752Y-6.1673
X1.7778Y-3.3216
X1.7874Y-4.0222
X1.7874Y-4.0807
X1.7874Y-4.122
X1.7874Y-4.8346
X1.7874Y-4.874
X1.7874Y-5.0433
X1.8031Y-2.6457
X1.8071Y-2.6063
X1.8071Y-7.4016
X1.8071Y-7.4409
X1.8091Y-4.4921
X1.8103Y-3.5322
X1.811Y-3.5922
X1.815Y-4.6024
X1.8268Y-1.9094
X1.8268Y-5.3425
X1.8268Y-5.3976
X1.8465Y-5.9724
X1.8465Y-6.0787
X1.8465Y-7.4016
X1.8465Y-7.4409
X1.8576Y-2.7441
X1.8583Y-2.6063
X1.8701Y-4.685
X1.874Y-4.6024
X1.876Y-4.4331
X1.876Y-7.2303
X1.8878Y-2.563
X1.8957Y-5.3425
X1.8957Y-5.3976
X1.8996Y-7.2067
X1.8996Y-7.2539
X1.9016Y-4.0512
X1.9153Y-3.3835
X1.9193Y-4.437
X1.9203Y-1.7913
X1.9232Y-4.8287
X1.9232Y-4.8996
X1.9252Y-3.5
X1.9252Y-6.687
X1.9291Y-2.0709
X1.9344Y-3.2972
X1.9435Y-4.1483
X1.9469Y-2.6454
X1.9508Y-3.5322
X1.9508Y-3.5925
X1.9529Y-5.2627
X1.9606Y-5.6732
X1.9606Y-5.7343
X1.9606Y-5.9252
X1.9606Y-6.1929
X1.9724Y-2.7441
X1.9729Y-6.7657
X1.9941Y-4.8287
X1.9941Y-4.8996
X1.9972Y-1.7925
X2.0039Y-4.0807
X2.0039Y-4.122
X2.0118Y-4.0236
X2.0392Y-5.2627
X2.0531Y-5.1516
X2.0533Y-5.0653
X2.061Y-3.0394
X2.061Y-3.0984
X2.0669Y-4.6024
X2.0728Y-4.0807
X2.0728Y-4.1398
X2.0744Y-6.7657
X2.0748Y-6.3366
X2.0787Y-5.2874
X2.0787Y-5.4567
X2.0862Y-5.9414
X2.0906Y-4.4331
X2.0925Y-3.3051
X2.0925Y-3.498
X2.1209Y-5.013
X2.1209Y-5.0993
X2.124Y-4.3465
X2.1265Y-4.6025
X2.128Y-3.2165
X2.128Y-3.5866
X2.1339Y-6.3366
X2.1378Y-4.874
X2.1514Y-2.9458
X2.1515Y-2.752
X2.1634Y-7.122
X2.1634Y-7.1614
X2.1654Y-6.2067
X2.1654Y-6.3228
X2.1693Y-6.6024
X2.1732Y-4.0827
X2.1732Y-4.248
X2.1732Y-5.5669
X2.1732Y-5.9606
X2.1772Y-4.2953
X2.1772Y-4.3346
X2.1772Y-4.4764
X2.1772Y-5.3504
X2.1772Y-5.7836
X2.1827Y-4.8761
X2.1827Y-4.9624
X2.2007Y-2.3596
X2.2028Y-4.8268
X2.2035Y-2.6267
X2.2165Y-5.5079
X2.2165Y-5.5472
X2.2165Y-5.7047
X2.2165Y-5.9016
X2.2205Y-4.7008
X2.2205Y-4.7598
X2.2205Y-5.0039
X2.2205Y-5.063
X2.2264Y-7.122
X2.2264Y-7.1614
X2.2323Y-6.6201
X2.2362Y-1.9134
X2.2362Y-4.1654
X2.2362Y-4.7953
X2.2402Y-4.0394
X2.2506Y-2.8858
X2.252Y-2.811
X2.252Y-3.5866
X2.2559Y-5.3898
X2.2559Y-5.5866
X2.2559Y-5.7047
X2.2559Y-5.8228
X2.2598Y-5.063
X2.2677Y-6.4291
X2.2677Y-6.5669
X2.2953Y-4.8937
X2.2953Y-5.4291
X2.2953Y-5.4685
X2.2953Y-5.5472
X2.2953Y-5.5866
X2.2953Y-5.7047
X2.2992Y-3.2461
X2.2992Y-3.7402
X2.3031Y-3.9252
X2.3051Y-7.122
X2.3051Y-7.1614
X2.3307Y-6.4291
X2.3307Y-6.5433
X2.3346Y-4.8937
X2.3346Y-5.4291
X2.3346Y-5.5079
X2.3346Y-5.626
X2.3346Y-5.8228
X2.3346Y-5.8622
X2.3346Y-5.9016
X2.3516Y-3.3144
X2.3661Y-4.1654
X2.3681Y-7.0807
X2.3681Y-7.122
X2.3681Y-7.1614
X2.374Y-5.3504
X2.374Y-5.3898
X2.374Y-5.4685
X2.374Y-5.5079
X2.374Y-5.626
X2.374Y-5.6654
X2.374Y-5.7835
X2.3937Y-5.9843
X2.3937Y-6.5433
X2.3976Y-3.7894
X2.4016Y-6.5906
X2.4023Y-2.6267
X2.4114Y-3.8563
X2.4134Y-5.4685
X2.4134Y-5.5079
X2.4134Y-5.5472
X2.4134Y-5.5866
X2.4134Y-5.626
X2.4134Y-5.6654
X2.4134Y-5.7047
X2.4134Y-5.7835
X2.4134Y-6.0295
X2.4134Y-6.1319
X2.4213Y-6.3248
X2.4213Y-6.3898
X2.4331Y-6.6496
X2.4449Y-3.7402
X2.4449Y-3.9429
X2.4488Y-4.8976
X2.4488Y-4.9803
X2.4528Y-5.4685
X2.4528Y-5.5472
X2.4528Y-5.5866
X2.4528Y-5.626
X2.4528Y-5.6654
X2.4528Y-5.7047
X2.4528Y-5.7441
X2.4528Y-5.7835
X2.4528Y-5.8622
X2.4567Y-6.4291
X2.4646Y-6.5906
X2.4646Y-6.7067
X2.4817Y-3.5931
X2.4921Y-5.2992
X2.4921Y-5.3898
X2.4921Y-5.4291
X2.4921Y-5.4685
X2.4921Y-5.5472
X2.4921Y-5.5866
X2.4921Y-5.626
X2.4921Y-5.6654
X2.4921Y-5.7047
X2.4921Y-5.7441
X2.4921Y-5.7835
X2.4921Y-5.8228
X2.4921Y-6.1673
X2.4921Y-6.4882
X2.4921Y-6.5472
X2.5039Y-2.8701
X2.5039Y-2.9331
X2.5039Y-2.9961
X2.5039Y-3.8858
X2.5039Y-3.9429
X2.5039Y-4.4094
X2.5039Y-6.3287
X2.5039Y-6.3898
X2.5098Y-3.063
X2.5098Y-6.4311
X2.5118Y-4.8976
X2.5118Y-4.9803
X2.5197Y-7.4055
X2.5197Y-7.4409
X2.5315Y-3.2776
X2.5315Y-3.5925
X2.5315Y-5.4685
X2.5315Y-5.5472
X2.5315Y-5.5866
X2.5315Y-5.626
X2.5315Y-5.6654
X2.5315Y-5.7047
X2.5315Y-5.7441
X2.5315Y-5.9409
X2.5335Y-3.7402
X2.5354Y-6.0709
X2.5394Y-3.9409
X2.5394Y-4.0236
X2.5433Y-2.811
X2.5551Y-6.6496
X2.5551Y-6.6791
X2.5551Y-6.7087
X2.5591Y-1.8858
X2.5591Y-5.1929
X2.563Y-6.5472
X2.5646Y-6.4882
X2.5669Y-6.3287
X2.5709Y-5.4291
X2.5709Y-5.4685
X2.5709Y-5.5079
X2.5709Y-5.5472
X2.5709Y-5.5866
X2.5709Y-5.7047
X2.5709Y-5.7441
X2.5709Y-5.7835
X2.5709Y-5.8228
X2.5709Y-5.8622
X2.5709Y-5.9016
X2.5906Y-5.3465
X2.5906Y-5.9843
X2.5906Y-6.0433
X2.5965Y-6.8189
X2.6102Y-5.4291
X2.6102Y-5.4685
X2.6102Y-5.5079
X2.6102Y-5.5472
X2.6102Y-5.5866
X2.6102Y-5.626
X2.6102Y-5.6654
X2.6102Y-5.7047
X2.6102Y-5.7441
X2.6102Y-5.7835
X2.6102Y-5.8228
X2.6102Y-5.8622
X2.6102Y-5.9016
X2.6122Y-3.5669
X2.6181Y-2.7362
X2.6235Y-2.6267
X2.626Y-6.6535
X2.626Y-6.7047
X2.6339Y-3.1299
X2.6339Y-4.4173
X2.6378Y-7.4016
X2.6378Y-7.4409
X2.6417Y-6.9449
X2.6457Y-1.9094
X2.6457Y-3.6555
X2.6496Y-4.4724
X2.6496Y-5.3543
X2.6496Y-5.3898
X2.6496Y-5.4291
X2.6496Y-5.4685
X2.6496Y-5.5079
X2.6496Y-5.5472
X2.6496Y-5.5866
X2.6496Y-5.626
X2.6496Y-5.6654
X2.6496Y-5.7047
X2.6496Y-5.7441
X2.6496Y-5.7835
X2.6496Y-5.8228
X2.6496Y-5.8622
X2.6496Y-5.9016
X2.6496Y-5.9409
X2.6575Y-6.7835
X2.6614Y-6.2598
X2.6693Y-2.8701
X2.6693Y-2.9331
X2.6693Y-4.0236
X2.6791Y-3.7854
X2.6791Y-3.8445
X2.6811Y-6.9055
X2.689Y-4.4724
X2.689Y-5.4685
X2.689Y-5.5079
X2.689Y-5.5866
X2.689Y-5.626
X2.689Y-5.6654
X2.689Y-5.7047
X2.689Y-5.7441
X2.689Y-5.7835
X2.689Y-5.8228
X2.689Y-5.8622
X2.689Y-5.9016
X2.689Y-5.9409
X2.7008Y-3.2874
X2.7008Y-3.4193
X2.7028Y-6.967
X2.7028Y-7.0684
X2.7244Y-5.2953
X2.7244Y-6.2598
X2.7264Y-6.0472
X2.7283Y-4.4724
X2.7283Y-5.4685
X2.7283Y-5.5079
X2.7283Y-5.626
X2.7283Y-5.6654
X2.7283Y-5.7047
X2.7283Y-5.7835
X2.7283Y-5.8228
X2.7283Y-5.8622
X2.7283Y-5.9016
X2.7283Y-5.9409
X2.7283Y-5.9803
X2.7343Y-4.0354
X2.7441Y-6.9055
X2.7535Y-6.9764
X2.7559Y-3.1417
X2.7579Y-3.6713
X2.7609Y-1.9094
X2.7618Y-7.0694
X2.7618Y-7.1708
X2.7638Y-3.2874
X2.7638Y-3.4193
X2.7677Y-5.6654
X2.7677Y-5.8622
X2.7717Y-6.748
X2.7756Y-3.9291
X2.7795Y-5.2953
X2.8012Y-6.0433
X2.8071Y-5.9803
X2.811Y-5.3465
X2.815Y-5.7638
X2.8169Y-5.5669
X2.8268Y-3.2874
X2.8268Y-3.4193
X2.8346Y-6.7638
X2.8386Y-3.9291
X2.8459Y-1.9094
X2.8583Y-2.7362
X2.8583Y-2.811
X2.8622Y-1.7913
X2.8622Y-5.4331
X2.8622Y-6.2638
X2.8628Y-5.378
X2.8661Y-5.561
X2.8661Y-5.6417
X2.8661Y-5.7638
X2.8676Y-4.1576
X2.8677Y-4.2846
X2.8701Y-4.0079
X2.8799Y-3.5551
X2.8819Y-4.3583
X2.8819Y-4.3976
X2.8898Y-3.0157
X2.8898Y-3.1535
X2.8898Y-3.2874
X2.8898Y-3.4193
X2.8937Y-3.622
X2.8976Y-6.7638
X2.9114Y-5.7953
X2.9114Y-5.8504
X2.9173Y-5.9843
X2.9173Y-6.0394
X2.9213Y-4.3583
X2.9213Y-4.3976
X2.9232Y-6.2638
X2.9252Y-5.5669
X2.9276Y-4.1575
X2.9528Y-3.0157
X2.9528Y-3.1535
X2.9547Y-2.6762
X2.9547Y-2.8691
X2.9567Y-4.2555
X2.9606Y-5.4882
X2.9606Y-6.7638
X2.9646Y-5.5157
X2.9705Y-4.0453
X2.9764Y-5.5472
X2.9823Y-5.9843
X2.9823Y-6.0394
X2.9843Y-7.0118
X2.9852Y-6.8386
X2.9921Y-3.6949
X2.9941Y-7.187
X3.0059Y-4.372
X3.0157Y-3.0157
X3.0157Y-3.1535
X3.0177Y-4.4311
X3.0177Y-5.4882
X3.0177Y-5.5433
X3.0197Y-5.2913
X3.0197Y-5.3465
X3.0236Y-6.7343
X3.0354Y-5.685
X3.0551Y-6.6457
X3.0571Y-5.7835
X3.0571Y-5.8622
X3.061Y-5.1102
X3.061Y-5.1732
X3.063Y-7.0335
X3.065Y-6.3543
X3.065Y-6.4134
X3.0669Y-4.372
X3.0709Y-6.5039
X3.0709Y-6.563
X3.0787Y-3.0157
X3.0787Y-3.1535
X3.0866Y-6.7343
X3.1024Y-6.2835
X3.1024Y-6.3307
X3.1043Y-5.2913
X3.1063Y-5.3465
X3.1063Y-6.4744
X3.1063Y-6.5925
X3.1063Y-6.9764
X3.1142Y-4.876
X3.1201Y-6.6457
X3.1299Y-5.9803
X3.1299Y-6.0433
X3.1339Y-6.4449
X3.1413Y-5.8627
X3.1417Y-5.7835
X3.1496Y-2.7362
X3.1496Y-2.811
X3.1496Y-5.0866
X3.1496Y-5.1969
X3.1614Y-6.6378
X3.1614Y-7.0866
X3.1634Y-5.4843
X3.1634Y-5.5472
X3.1634Y-5.8071
X3.1634Y-5.9173
X3.1713Y-4.0453
X3.1732Y-4.876
X3.1732Y-6.2756
X3.1732Y-6.3386
X3.1791Y-6.4961
X3.185Y-6.122
X3.1929Y-6.815
X3.1929Y-6.8937
X3.1988Y-7.1752
X3.2087Y-5.9803
X3.2087Y-6.0433
X3.2087Y-6.9409
X3.2244Y-4.3366
X3.2441Y-4.3622
X3.248Y-1.9961
X3.248Y-2.2756
X3.25Y-2.6762
X3.25Y-2.871
X3.2501Y-3.2599
X3.252Y-4.2913
X3.2579Y-4.0453
X3.2598Y-6.6378
X3.2717Y-4.876
X3.2776Y-5.4646
X3.2776Y-5.5748
X3.2795Y-6.1555
X3.2795Y-6.4961
X3.2815Y-5.8071
X3.2815Y-5.9173
X3.3087Y-3.289
X3.3087Y-3.349
X3.3095Y-1.7163
X3.311Y-4.3839
X3.3287Y-2.5531
X3.3287Y-6.2086
X3.3307Y-4.876
X3.3465Y-1.9075
X3.3543Y-7.0276
X3.3543Y-7.0984
X3.378Y-5.3307
X3.3819Y-4.3819
X3.3878Y-2.5531
X3.3957Y-5.4646
X3.3976Y-5.5748
X3.4016Y-5.0866
X3.4016Y-5.1969
X3.4035Y-6.2087
X3.4075Y-6.3878
X3.437Y-5.3701
X3.4449Y-2.2559
X3.4587Y-4.0453
X3.4642Y-4.5215
X3.4642Y-4.5845
X3.4646Y-6.8858
X3.4665Y-4.7165
X3.4665Y-4.7795
X3.4823Y-6.3878
X3.4862Y-6.2087
X3.4882Y-2.606
X3.4882Y-2.6907
X3.4902Y-5.1102
X3.4902Y-5.1732
X3.498Y-5.7362
X3.498Y-6.0669
X3.5138Y-5.5079
X3.5276Y-5.7244
X3.5354Y-2.2559
X3.5394Y-5.878
X3.5394Y-5.9291
X3.5502Y-2.9629
X3.5502Y-3.0221
X3.5512Y-6.0039
X3.561Y-6.2087
X3.565Y-6.3878
X3.5689Y-5.1102
X3.5787Y-4.6713
X3.5827Y-4.1418
X3.5827Y-4.2521
X3.584Y-4.3832
X3.5906Y-5.7047
X3.5945Y-2.2559
X3.6044Y-3.3032
X3.6102Y-4.6713
X3.6102Y-5.7992
X3.6102Y-6.0039
X3.6102Y-6.872
X3.6142Y-7.2559
X3.6225Y-2.2028
X3.625Y-2.44
X3.625Y-2.59
X3.627Y-4.1122
X3.6398Y-6.3878
X3.6437Y-6.2087
X3.6479Y-2.3092
X3.6496Y-5.7047
X3.6575Y-5.878
X3.6575Y-5.9291
X3.6585Y-4.1122
X3.6772Y-5.7047
X3.6811Y-5.3415
X3.6811Y-7.2559
X3.7047Y-5.1122
X3.7047Y-5.1752
X3.7087Y-5.7047
X3.7185Y-6.2087
X3.7205Y-5.3415
X3.7224Y-6.3878
X3.7283Y-5.7992
X3.7285Y-6.0039
X3.7362Y-5.7047
X3.7394Y-2.2106
X3.74Y-2.365
X3.7579Y-3.4193
X3.7598Y-4.189
X3.7598Y-4.2283
X3.7598Y-4.2677
X3.7598Y-4.7087
X3.7598Y-4.748
X3.7598Y-4.7874
X3.7598Y-5.3415
X3.7657Y-6.8031
X3.7657Y-6.8583
X3.7677Y-5.7047
X3.7742Y-2.3092
X3.7756Y-5.878
X3.7756Y-5.9291
X3.7874Y-6.0039
X3.7875Y-5.7992
X3.7972Y-6.3878
X3.8031Y-3.5669
X3.8031Y-3.624
X3.8268Y-6.0039
X3.8269Y-5.7992
X3.8327Y-6.8031
X3.8327Y-6.8583
X3.8465Y-5.7047
X3.855Y-2.5486
X3.876Y-4.2776
X3.876Y-4.7972
X3.876Y-5.3415
X3.8799Y-6.2087
X3.8803Y-6.3878
X3.8917Y-3.565
X3.8917Y-3.624
X3.8937Y-5.878
X3.8937Y-5.9291
X3.9016Y-2.0906
X3.9134Y-2.5492
X3.9134Y-7.2559
X3.9193Y-6.8681
X3.9415Y-2.1496
X3.9449Y-6.0039
X3.945Y-5.7992
X3.9547Y-1.9665
X3.9547Y-6.2087
X3.9551Y-6.3878
X3.9644Y-2.6057
X3.9647Y-2.6907
X3.9705Y-2.2559
X3.9764Y-4.2283
X3.9764Y-4.2677
X3.9764Y-4.748
X3.9764Y-4.7874
X3.9764Y-5.2638
X3.9764Y-5.3031
X3.9803Y-7.2559
X4.0039Y-6.0039
X4.0079Y-3.0591
X4.0118Y-5.878
X4.0118Y-5.9291
X4.0157Y-4.2283
X4.0157Y-4.2677
X4.0157Y-4.748
X4.0157Y-4.7874
X4.0157Y-5.2638
X4.0157Y-5.3031
X4.0197Y-5.7126
X4.0374Y-6.2087
X4.0374Y-6.3878
X4.061Y-5.7362
X4.061Y-6.0669
X4.065Y-2.2559
X4.1004Y-1.9075
X4.1122Y-6.2087
X4.1122Y-6.3878
X4.1142Y-5.6299
X4.1142Y-5.6781
X4.1181Y-3.1713
X4.1181Y-3.2303
X4.1245Y-2.2559
X4.1575Y-3.4843
X4.1594Y-5.6299
X4.1594Y-5.6781
X4.1693Y-3.5512
X4.1949Y-6.2087
X4.1949Y-6.3878
X4.2028Y-3.1713
X4.2028Y-3.2303
X4.2205Y-3.9646
X4.2205Y-4.5157
X4.2264Y-5.5236
X4.2264Y-5.8425
X4.2264Y-5.9606
X4.2283Y-6.0118
X4.2382Y-7.0295
X4.2382Y-7.0965
X4.2657Y-5.7756
X4.2697Y-6.2087
X4.2697Y-6.3878
X4.2967Y-1.7171
X4.315Y-6.1142
X4.3169Y-6.0591
X4.3445Y-4.0315
X4.3445Y-4.5512
X4.3445Y-5.063
X4.372Y-6.2303
X4.378Y-4.4843
X4.3937Y-5.7402
X4.3937Y-6.0591
X4.4016Y-6.1929
X4.4035Y-3.0413
X4.4134Y-3.4705
X4.4232Y-3.0039
X4.4291Y-5.4961
X4.4331Y-5.0079
X4.439Y-6.2913
X4.4429Y-5.5861
X4.4488Y-4.1969
X4.4488Y-4.7165
X4.4488Y-5.2283
X4.4606Y-6.1929
X4.4705Y-6.6909
T3
X1.3091Y-6.9193
X1.3406Y-6.9508
X1.6142Y-7.2913
X1.6142Y-7.3307
X1.6614Y-7.2913
X1.7087Y-7.2913
X1.7087Y-7.3307
X1.8228Y-6.8031
X1.8563Y-6.8366
X1.9016Y-6.9882
X1.939Y-6.9882
X4.437Y-6.7992
X4.4843Y-6.7992
X4.5079Y-4.4075
X4.5079Y-4.4469
X4.5079Y-4.9193
X4.5079Y-4.9587
X4.5591Y-3.8898
X4.5591Y-3.9291
T4
X0.8465Y-1.2559
X0.8465Y-1.374
X0.8465Y-1.4921
X0.8465Y-1.7283
X0.8465Y-1.8465
X0.8465Y-1.9646
X0.8465Y-2.0827
X0.8465Y-2.2008
X0.8465Y-2.3189
X0.8465Y-2.437
X0.8465Y-2.5551
X0.8465Y-2.6732
X0.8465Y-2.7913
X0.8465Y-3.0276
X0.8465Y-3.1457
X0.8465Y-3.2638
X0.8465Y-3.3819
X0.8465Y-3.5
X0.8465Y-3.6181
X0.8465Y-3.7362
X0.8465Y-3.8543
X0.8465Y-3.9724
X0.8465Y-4.0906
X0.8465Y-4.3268
X0.8465Y-4.4449
X0.8465Y-4.563
X0.8465Y-4.6811
X0.8465Y-4.7992
X0.8465Y-4.9173
X0.8465Y-5.1535
X0.8465Y-5.2717
X0.8465Y-5.3898
X0.8465Y-5.5079
X0.8465Y-5.626
X0.8465Y-5.7441
X0.8465Y-5.9803
X0.8465Y-6.0984
X0.8465Y-6.2165
X0.8465Y-6.3346
X0.8465Y-6.4528
X0.8465Y-6.5709
X0.8465Y-6.689
X0.8465Y-6.9094
X0.8465Y-7.0433
X0.8465Y-7.1614
X0.8465Y-7.2795
X0.8465Y-7.3976
X4.6654Y-1.2559
X4.6654Y-1.374
X4.6654Y-1.4921
X4.6654Y-1.7283
X4.6654Y-1.8465
X4.6654Y-1.9646
X4.6654Y-2.0827
X4.6654Y-2.2008
X4.6654Y-2.3189
X4.6654Y-2.437
X4.6654Y-2.5551
X4.6654Y-2.6732
X4.6654Y-2.7913
X4.6654Y-3.0276
X4.6654Y-3.1457
X4.6654Y-3.2638
X4.6654Y-3.3819
X4.6654Y-3.5
X4.6654Y-3.6181
X4.6654Y-3.7362
X4.6654Y-3.8543
X4.6654Y-3.9724
X4.6654Y-4.0906
X4.6654Y-4.3268
X4.6654Y-4.4449
X4.6654Y-4.563
X4.6654Y-4.6811
X4.6654Y-4.7992
X4.6654Y-4.9173
X4.6654Y-5.1535
X4.6654Y-5.2717
X4.6654Y-5.3898
X4.6654Y-5.5079
X4.6654Y-5.626
X4.6654Y-5.7441
X4.6654Y-5.9803
X4.6654Y-6.0984
X4.6654Y-6.2165
X4.6654Y-6.3346
X4.6654Y-6.4528
X4.6654Y-6.5709
X4.6654Y-6.689
X4.6654Y-6.9252
X4.6654Y-7.0433
X4.6654Y-7.1614
X4.6654Y-7.2795
X4.6654Y-7.3976
T5
X2.0728Y-6.8697
X2.1417Y-6.8697
X2.2402Y-6.8697
X2.3386Y-6.8697
X2.4075Y-6.8697
T6
X2.1909Y-6.9484
X2.1909Y-7.0272
X2.2894Y-6.9484
X2.2894Y-7.0272
T7
X1.4421Y-6.3654
X1.6421Y-6.3654
X3.3421Y-4.9654
X3.5421Y-4.9654
T8
X3.4974Y-7.0142
X3.4974Y-7.1142
X3.5974Y-7.0142
X3.5974Y-7.1142
X3.6496Y-5.4272
X3.6974Y-7.0142
X3.6974Y-7.1142
X3.7496Y-5.4272
X3.7974Y-7.0142
X3.7974Y-7.1142
X3.8496Y-5.4272
X3.8974Y-7.0142
X3.8974Y-7.1142
X3.9496Y-5.4272
X3.9974Y-7.0142
X3.9974Y-7.1142
X4.0496Y-5.4272
X4.0974Y-7.0142
X4.0974Y-7.1142
X4.1496Y-5.4272
T9
X1.7209Y-1.3816
X1.8224Y-1.3816
X3.0672Y-7.272
X3.1687Y-7.272
X3.6894Y-1.3816
X3.7909Y-1.3816
T10
X1.2794Y-1.4624
X2.2636Y-1.4624
X3.2479Y-1.4624
X4.2321Y-1.4624
T11
X4.3307Y-7.2244
X4.3307Y-7.3858
T12
X1.1495Y-1.3326
X1.1495Y-1.5924
X1.4094Y-1.3326
X1.4094Y-1.5924
X2.1338Y-1.3326
X2.1338Y-1.5924
X2.3936Y-1.3326
X2.3936Y-1.5924
X3.118Y-1.3326
X3.118Y-1.5924
X3.3779Y-1.3326
X3.3779Y-1.5924
X4.1023Y-1.3326
X4.1023Y-1.5924
X4.3621Y-1.3326
X4.3621Y-1.5924
T13
X2.0031Y-7.1339
X2.4772Y-7.1339
T14
X1.0039Y-7.2598
X1.6614Y-1.5906
X3.8504Y-1.5906
X4.5079Y-7.2598
T0
M30
